%TF.GenerationSoftware,KiCad,Pcbnew,5.0.2-bee76a0~70~ubuntu18.04.1*%
%TF.CreationDate,2019-02-12T23:17:40+02:00*%
%TF.ProjectId,BLE-NFC-Badge,424c452d-4e46-4432-9d42-616467652e6b,rev?*%
%TF.SameCoordinates,Original*%
%TF.FileFunction,Copper,L1,Top*%
%TF.FilePolarity,Positive*%
%FSLAX46Y46*%
G04 Gerber Fmt 4.6, Leading zero omitted, Abs format (unit mm)*
G04 Created by KiCad (PCBNEW 5.0.2-bee76a0~70~ubuntu18.04.1) date Tue 12 Feb 2019 11:17:40 PM EET*
%MOMM*%
%LPD*%
G01*
G04 APERTURE LIST*
%ADD10C,0.100000*%
%ADD11C,4.000000*%
%ADD12C,0.500000*%
%ADD13R,1.200000X0.900000*%
%ADD14C,0.900000*%
%ADD15C,1.700000*%
%ADD16C,1.700000*%
%ADD17C,0.800000*%
%ADD18C,0.250000*%
%ADD19C,0.750000*%
%ADD20C,1.000000*%
%ADD21C,0.254000*%
G04 APERTURE END LIST*
D10*
G36*
X138585521Y-121061817D02*
X138498283Y-119063720D01*
X135860795Y-119178875D01*
X135743023Y-116481445D01*
X138380510Y-116366290D01*
X138293272Y-114368193D01*
X135655784Y-114483349D01*
X135538012Y-111785918D01*
X139973786Y-111592248D01*
X139995596Y-112091772D01*
X136059346Y-112263633D01*
X136133499Y-113962015D01*
X138770986Y-113846860D01*
X138901844Y-116844004D01*
X136264357Y-116959159D01*
X136338510Y-118657541D01*
X138975997Y-118542386D01*
X139106855Y-121539531D01*
X136469368Y-121654686D01*
X136543521Y-123353068D01*
X141438857Y-123139333D01*
X141460667Y-123638857D01*
X136565331Y-123852592D01*
X136626398Y-125251260D01*
X141521734Y-125037525D01*
X141560991Y-125936668D01*
X141318008Y-125947277D01*
X141304817Y-125645148D01*
X141351952Y-125633239D01*
X141393264Y-125607345D01*
X141424362Y-125568008D01*
X141428366Y-125559914D01*
X141438602Y-125516763D01*
X141435743Y-125468323D01*
X141420870Y-125423414D01*
X141409456Y-125405283D01*
X141372788Y-125373209D01*
X141326749Y-125354641D01*
X141276985Y-125350276D01*
X141229140Y-125360813D01*
X141197682Y-125379097D01*
X141166581Y-125415748D01*
X141148481Y-125461892D01*
X141144077Y-125511716D01*
X141154057Y-125559412D01*
X141172381Y-125591536D01*
X141210640Y-125624838D01*
X141256249Y-125642528D01*
X141304817Y-125645148D01*
X141318008Y-125947277D01*
X136166131Y-126172213D01*
X135948034Y-121176972D01*
X138585521Y-121061817D01*
X138585521Y-121061817D01*
G37*
D11*
X164500000Y-85000000D03*
D12*
X141291601Y-125498001D03*
D10*
G36*
X141560992Y-125936668D02*
X141061468Y-125958478D01*
X141022210Y-125059334D01*
X141521734Y-125037524D01*
X141560992Y-125936668D01*
X141560992Y-125936668D01*
G37*
D12*
X141200000Y-123400000D03*
D10*
G36*
X141460667Y-123638857D02*
X140961143Y-123660667D01*
X140939333Y-123161143D01*
X141438857Y-123139333D01*
X141460667Y-123638857D01*
X141460667Y-123638857D01*
G37*
D13*
X142300000Y-99475000D03*
X145100000Y-100925000D03*
X142300000Y-100925000D03*
X145100000Y-99475000D03*
D14*
X190077297Y-133197398D03*
D10*
G36*
X189971231Y-133939860D02*
X189334835Y-133303464D01*
X190183363Y-132454936D01*
X190819759Y-133091332D01*
X189971231Y-133939860D01*
X189971231Y-133939860D01*
G37*
D14*
X189122703Y-136202602D03*
D10*
G36*
X189016637Y-136945064D02*
X188380241Y-136308668D01*
X189228769Y-135460140D01*
X189865165Y-136096536D01*
X189016637Y-136945064D01*
X189016637Y-136945064D01*
G37*
D14*
X191102602Y-134222703D03*
D10*
G36*
X190996536Y-134965165D02*
X190360140Y-134328769D01*
X191208668Y-133480241D01*
X191845064Y-134116637D01*
X190996536Y-134965165D01*
X190996536Y-134965165D01*
G37*
D14*
X188097398Y-135177297D03*
D10*
G36*
X187991332Y-135919759D02*
X187354936Y-135283363D01*
X188203464Y-134434835D01*
X188839860Y-135071231D01*
X187991332Y-135919759D01*
X187991332Y-135919759D01*
G37*
D13*
X155250000Y-141400000D03*
X158050000Y-139950000D03*
X155250000Y-139950000D03*
X158050000Y-141400000D03*
D15*
X158701412Y-84458934D03*
D16*
X158701412Y-84458934D02*
X158701412Y-84458934D01*
D15*
X159142478Y-86960346D03*
D16*
X159142478Y-86960346D02*
X159142478Y-86960346D01*
D15*
X156200000Y-84900000D03*
D16*
X156200000Y-84900000D02*
X156200000Y-84900000D01*
D15*
X156641066Y-87401412D03*
D17*
X141900000Y-112400000D03*
X145800000Y-113900000D03*
X142100000Y-116800000D03*
X142300000Y-121400000D03*
X166300000Y-96550000D03*
X161250000Y-93300000D03*
X145350000Y-95400000D03*
X150820000Y-110360000D03*
X145900000Y-125600000D03*
X150150000Y-128000000D03*
X155750000Y-120000000D03*
X143700000Y-122300000D03*
X156850000Y-124550000D03*
X153900000Y-113350000D03*
X159400000Y-141450000D03*
X153400000Y-106500000D03*
X147600000Y-107350000D03*
X167850000Y-94500000D03*
X142000000Y-98100000D03*
X186400000Y-137600000D03*
X162750000Y-115250000D03*
X157500000Y-120500000D03*
X150495558Y-106504442D03*
X152984315Y-89600000D03*
X149600000Y-106400000D03*
X147000000Y-112000000D03*
X150450000Y-90500000D03*
X147000000Y-112900003D03*
X147800000Y-93350000D03*
X147900000Y-114300000D03*
X151150000Y-89600000D03*
X149350001Y-114850000D03*
X146600000Y-93850000D03*
X147100000Y-100700000D03*
X141150000Y-100850000D03*
X145750000Y-97950000D03*
X182600000Y-141000000D03*
X191250000Y-131300000D03*
X191600000Y-132200000D03*
X152400000Y-139525000D03*
X156900000Y-138100000D03*
X153350000Y-138900000D03*
X155461601Y-108747271D03*
X154925000Y-92400000D03*
X155200000Y-109700000D03*
X155500000Y-96200000D03*
X155723827Y-110559990D03*
X155050000Y-99400000D03*
X152200000Y-119800000D03*
X158350000Y-130150000D03*
X152200000Y-121000000D03*
X170000000Y-138200010D03*
X151400000Y-121800000D03*
X168850000Y-139250000D03*
X150600000Y-122600000D03*
X137500000Y-134500000D03*
X150200000Y-123600000D03*
X141100000Y-130100000D03*
X149510024Y-121500000D03*
X147850000Y-123400000D03*
X149900000Y-117250000D03*
D18*
X166300000Y-96550000D02*
X164500000Y-96550000D01*
X164500000Y-96550000D02*
X161250000Y-93300000D01*
X141900000Y-111834315D02*
X141900000Y-112400000D01*
X141900000Y-109604982D02*
X141900000Y-111834315D01*
X147725001Y-103779981D02*
X141900000Y-109604982D01*
X147725001Y-97209316D02*
X147725001Y-103779981D01*
X145915685Y-95400000D02*
X147725001Y-97209316D01*
X145350000Y-95400000D02*
X145915685Y-95400000D01*
D19*
X144600000Y-124300000D02*
X145900000Y-125600000D01*
X144600000Y-117200000D02*
X144600000Y-124300000D01*
X145200000Y-116600000D02*
X144600000Y-117200000D01*
X148895003Y-116600000D02*
X145200000Y-116600000D01*
X150820000Y-110360000D02*
X150820000Y-114675003D01*
X150820000Y-114675003D02*
X148895003Y-116600000D01*
D18*
X150150000Y-128000000D02*
X149450000Y-128000000D01*
X149450000Y-128000000D02*
X147850000Y-126400000D01*
X147449999Y-125999999D02*
X147850000Y-126400000D01*
X146299999Y-125999999D02*
X147449999Y-125999999D01*
X145900000Y-125600000D02*
X146299999Y-125999999D01*
X142600000Y-123400000D02*
X141200000Y-123400000D01*
X143700000Y-122300000D02*
X142600000Y-123400000D01*
D20*
X153800000Y-116125000D02*
X153400000Y-115725000D01*
X153800000Y-120200000D02*
X153800000Y-116125000D01*
X153800000Y-120200000D02*
X153800000Y-120250000D01*
X153800000Y-120250000D02*
X156850000Y-123300000D01*
X156850000Y-123300000D02*
X156850000Y-124550000D01*
D18*
X153650000Y-113100000D02*
X153400000Y-113100000D01*
X153900000Y-113350000D02*
X153650000Y-113100000D01*
D20*
X153400000Y-108500000D02*
X153400000Y-113100000D01*
X153400000Y-113100000D02*
X153400000Y-115725000D01*
D18*
X158050000Y-141400000D02*
X159350000Y-141400000D01*
X159350000Y-141400000D02*
X159400000Y-141450000D01*
D20*
X153400000Y-106500000D02*
X153400000Y-108500000D01*
D19*
X153400000Y-106500000D02*
X152150000Y-107750000D01*
X147999999Y-107749999D02*
X147600000Y-107350000D01*
X152150000Y-107750000D02*
X147999999Y-107749999D01*
D18*
X166682132Y-94500000D02*
X159142478Y-86960346D01*
X167850000Y-94500000D02*
X166682132Y-94500000D01*
X142300000Y-99475000D02*
X142300000Y-98400000D01*
X142300000Y-98400000D02*
X142000000Y-98100000D01*
X188097398Y-135177297D02*
X186400000Y-136874695D01*
X186400000Y-136874695D02*
X186400000Y-137600000D01*
D19*
X152650000Y-107750000D02*
X153400000Y-108500000D01*
X152150000Y-107750000D02*
X152650000Y-107750000D01*
D18*
X154300000Y-91802824D02*
X159142478Y-86960346D01*
X154300000Y-99350000D02*
X154300000Y-91802824D01*
X153400000Y-106500000D02*
X153400000Y-100250000D01*
X153400000Y-100250000D02*
X154300000Y-99350000D01*
D19*
X169000000Y-130500000D02*
X194000000Y-124750000D01*
X194000000Y-124750000D02*
X196250000Y-121000000D01*
X196250000Y-121000000D02*
X191500000Y-99500000D01*
X191500000Y-99500000D02*
X188500000Y-97500000D01*
X188500000Y-97500000D02*
X162250000Y-103000000D01*
X162250000Y-103000000D02*
X160500000Y-106000000D01*
X160500000Y-106000000D02*
X162750000Y-115250000D01*
X169000000Y-130500000D02*
X166250000Y-128750000D01*
X166250000Y-128750000D02*
X163250000Y-117250000D01*
X163250000Y-117250000D02*
X161750000Y-116500000D01*
X161750000Y-116500000D02*
X159250000Y-106000000D01*
X159250000Y-106000000D02*
X161500000Y-102000000D01*
X161500000Y-102000000D02*
X188500000Y-96250000D01*
X188500000Y-96250000D02*
X189000000Y-96250000D01*
X189000000Y-96250000D02*
X192500000Y-98750000D01*
X192500000Y-98750000D02*
X192750000Y-99000000D01*
X192750000Y-99000000D02*
X197500000Y-121000000D01*
X197500000Y-121000000D02*
X197500000Y-121500000D01*
X197500000Y-121500000D02*
X195000000Y-125500000D01*
X195000000Y-125500000D02*
X194500000Y-126000000D01*
X194500000Y-126000000D02*
X190250000Y-127000000D01*
X190250000Y-127000000D02*
X169000000Y-131750000D01*
X169000000Y-131750000D02*
X168500000Y-131750000D01*
X168500000Y-131750000D02*
X165000000Y-129500000D01*
X165000000Y-129500000D02*
X162250000Y-118500000D01*
X162250000Y-118500000D02*
X161000000Y-117750000D01*
X161000000Y-117750000D02*
X158000000Y-106000000D01*
X158000000Y-106000000D02*
X161000000Y-101000000D01*
X161000000Y-101000000D02*
X188750000Y-95000000D01*
X188750000Y-95000000D02*
X189250000Y-95000000D01*
X189250000Y-95000000D02*
X193500000Y-98000000D01*
X193500000Y-98000000D02*
X193750000Y-98250000D01*
X193750000Y-98250000D02*
X198750000Y-121250000D01*
X198750000Y-121250000D02*
X198750000Y-121750000D01*
X198750000Y-121750000D02*
X195750000Y-126500000D01*
X195750000Y-126500000D02*
X195250000Y-127000000D01*
X195250000Y-127000000D02*
X173750000Y-132000000D01*
X173750000Y-132000000D02*
X169500000Y-133000000D01*
X169500000Y-133000000D02*
X168500000Y-133000000D01*
X168500000Y-133000000D02*
X164250000Y-130250000D01*
X164250000Y-130250000D02*
X164000000Y-130000000D01*
X164000000Y-130000000D02*
X161250000Y-119250000D01*
X161250000Y-119250000D02*
X160000000Y-118500000D01*
X160000000Y-118500000D02*
X158250000Y-112000000D01*
X158250000Y-112000000D02*
X156750000Y-105750000D01*
X156750000Y-105750000D02*
X160250000Y-100000000D01*
X160250000Y-100000000D02*
X189250000Y-93750000D01*
X189250000Y-93750000D02*
X194750000Y-97500000D01*
X194750000Y-97500000D02*
X200250000Y-122000000D01*
X200250000Y-122000000D02*
X196500000Y-127750000D01*
X196500000Y-127750000D02*
X169500000Y-134250000D01*
X169500000Y-134250000D02*
X168000000Y-134000000D01*
X168000000Y-134000000D02*
X163250000Y-131000000D01*
X163250000Y-131000000D02*
X162750000Y-130500000D01*
X162750000Y-130500000D02*
X160250000Y-120250000D01*
X160250000Y-120250000D02*
X159000000Y-119500000D01*
X159000000Y-119500000D02*
X155750000Y-106250000D01*
X155750000Y-106250000D02*
X155500000Y-105500000D01*
X155500000Y-105500000D02*
X158750000Y-100250000D01*
X158750000Y-100250000D02*
X159500000Y-99250000D01*
X159500000Y-99250000D02*
X189250000Y-92500000D01*
X189250000Y-92500000D02*
X195750000Y-96750000D01*
X195750000Y-96750000D02*
X201500000Y-122250000D01*
X201500000Y-122250000D02*
X200000000Y-124500000D01*
X200000000Y-124500000D02*
X197250000Y-128750000D01*
X197250000Y-128750000D02*
X169750000Y-135500000D01*
X169750000Y-135500000D02*
X167750000Y-135250000D01*
X167750000Y-135250000D02*
X162000000Y-131750000D01*
X162000000Y-131750000D02*
X161500000Y-131250000D01*
X161500000Y-131250000D02*
X159250000Y-121500000D01*
X159250000Y-121500000D02*
X159000000Y-121000000D01*
X159000000Y-121000000D02*
X157500000Y-120500000D01*
D18*
X148974999Y-106700001D02*
X148974999Y-105825001D01*
X150495558Y-106504442D02*
X149974999Y-107025001D01*
X149299999Y-107025001D02*
X148974999Y-106700001D01*
X149974999Y-107025001D02*
X149299999Y-107025001D01*
X148974999Y-105825001D02*
X151750000Y-103050000D01*
X151750000Y-103050000D02*
X151750000Y-100400000D01*
X151750000Y-100400000D02*
X153500000Y-98650000D01*
X153500000Y-90115685D02*
X152984315Y-89600000D01*
X153500000Y-98650000D02*
X153500000Y-90115685D01*
X149600000Y-106400000D02*
X152150000Y-103850000D01*
X152150000Y-103850000D02*
X152150000Y-100700000D01*
X153949990Y-98900010D02*
X153949990Y-87150010D01*
X153949990Y-87150010D02*
X155650000Y-85450000D01*
X152150000Y-100700000D02*
X153949990Y-98900010D01*
X155650000Y-85450000D02*
X156200000Y-84900000D01*
X147000000Y-108650000D02*
X147000000Y-112000000D01*
X146249990Y-107899990D02*
X147000000Y-108650000D01*
X150450000Y-90500000D02*
X152650000Y-92700000D01*
X152650000Y-92700000D02*
X152650000Y-98300000D01*
X152650000Y-98300000D02*
X151049980Y-99900020D01*
X151049980Y-99900020D02*
X151049980Y-102050020D01*
X151049980Y-102050020D02*
X146249990Y-106850010D01*
X146249990Y-106850010D02*
X146249990Y-107899990D01*
X146374999Y-112275002D02*
X147000000Y-112900003D01*
X146374999Y-111375001D02*
X146374999Y-112275002D01*
X148365685Y-93350000D02*
X150600000Y-95584315D01*
X147800000Y-93350000D02*
X148365685Y-93350000D01*
X150600000Y-95584315D02*
X150600000Y-102000000D01*
X150600000Y-102000000D02*
X145899980Y-106700020D01*
X145899980Y-106700020D02*
X145899980Y-108049980D01*
X146600000Y-111150000D02*
X146374999Y-111375001D01*
X146600000Y-108750000D02*
X146600000Y-111150000D01*
X145899980Y-108049980D02*
X146600000Y-108750000D01*
X147900000Y-114300000D02*
X147900000Y-109000000D01*
X147900000Y-109000000D02*
X146650000Y-107750000D01*
X146650000Y-107750000D02*
X146600000Y-107700000D01*
X146600000Y-107700000D02*
X146600000Y-107100000D01*
X146600000Y-107100000D02*
X150150000Y-103550000D01*
X151399990Y-102194998D02*
X151399990Y-100100010D01*
X150150000Y-103550000D02*
X150150000Y-103444988D01*
X150150000Y-103444988D02*
X151399990Y-102194998D01*
X151399990Y-100100010D02*
X153050000Y-98450000D01*
X153050000Y-91500000D02*
X151150000Y-89600000D01*
X153050000Y-92650000D02*
X153050000Y-91500000D01*
X153050000Y-98450000D02*
X153050000Y-92650000D01*
X148950002Y-115249999D02*
X148099999Y-115249999D01*
X149350001Y-114850000D02*
X148950002Y-115249999D01*
X147799999Y-115249999D02*
X147200000Y-114650000D01*
X148099999Y-115249999D02*
X147799999Y-115249999D01*
X147200000Y-114650000D02*
X147200000Y-114150000D01*
X146024989Y-112974989D02*
X146024989Y-111025011D01*
X147200000Y-114150000D02*
X146024989Y-112974989D01*
X146024989Y-111025011D02*
X146150000Y-110900000D01*
X146150000Y-110900000D02*
X146150000Y-108850000D01*
X146150000Y-108850000D02*
X145650000Y-108350000D01*
X145650000Y-108350000D02*
X145549970Y-108249970D01*
X148350000Y-103649970D02*
X145549970Y-106450000D01*
X148350000Y-95600000D02*
X148350000Y-103649970D01*
X146600000Y-93850000D02*
X148350000Y-95600000D01*
X145549970Y-108249970D02*
X145549970Y-106450000D01*
X145100000Y-100925000D02*
X146875000Y-100925000D01*
X146875000Y-100925000D02*
X147100000Y-100700000D01*
X142225000Y-100850000D02*
X142300000Y-100925000D01*
X141150000Y-100850000D02*
X142225000Y-100850000D01*
X145100000Y-99475000D02*
X145100000Y-98600000D01*
X145100000Y-98600000D02*
X145750000Y-97950000D01*
X189340901Y-133197398D02*
X189338299Y-133200000D01*
X190077297Y-133197398D02*
X189340901Y-133197398D01*
X189338299Y-133200000D02*
X188200000Y-133200000D01*
X188200000Y-133200000D02*
X185400000Y-136000000D01*
X185400000Y-136000000D02*
X185400000Y-137800000D01*
X185400000Y-137800000D02*
X185400000Y-138200000D01*
X185400000Y-138200000D02*
X182600000Y-141000000D01*
X189511611Y-136591510D02*
X190858490Y-136591510D01*
X189122703Y-136202602D02*
X189511611Y-136591510D01*
X190858490Y-136591510D02*
X193300000Y-134150000D01*
X193300000Y-134150000D02*
X193300000Y-132100000D01*
X193300000Y-132100000D02*
X192500000Y-131300000D01*
X192500000Y-131300000D02*
X191250000Y-131300000D01*
X191102602Y-134222703D02*
X191102602Y-132697398D01*
X191102602Y-132697398D02*
X191600000Y-132200000D01*
X154275000Y-141400000D02*
X152400000Y-139525000D01*
X155250000Y-141400000D02*
X154275000Y-141400000D01*
X158050000Y-139950000D02*
X158050000Y-139250000D01*
X158050000Y-139250000D02*
X156900000Y-138100000D01*
X155250000Y-139950000D02*
X154400000Y-139950000D01*
X154400000Y-139950000D02*
X153350000Y-138900000D01*
X156200000Y-95884315D02*
X156200000Y-101700000D01*
X155461601Y-107592923D02*
X155461601Y-108181586D01*
X155173074Y-106416617D02*
X155461601Y-107592923D01*
X154852189Y-105453961D02*
X155173074Y-106416617D01*
X154852189Y-103047811D02*
X154852189Y-105453961D01*
X155461601Y-108181586D02*
X155461601Y-108747271D01*
X156200000Y-101700000D02*
X154852189Y-103047811D01*
X156200000Y-95884315D02*
X156200000Y-93675000D01*
X156200000Y-93675000D02*
X154925000Y-92400000D01*
X154502179Y-102902833D02*
X155500000Y-101905012D01*
X155200000Y-109700000D02*
X154502179Y-109002179D01*
X154502179Y-109002179D02*
X154502179Y-102902833D01*
X155500000Y-96765685D02*
X155800000Y-97065685D01*
X155500000Y-96200000D02*
X155500000Y-96765685D01*
X155800000Y-101450000D02*
X155500000Y-101750000D01*
X155800000Y-97065685D02*
X155800000Y-101450000D01*
X155500000Y-101905012D02*
X155500000Y-101750000D01*
X154152169Y-109554017D02*
X154152169Y-100297831D01*
X154152169Y-100297831D02*
X154850000Y-99600000D01*
X155723827Y-110559990D02*
X155158142Y-110559990D01*
X155158142Y-110559990D02*
X154152169Y-109554017D01*
X154850000Y-99600000D02*
X155050000Y-99400000D01*
X153950000Y-121550000D02*
X152200000Y-119800000D01*
X153950000Y-125750000D02*
X153950000Y-125450000D01*
X158350000Y-130150000D02*
X153950000Y-125750000D01*
X153950000Y-125450000D02*
X153950000Y-121550000D01*
X152200000Y-121000000D02*
X153400000Y-122200000D01*
X153400000Y-126994988D02*
X164605022Y-138200010D01*
X153400000Y-122200000D02*
X153400000Y-126994988D01*
X164605022Y-138200010D02*
X170000000Y-138200010D01*
X151400000Y-121800000D02*
X151400000Y-125489976D01*
X167834315Y-138800000D02*
X164710024Y-138800000D01*
X168284315Y-139250000D02*
X167834315Y-138800000D01*
X168850000Y-139250000D02*
X168284315Y-139250000D01*
X151400000Y-125489976D02*
X164710024Y-138800000D01*
X137500000Y-133934315D02*
X137550000Y-133884315D01*
X137500000Y-134500000D02*
X137500000Y-133934315D01*
X137550000Y-133884315D02*
X137550000Y-133150000D01*
X137550000Y-133150000D02*
X138000000Y-132700000D01*
X138000000Y-132700000D02*
X141550000Y-132700000D01*
X141550000Y-132700000D02*
X143100000Y-134250000D01*
X143100000Y-134250000D02*
X149300000Y-134250000D01*
X149300000Y-134250000D02*
X152400000Y-131150000D01*
X152400000Y-131150000D02*
X152400000Y-127700000D01*
X150999999Y-122999999D02*
X150600000Y-122600000D01*
X151049990Y-123049990D02*
X150999999Y-122999999D01*
X151049990Y-126349990D02*
X151049990Y-123049990D01*
X152400000Y-127700000D02*
X151049990Y-126349990D01*
X150200000Y-123600000D02*
X150200000Y-126950000D01*
X150200000Y-126950000D02*
X151100000Y-127850000D01*
X151100000Y-127850000D02*
X151100000Y-131100000D01*
X151100000Y-131100000D02*
X148800000Y-133400000D01*
X148800000Y-133400000D02*
X144400000Y-133400000D01*
X144400000Y-133400000D02*
X141100000Y-130100000D01*
X149510024Y-121500000D02*
X147850000Y-123160024D01*
X147850000Y-123160024D02*
X147850000Y-123400000D01*
D21*
G36*
X154567813Y-111044463D02*
X154610213Y-111107919D01*
X154673669Y-111150319D01*
X154861604Y-111275894D01*
X154909747Y-111285470D01*
X155004430Y-111304304D01*
X155137547Y-111437421D01*
X155517953Y-111594990D01*
X155929701Y-111594990D01*
X156012667Y-111560624D01*
X156933191Y-115313528D01*
X157768689Y-119491019D01*
X157705874Y-119465000D01*
X157294126Y-119465000D01*
X156913720Y-119622569D01*
X156622569Y-119913720D01*
X156465000Y-120294126D01*
X156465000Y-120705874D01*
X156622569Y-121086280D01*
X156913720Y-121377431D01*
X157294126Y-121535000D01*
X157411100Y-121535000D01*
X158232227Y-121808709D01*
X159345085Y-127373000D01*
X156647801Y-127373000D01*
X154710000Y-125435199D01*
X154710000Y-122765132D01*
X155715000Y-123770132D01*
X155715000Y-124661783D01*
X155780854Y-124992855D01*
X156031712Y-125368289D01*
X156407146Y-125619146D01*
X156850000Y-125707235D01*
X157292855Y-125619146D01*
X157668289Y-125368289D01*
X157919146Y-124992855D01*
X157985000Y-124661783D01*
X157985000Y-123411781D01*
X158007235Y-123299999D01*
X157984615Y-123186280D01*
X157919146Y-122857145D01*
X157668289Y-122481711D01*
X157573521Y-122418390D01*
X154935000Y-119779869D01*
X154935000Y-116236781D01*
X154957235Y-116124999D01*
X154934360Y-116009999D01*
X154869146Y-115682145D01*
X154618289Y-115306711D01*
X154535000Y-115251059D01*
X154535000Y-114178711D01*
X154777431Y-113936280D01*
X154935000Y-113555874D01*
X154935000Y-113144126D01*
X154777431Y-112763720D01*
X154535000Y-112521289D01*
X154535000Y-111011650D01*
X154567813Y-111044463D01*
X154567813Y-111044463D01*
G37*
X154567813Y-111044463D02*
X154610213Y-111107919D01*
X154673669Y-111150319D01*
X154861604Y-111275894D01*
X154909747Y-111285470D01*
X155004430Y-111304304D01*
X155137547Y-111437421D01*
X155517953Y-111594990D01*
X155929701Y-111594990D01*
X156012667Y-111560624D01*
X156933191Y-115313528D01*
X157768689Y-119491019D01*
X157705874Y-119465000D01*
X157294126Y-119465000D01*
X156913720Y-119622569D01*
X156622569Y-119913720D01*
X156465000Y-120294126D01*
X156465000Y-120705874D01*
X156622569Y-121086280D01*
X156913720Y-121377431D01*
X157294126Y-121535000D01*
X157411100Y-121535000D01*
X158232227Y-121808709D01*
X159345085Y-127373000D01*
X156647801Y-127373000D01*
X154710000Y-125435199D01*
X154710000Y-122765132D01*
X155715000Y-123770132D01*
X155715000Y-124661783D01*
X155780854Y-124992855D01*
X156031712Y-125368289D01*
X156407146Y-125619146D01*
X156850000Y-125707235D01*
X157292855Y-125619146D01*
X157668289Y-125368289D01*
X157919146Y-124992855D01*
X157985000Y-124661783D01*
X157985000Y-123411781D01*
X158007235Y-123299999D01*
X157984615Y-123186280D01*
X157919146Y-122857145D01*
X157668289Y-122481711D01*
X157573521Y-122418390D01*
X154935000Y-119779869D01*
X154935000Y-116236781D01*
X154957235Y-116124999D01*
X154934360Y-116009999D01*
X154869146Y-115682145D01*
X154618289Y-115306711D01*
X154535000Y-115251059D01*
X154535000Y-114178711D01*
X154777431Y-113936280D01*
X154935000Y-113555874D01*
X154935000Y-113144126D01*
X154777431Y-112763720D01*
X154535000Y-112521289D01*
X154535000Y-111011650D01*
X154567813Y-111044463D01*
G36*
X147590001Y-103335166D02*
X145065498Y-105859671D01*
X145002042Y-105902071D01*
X144959642Y-105965527D01*
X144959641Y-105965528D01*
X144834067Y-106153463D01*
X144775082Y-106450000D01*
X144789971Y-106524852D01*
X144789970Y-108175123D01*
X144775082Y-108249970D01*
X144789970Y-108324817D01*
X144789970Y-108324821D01*
X144834066Y-108546506D01*
X145002041Y-108797899D01*
X145065500Y-108840301D01*
X145390001Y-109164802D01*
X145390000Y-110607377D01*
X145309086Y-110728474D01*
X145250101Y-111025011D01*
X145264990Y-111099863D01*
X145264989Y-112900142D01*
X145250101Y-112974989D01*
X145264989Y-113049836D01*
X145264989Y-113049840D01*
X145309085Y-113271525D01*
X145477060Y-113522918D01*
X145540519Y-113565320D01*
X146440000Y-114464803D01*
X146440000Y-114575153D01*
X146425112Y-114650000D01*
X146440000Y-114724847D01*
X146440000Y-114724851D01*
X146484096Y-114946536D01*
X146652071Y-115197929D01*
X146715530Y-115240331D01*
X147209670Y-115734472D01*
X147252070Y-115797928D01*
X147315526Y-115840328D01*
X147503461Y-115965903D01*
X147551604Y-115975479D01*
X147725147Y-116009999D01*
X147725151Y-116009999D01*
X147799999Y-116024887D01*
X147874847Y-116009999D01*
X148875155Y-116009999D01*
X148950002Y-116024887D01*
X149024849Y-116009999D01*
X149024854Y-116009999D01*
X149246539Y-115965903D01*
X149367619Y-115885000D01*
X149555875Y-115885000D01*
X149936281Y-115727431D01*
X150227432Y-115436280D01*
X150385001Y-115055874D01*
X150385001Y-114644126D01*
X150227432Y-114263720D01*
X149936281Y-113972569D01*
X149555875Y-113815000D01*
X149144127Y-113815000D01*
X148866940Y-113929814D01*
X148777431Y-113713720D01*
X148660000Y-113596289D01*
X148660000Y-109074847D01*
X148674888Y-109000000D01*
X148660000Y-108925153D01*
X148660000Y-108925148D01*
X148627150Y-108759998D01*
X152050524Y-108760000D01*
X152050529Y-108760000D01*
X152150000Y-108779786D01*
X152234602Y-108762957D01*
X152265000Y-108793355D01*
X152265001Y-112988213D01*
X152265000Y-112988218D01*
X152265001Y-115613212D01*
X152242765Y-115725000D01*
X152330854Y-116167854D01*
X152330855Y-116167855D01*
X152581712Y-116543289D01*
X152665001Y-116598941D01*
X152665000Y-118872333D01*
X152405874Y-118765000D01*
X151994126Y-118765000D01*
X151613720Y-118922569D01*
X151322569Y-119213720D01*
X151165000Y-119594126D01*
X151165000Y-120005874D01*
X151322569Y-120386280D01*
X151336289Y-120400000D01*
X151322569Y-120413720D01*
X151173531Y-120773531D01*
X150813720Y-120922569D01*
X150522569Y-121213720D01*
X150517144Y-121226817D01*
X150387455Y-120913720D01*
X150096304Y-120622569D01*
X149715898Y-120465000D01*
X149304150Y-120465000D01*
X148923744Y-120622569D01*
X148632593Y-120913720D01*
X148475024Y-121294126D01*
X148475024Y-121460198D01*
X147517965Y-122417257D01*
X147263720Y-122522569D01*
X146972569Y-122813720D01*
X146815000Y-123194126D01*
X146815000Y-123605874D01*
X146972569Y-123986280D01*
X147263720Y-124277431D01*
X147644126Y-124435000D01*
X148055874Y-124435000D01*
X148436280Y-124277431D01*
X148727431Y-123986280D01*
X148885000Y-123605874D01*
X148885000Y-123199826D01*
X149549826Y-122535000D01*
X149565000Y-122535000D01*
X149565000Y-122771289D01*
X149322569Y-123013720D01*
X149165000Y-123394126D01*
X149165000Y-123805874D01*
X149322569Y-124186280D01*
X149440000Y-124303711D01*
X149440001Y-126875148D01*
X149425112Y-126950000D01*
X149440001Y-127024852D01*
X149477929Y-127215526D01*
X149484097Y-127246537D01*
X149568597Y-127373000D01*
X141122022Y-127373000D01*
X141090814Y-126592802D01*
X141345706Y-126581673D01*
X141345707Y-126581673D01*
X141588689Y-126571064D01*
X141829353Y-126512174D01*
X142029162Y-126365669D01*
X142157696Y-126153851D01*
X142195387Y-125908970D01*
X142156130Y-125009827D01*
X142151152Y-124989482D01*
X142097240Y-124769162D01*
X141950734Y-124569354D01*
X141738917Y-124440820D01*
X141494036Y-124403129D01*
X141004083Y-124424521D01*
X140999384Y-124307054D01*
X141488908Y-124285681D01*
X141734287Y-124225637D01*
X141823805Y-124160000D01*
X142525153Y-124160000D01*
X142600000Y-124174888D01*
X142674847Y-124160000D01*
X142674852Y-124160000D01*
X142896537Y-124115904D01*
X143147929Y-123947929D01*
X143190331Y-123884470D01*
X143739802Y-123335000D01*
X143905874Y-123335000D01*
X144286280Y-123177431D01*
X144577431Y-122886280D01*
X144735000Y-122505874D01*
X144735000Y-122094126D01*
X144577431Y-121713720D01*
X144286280Y-121422569D01*
X143905874Y-121265000D01*
X143494126Y-121265000D01*
X143113720Y-121422569D01*
X142822569Y-121713720D01*
X142665000Y-122094126D01*
X142665000Y-122260198D01*
X142285199Y-122640000D01*
X141840023Y-122640000D01*
X141660294Y-122530938D01*
X141410616Y-122492509D01*
X140927646Y-122513596D01*
X140708868Y-117044126D01*
X148865000Y-117044126D01*
X148865000Y-117455874D01*
X149022569Y-117836280D01*
X149313720Y-118127431D01*
X149694126Y-118285000D01*
X150105874Y-118285000D01*
X150486280Y-118127431D01*
X150777431Y-117836280D01*
X150935000Y-117455874D01*
X150935000Y-117044126D01*
X150777431Y-116663720D01*
X150486280Y-116372569D01*
X150105874Y-116215000D01*
X149694126Y-116215000D01*
X149313720Y-116372569D01*
X149022569Y-116663720D01*
X148865000Y-117044126D01*
X140708868Y-117044126D01*
X140523965Y-112421570D01*
X140592301Y-112308955D01*
X140614224Y-112166517D01*
X140629992Y-112064074D01*
X140629992Y-112064073D01*
X140608182Y-111564549D01*
X140549292Y-111323885D01*
X140476063Y-111224013D01*
X140132182Y-102627000D01*
X147590001Y-102627000D01*
X147590001Y-103335166D01*
X147590001Y-103335166D01*
G37*
X147590001Y-103335166D02*
X145065498Y-105859671D01*
X145002042Y-105902071D01*
X144959642Y-105965527D01*
X144959641Y-105965528D01*
X144834067Y-106153463D01*
X144775082Y-106450000D01*
X144789971Y-106524852D01*
X144789970Y-108175123D01*
X144775082Y-108249970D01*
X144789970Y-108324817D01*
X144789970Y-108324821D01*
X144834066Y-108546506D01*
X145002041Y-108797899D01*
X145065500Y-108840301D01*
X145390001Y-109164802D01*
X145390000Y-110607377D01*
X145309086Y-110728474D01*
X145250101Y-111025011D01*
X145264990Y-111099863D01*
X145264989Y-112900142D01*
X145250101Y-112974989D01*
X145264989Y-113049836D01*
X145264989Y-113049840D01*
X145309085Y-113271525D01*
X145477060Y-113522918D01*
X145540519Y-113565320D01*
X146440000Y-114464803D01*
X146440000Y-114575153D01*
X146425112Y-114650000D01*
X146440000Y-114724847D01*
X146440000Y-114724851D01*
X146484096Y-114946536D01*
X146652071Y-115197929D01*
X146715530Y-115240331D01*
X147209670Y-115734472D01*
X147252070Y-115797928D01*
X147315526Y-115840328D01*
X147503461Y-115965903D01*
X147551604Y-115975479D01*
X147725147Y-116009999D01*
X147725151Y-116009999D01*
X147799999Y-116024887D01*
X147874847Y-116009999D01*
X148875155Y-116009999D01*
X148950002Y-116024887D01*
X149024849Y-116009999D01*
X149024854Y-116009999D01*
X149246539Y-115965903D01*
X149367619Y-115885000D01*
X149555875Y-115885000D01*
X149936281Y-115727431D01*
X150227432Y-115436280D01*
X150385001Y-115055874D01*
X150385001Y-114644126D01*
X150227432Y-114263720D01*
X149936281Y-113972569D01*
X149555875Y-113815000D01*
X149144127Y-113815000D01*
X148866940Y-113929814D01*
X148777431Y-113713720D01*
X148660000Y-113596289D01*
X148660000Y-109074847D01*
X148674888Y-109000000D01*
X148660000Y-108925153D01*
X148660000Y-108925148D01*
X148627150Y-108759998D01*
X152050524Y-108760000D01*
X152050529Y-108760000D01*
X152150000Y-108779786D01*
X152234602Y-108762957D01*
X152265000Y-108793355D01*
X152265001Y-112988213D01*
X152265000Y-112988218D01*
X152265001Y-115613212D01*
X152242765Y-115725000D01*
X152330854Y-116167854D01*
X152330855Y-116167855D01*
X152581712Y-116543289D01*
X152665001Y-116598941D01*
X152665000Y-118872333D01*
X152405874Y-118765000D01*
X151994126Y-118765000D01*
X151613720Y-118922569D01*
X151322569Y-119213720D01*
X151165000Y-119594126D01*
X151165000Y-120005874D01*
X151322569Y-120386280D01*
X151336289Y-120400000D01*
X151322569Y-120413720D01*
X151173531Y-120773531D01*
X150813720Y-120922569D01*
X150522569Y-121213720D01*
X150517144Y-121226817D01*
X150387455Y-120913720D01*
X150096304Y-120622569D01*
X149715898Y-120465000D01*
X149304150Y-120465000D01*
X148923744Y-120622569D01*
X148632593Y-120913720D01*
X148475024Y-121294126D01*
X148475024Y-121460198D01*
X147517965Y-122417257D01*
X147263720Y-122522569D01*
X146972569Y-122813720D01*
X146815000Y-123194126D01*
X146815000Y-123605874D01*
X146972569Y-123986280D01*
X147263720Y-124277431D01*
X147644126Y-124435000D01*
X148055874Y-124435000D01*
X148436280Y-124277431D01*
X148727431Y-123986280D01*
X148885000Y-123605874D01*
X148885000Y-123199826D01*
X149549826Y-122535000D01*
X149565000Y-122535000D01*
X149565000Y-122771289D01*
X149322569Y-123013720D01*
X149165000Y-123394126D01*
X149165000Y-123805874D01*
X149322569Y-124186280D01*
X149440000Y-124303711D01*
X149440001Y-126875148D01*
X149425112Y-126950000D01*
X149440001Y-127024852D01*
X149477929Y-127215526D01*
X149484097Y-127246537D01*
X149568597Y-127373000D01*
X141122022Y-127373000D01*
X141090814Y-126592802D01*
X141345706Y-126581673D01*
X141345707Y-126581673D01*
X141588689Y-126571064D01*
X141829353Y-126512174D01*
X142029162Y-126365669D01*
X142157696Y-126153851D01*
X142195387Y-125908970D01*
X142156130Y-125009827D01*
X142151152Y-124989482D01*
X142097240Y-124769162D01*
X141950734Y-124569354D01*
X141738917Y-124440820D01*
X141494036Y-124403129D01*
X141004083Y-124424521D01*
X140999384Y-124307054D01*
X141488908Y-124285681D01*
X141734287Y-124225637D01*
X141823805Y-124160000D01*
X142525153Y-124160000D01*
X142600000Y-124174888D01*
X142674847Y-124160000D01*
X142674852Y-124160000D01*
X142896537Y-124115904D01*
X143147929Y-123947929D01*
X143190331Y-123884470D01*
X143739802Y-123335000D01*
X143905874Y-123335000D01*
X144286280Y-123177431D01*
X144577431Y-122886280D01*
X144735000Y-122505874D01*
X144735000Y-122094126D01*
X144577431Y-121713720D01*
X144286280Y-121422569D01*
X143905874Y-121265000D01*
X143494126Y-121265000D01*
X143113720Y-121422569D01*
X142822569Y-121713720D01*
X142665000Y-122094126D01*
X142665000Y-122260198D01*
X142285199Y-122640000D01*
X141840023Y-122640000D01*
X141660294Y-122530938D01*
X141410616Y-122492509D01*
X140927646Y-122513596D01*
X140708868Y-117044126D01*
X148865000Y-117044126D01*
X148865000Y-117455874D01*
X149022569Y-117836280D01*
X149313720Y-118127431D01*
X149694126Y-118285000D01*
X150105874Y-118285000D01*
X150486280Y-118127431D01*
X150777431Y-117836280D01*
X150935000Y-117455874D01*
X150935000Y-117044126D01*
X150777431Y-116663720D01*
X150486280Y-116372569D01*
X150105874Y-116215000D01*
X149694126Y-116215000D01*
X149313720Y-116372569D01*
X149022569Y-116663720D01*
X148865000Y-117044126D01*
X140708868Y-117044126D01*
X140523965Y-112421570D01*
X140592301Y-112308955D01*
X140614224Y-112166517D01*
X140629992Y-112064074D01*
X140629992Y-112064073D01*
X140608182Y-111564549D01*
X140549292Y-111323885D01*
X140476063Y-111224013D01*
X140132182Y-102627000D01*
X147590001Y-102627000D01*
X147590001Y-103335166D01*
M02*
