%TF.GenerationSoftware,KiCad,Pcbnew,5.0.2-bee76a0~70~ubuntu18.04.1*%
%TF.CreationDate,2019-02-12T23:17:40+02:00*%
%TF.ProjectId,BLE-NFC-Badge,424c452d-4e46-4432-9d42-616467652e6b,rev?*%
%TF.SameCoordinates,Original*%
%TF.FileFunction,Soldermask,Top*%
%TF.FilePolarity,Negative*%
%FSLAX46Y46*%
G04 Gerber Fmt 4.6, Leading zero omitted, Abs format (unit mm)*
G04 Created by KiCad (PCBNEW 5.0.2-bee76a0~70~ubuntu18.04.1) date Tue 12 Feb 2019 11:17:40 PM EET*
%MOMM*%
%LPD*%
G01*
G04 APERTURE LIST*
%ADD10C,0.100000*%
G04 APERTURE END LIST*
D10*
G36*
X158701000Y-141901000D02*
X157399000Y-141901000D01*
X157399000Y-140899000D01*
X158701000Y-140899000D01*
X158701000Y-141901000D01*
X158701000Y-141901000D01*
G37*
G36*
X155901000Y-141901000D02*
X154599000Y-141901000D01*
X154599000Y-140899000D01*
X155901000Y-140899000D01*
X155901000Y-141901000D01*
X155901000Y-141901000D01*
G37*
G36*
X158701000Y-140451000D02*
X157399000Y-140451000D01*
X157399000Y-139449000D01*
X158701000Y-139449000D01*
X158701000Y-140451000D01*
X158701000Y-140451000D01*
G37*
G36*
X155901000Y-140451000D02*
X154599000Y-140451000D01*
X154599000Y-139449000D01*
X155901000Y-139449000D01*
X155901000Y-140451000D01*
X155901000Y-140451000D01*
G37*
G36*
X189937291Y-136096536D02*
X189016637Y-137017190D01*
X188308115Y-136308668D01*
X189228769Y-135388014D01*
X189937291Y-136096536D01*
X189937291Y-136096536D01*
G37*
G36*
X188911986Y-135071231D02*
X187991332Y-135991885D01*
X187282810Y-135283363D01*
X188203464Y-134362709D01*
X188911986Y-135071231D01*
X188911986Y-135071231D01*
G37*
G36*
X191917190Y-134116637D02*
X190996536Y-135037291D01*
X190288014Y-134328769D01*
X191208668Y-133408115D01*
X191917190Y-134116637D01*
X191917190Y-134116637D01*
G37*
G36*
X190891885Y-133091332D02*
X189971231Y-134011986D01*
X189262709Y-133303464D01*
X190183363Y-132382810D01*
X190891885Y-133091332D01*
X190891885Y-133091332D01*
G37*
G36*
X142951000Y-101426000D02*
X141649000Y-101426000D01*
X141649000Y-100424000D01*
X142951000Y-100424000D01*
X142951000Y-101426000D01*
X142951000Y-101426000D01*
G37*
G36*
X145751000Y-101426000D02*
X144449000Y-101426000D01*
X144449000Y-100424000D01*
X145751000Y-100424000D01*
X145751000Y-101426000D01*
X145751000Y-101426000D01*
G37*
G36*
X142951000Y-99976000D02*
X141649000Y-99976000D01*
X141649000Y-98974000D01*
X142951000Y-98974000D01*
X142951000Y-99976000D01*
X142951000Y-99976000D01*
G37*
G36*
X145751000Y-99976000D02*
X144449000Y-99976000D01*
X144449000Y-98974000D01*
X145751000Y-98974000D01*
X145751000Y-99976000D01*
X145751000Y-99976000D01*
G37*
G36*
X156903878Y-86535036D02*
X157067850Y-86602956D01*
X157215420Y-86701559D01*
X157340919Y-86827058D01*
X157439522Y-86974628D01*
X157507442Y-87138600D01*
X157542066Y-87312671D01*
X157542066Y-87490153D01*
X157507442Y-87664224D01*
X157439522Y-87828196D01*
X157340919Y-87975766D01*
X157215420Y-88101265D01*
X157067850Y-88199868D01*
X156903878Y-88267788D01*
X156729807Y-88302412D01*
X156552325Y-88302412D01*
X156378254Y-88267788D01*
X156214282Y-88199868D01*
X156066712Y-88101265D01*
X155941213Y-87975766D01*
X155842610Y-87828196D01*
X155774690Y-87664224D01*
X155740066Y-87490153D01*
X155740066Y-87312671D01*
X155774690Y-87138600D01*
X155842610Y-86974628D01*
X155941213Y-86827058D01*
X156066712Y-86701559D01*
X156214282Y-86602956D01*
X156378254Y-86535036D01*
X156552325Y-86500412D01*
X156729807Y-86500412D01*
X156903878Y-86535036D01*
X156903878Y-86535036D01*
G37*
G36*
X159252921Y-86065865D02*
X159319105Y-86072383D01*
X159432331Y-86106730D01*
X159488945Y-86123903D01*
X159627565Y-86197998D01*
X159645469Y-86207568D01*
X159681207Y-86236898D01*
X159782664Y-86320160D01*
X159865926Y-86421617D01*
X159895256Y-86457355D01*
X159895257Y-86457357D01*
X159978921Y-86613879D01*
X159978921Y-86613880D01*
X160030441Y-86783719D01*
X160047837Y-86960346D01*
X160030441Y-87136973D01*
X160029947Y-87138600D01*
X159978921Y-87306813D01*
X159904826Y-87445433D01*
X159895256Y-87463337D01*
X159865926Y-87499075D01*
X159782664Y-87600532D01*
X159681207Y-87683794D01*
X159645469Y-87713124D01*
X159645467Y-87713125D01*
X159488945Y-87796789D01*
X159432331Y-87813962D01*
X159319105Y-87848309D01*
X159252921Y-87854827D01*
X159186738Y-87861346D01*
X159098218Y-87861346D01*
X159032035Y-87854827D01*
X158965851Y-87848309D01*
X158852625Y-87813962D01*
X158796011Y-87796789D01*
X158639489Y-87713125D01*
X158639487Y-87713124D01*
X158603749Y-87683794D01*
X158502292Y-87600532D01*
X158419030Y-87499075D01*
X158389700Y-87463337D01*
X158380130Y-87445433D01*
X158306035Y-87306813D01*
X158255009Y-87138600D01*
X158254515Y-87136973D01*
X158237119Y-86960346D01*
X158254515Y-86783719D01*
X158306035Y-86613880D01*
X158306035Y-86613879D01*
X158389699Y-86457357D01*
X158389700Y-86457355D01*
X158419030Y-86421617D01*
X158502292Y-86320160D01*
X158603749Y-86236898D01*
X158639487Y-86207568D01*
X158657391Y-86197998D01*
X158796011Y-86123903D01*
X158852625Y-86106730D01*
X158965851Y-86072383D01*
X159032035Y-86065865D01*
X159098218Y-86059346D01*
X159186738Y-86059346D01*
X159252921Y-86065865D01*
X159252921Y-86065865D01*
G37*
G36*
X165098252Y-83027818D02*
X165098254Y-83027819D01*
X165098255Y-83027819D01*
X165471513Y-83182427D01*
X165471514Y-83182428D01*
X165807439Y-83406886D01*
X166093114Y-83692561D01*
X166093116Y-83692564D01*
X166317573Y-84028487D01*
X166422708Y-84282307D01*
X166472182Y-84401748D01*
X166551000Y-84797993D01*
X166551000Y-85202007D01*
X166522180Y-85346897D01*
X166472181Y-85598255D01*
X166317573Y-85971513D01*
X166215749Y-86123903D01*
X166093114Y-86307439D01*
X165807439Y-86593114D01*
X165807436Y-86593116D01*
X165471513Y-86817573D01*
X165098255Y-86972181D01*
X165098254Y-86972181D01*
X165098252Y-86972182D01*
X164702007Y-87051000D01*
X164297993Y-87051000D01*
X163901748Y-86972182D01*
X163901746Y-86972181D01*
X163901745Y-86972181D01*
X163528487Y-86817573D01*
X163192564Y-86593116D01*
X163192561Y-86593114D01*
X162906886Y-86307439D01*
X162784251Y-86123903D01*
X162682427Y-85971513D01*
X162527819Y-85598255D01*
X162477821Y-85346897D01*
X162449000Y-85202007D01*
X162449000Y-84797993D01*
X162527818Y-84401748D01*
X162577292Y-84282307D01*
X162682427Y-84028487D01*
X162906884Y-83692564D01*
X162906886Y-83692561D01*
X163192561Y-83406886D01*
X163528486Y-83182428D01*
X163528487Y-83182427D01*
X163901745Y-83027819D01*
X163901746Y-83027819D01*
X163901748Y-83027818D01*
X164297993Y-82949000D01*
X164702007Y-82949000D01*
X165098252Y-83027818D01*
X165098252Y-83027818D01*
G37*
G36*
X156310442Y-84005518D02*
X156376627Y-84012037D01*
X156489853Y-84046384D01*
X156546467Y-84063557D01*
X156685087Y-84137652D01*
X156702991Y-84147222D01*
X156738729Y-84176552D01*
X156840186Y-84259814D01*
X156923448Y-84361271D01*
X156952778Y-84397009D01*
X156952779Y-84397011D01*
X157036443Y-84553533D01*
X157036443Y-84553534D01*
X157087963Y-84723373D01*
X157105359Y-84900000D01*
X157087963Y-85076627D01*
X157053616Y-85189853D01*
X157036443Y-85246467D01*
X156982761Y-85346897D01*
X156952778Y-85402991D01*
X156923448Y-85438729D01*
X156840186Y-85540186D01*
X156738729Y-85623448D01*
X156702991Y-85652778D01*
X156702989Y-85652779D01*
X156546467Y-85736443D01*
X156489853Y-85753616D01*
X156376627Y-85787963D01*
X156310442Y-85794482D01*
X156244260Y-85801000D01*
X156155740Y-85801000D01*
X156089558Y-85794482D01*
X156023373Y-85787963D01*
X155910147Y-85753616D01*
X155853533Y-85736443D01*
X155697011Y-85652779D01*
X155697009Y-85652778D01*
X155661271Y-85623448D01*
X155559814Y-85540186D01*
X155476552Y-85438729D01*
X155447222Y-85402991D01*
X155417239Y-85346897D01*
X155363557Y-85246467D01*
X155346384Y-85189853D01*
X155312037Y-85076627D01*
X155294641Y-84900000D01*
X155312037Y-84723373D01*
X155363557Y-84553534D01*
X155363557Y-84553533D01*
X155447221Y-84397011D01*
X155447222Y-84397009D01*
X155476552Y-84361271D01*
X155559814Y-84259814D01*
X155661271Y-84176552D01*
X155697009Y-84147222D01*
X155714913Y-84137652D01*
X155853533Y-84063557D01*
X155910147Y-84046384D01*
X156023373Y-84012037D01*
X156089558Y-84005518D01*
X156155740Y-83999000D01*
X156244260Y-83999000D01*
X156310442Y-84005518D01*
X156310442Y-84005518D01*
G37*
G36*
X158811855Y-83564453D02*
X158878039Y-83570971D01*
X158991265Y-83605318D01*
X159047879Y-83622491D01*
X159178969Y-83692561D01*
X159204403Y-83706156D01*
X159240141Y-83735486D01*
X159341598Y-83818748D01*
X159424860Y-83920205D01*
X159454190Y-83955943D01*
X159454191Y-83955945D01*
X159537855Y-84112467D01*
X159555028Y-84169081D01*
X159589375Y-84282307D01*
X159606771Y-84458934D01*
X159589375Y-84635561D01*
X159562737Y-84723375D01*
X159537855Y-84805401D01*
X159487290Y-84900000D01*
X159454190Y-84961925D01*
X159424860Y-84997663D01*
X159341598Y-85099120D01*
X159240141Y-85182382D01*
X159204403Y-85211712D01*
X159204401Y-85211713D01*
X159047879Y-85295377D01*
X158991265Y-85312550D01*
X158878039Y-85346897D01*
X158811854Y-85353416D01*
X158745672Y-85359934D01*
X158657152Y-85359934D01*
X158590970Y-85353416D01*
X158524785Y-85346897D01*
X158411559Y-85312550D01*
X158354945Y-85295377D01*
X158198423Y-85211713D01*
X158198421Y-85211712D01*
X158162683Y-85182382D01*
X158061226Y-85099120D01*
X157977964Y-84997663D01*
X157948634Y-84961925D01*
X157915534Y-84900000D01*
X157864969Y-84805401D01*
X157840087Y-84723375D01*
X157813449Y-84635561D01*
X157796053Y-84458934D01*
X157813449Y-84282307D01*
X157847796Y-84169081D01*
X157864969Y-84112467D01*
X157948633Y-83955945D01*
X157948634Y-83955943D01*
X157977964Y-83920205D01*
X158061226Y-83818748D01*
X158162683Y-83735486D01*
X158198421Y-83706156D01*
X158223855Y-83692561D01*
X158354945Y-83622491D01*
X158411559Y-83605318D01*
X158524785Y-83570971D01*
X158590969Y-83564453D01*
X158657152Y-83557934D01*
X158745672Y-83557934D01*
X158811855Y-83564453D01*
X158811855Y-83564453D01*
G37*
M02*
