M48
;DRILL file {KiCad 5.0.2-bee76a0~70~ubuntu18.04.1} date Tue 12 Feb 2019 11:17:47 PM EET
;FORMAT={-:-/ absolute / inch / decimal}
FMAT,2
INCH,TZ
T1C0.0118
T2C0.0157
T3C0.0394
T4C0.1575
%
G90
G05
T1
X5.5627Y-4.9409
T2
X5.4134Y-5.2953
X5.5551Y-5.122
X5.5571Y-3.9705
X5.5866Y-4.4252
X5.5906Y-3.8622
X5.5945Y-4.5984
X5.6024Y-4.7795
X5.6575Y-4.815
X5.7224Y-3.7559
X5.7382Y-3.8563
X5.7402Y-4.4843
X5.7441Y-4.9449
X5.7717Y-3.6949
X5.7874Y-4.4094
X5.7874Y-4.4449
X5.7913Y-3.9646
X5.811Y-4.2264
X5.8189Y-3.6752
X5.8209Y-4.8583
X5.8228Y-4.5
X5.8799Y-4.5217
X5.8862Y-4.7835
X5.8898Y-4.189
X5.9016Y-4.6161
X5.9114Y-5.0394
X5.9134Y-4.8661
X5.9232Y-3.563
X5.925Y-4.1931
X5.9291Y-4.8268
X5.9378Y-4.3449
X5.9508Y-3.5276
X5.9606Y-4.7953
X5.9921Y-4.7165
X5.9921Y-4.7638
X6.Y-5.4931
X6.023Y-3.5276
X6.0374Y-5.4685
X6.0394Y-4.1929
X6.0591Y-4.4626
X6.0994Y-3.6378
X6.1043Y-3.9134
X6.1102Y-4.3189
X6.1205Y-4.2814
X6.122Y-3.7874
X6.1309Y-4.3528
X6.1319Y-4.7244
X6.1752Y-4.9035
X6.1772Y-5.437
X6.2008Y-4.7441
X6.2343Y-5.124
X6.2756Y-5.5689
X6.3484Y-3.6732
X6.4075Y-4.5374
X6.5472Y-3.8012
X6.6083Y-3.7205
X6.6476Y-5.4823
X6.6929Y-5.4409
X7.189Y-5.5512
X7.3386Y-5.4173
X7.5295Y-5.1693
X7.5433Y-5.2047
T3
X6.1496Y-3.3425
X6.167Y-3.441
X6.2481Y-3.3252
X6.2655Y-3.4236
T4
X6.4764Y-3.3465
T0
M30
