%TF.GenerationSoftware,KiCad,Pcbnew,5.0.2-bee76a0~70~ubuntu18.04.1*%
%TF.CreationDate,2019-02-12T23:17:40+02:00*%
%TF.ProjectId,BLE-NFC-Badge,424c452d-4e46-4432-9d42-616467652e6b,rev?*%
%TF.SameCoordinates,Original*%
%TF.FileFunction,Copper,L2,Bot*%
%TF.FilePolarity,Positive*%
%FSLAX46Y46*%
G04 Gerber Fmt 4.6, Leading zero omitted, Abs format (unit mm)*
G04 Created by KiCad (PCBNEW 5.0.2-bee76a0~70~ubuntu18.04.1) date Tue 12 Feb 2019 11:17:40 PM EET*
%MOMM*%
%LPD*%
G01*
G04 APERTURE LIST*
%ADD10C,1.700000*%
%ADD11C,1.700000*%
%ADD12C,0.100000*%
%ADD13C,2.600000*%
%ADD14C,0.975000*%
%ADD15C,4.000000*%
%ADD16R,0.250000X0.680000*%
%ADD17R,0.680000X0.250000*%
%ADD18R,4.660000X4.660000*%
%ADD19R,0.900000X0.800000*%
%ADD20R,1.800000X1.000000*%
%ADD21C,0.500000*%
%ADD22C,1.000000*%
%ADD23C,1.350000*%
%ADD24C,1.350000*%
%ADD25C,0.800000*%
%ADD26C,0.250000*%
%ADD27C,1.000000*%
%ADD28C,0.254000*%
G04 APERTURE END LIST*
D10*
X179243485Y-99775713D03*
D11*
X179243485Y-99775713D02*
X179243485Y-99775713D01*
D10*
X176758990Y-100303809D03*
D11*
X176758990Y-100303809D02*
X176758990Y-100303809D01*
D10*
X174274495Y-100831904D03*
D11*
X174274495Y-100831904D02*
X174274495Y-100831904D01*
D10*
X171790000Y-101360000D03*
D12*
G36*
X170781850Y-100705299D02*
X172444701Y-100351850D01*
X172798150Y-102014701D01*
X171135299Y-102368150D01*
X170781850Y-100705299D01*
X170781850Y-100705299D01*
G37*
D13*
X144099423Y-127997105D03*
D12*
G36*
X142002088Y-128725929D02*
X144066963Y-125776982D01*
X146196758Y-127268281D01*
X144131883Y-130217228D01*
X142002088Y-128725929D01*
X142002088Y-128725929D01*
G37*
D13*
X168100577Y-144802895D03*
D12*
G36*
X166003242Y-145531719D02*
X168068117Y-142582772D01*
X170197912Y-144074071D01*
X168133037Y-147023018D01*
X166003242Y-145531719D01*
X166003242Y-145531719D01*
G37*
G36*
X139211116Y-100752142D02*
X139234800Y-100755496D01*
X139258041Y-100761157D01*
X139280615Y-100769068D01*
X139302306Y-100779153D01*
X139322903Y-100791316D01*
X139342209Y-100805440D01*
X140051355Y-101379695D01*
X140069184Y-101395642D01*
X140085363Y-101413261D01*
X140099738Y-101432380D01*
X140112170Y-101452817D01*
X140122538Y-101474373D01*
X140130744Y-101496842D01*
X140136708Y-101520007D01*
X140140373Y-101543645D01*
X140141703Y-101567529D01*
X140140685Y-101591427D01*
X140137331Y-101615112D01*
X140131670Y-101638353D01*
X140123759Y-101660927D01*
X140113674Y-101682618D01*
X140101511Y-101703215D01*
X140087387Y-101722521D01*
X139780593Y-102101380D01*
X139764646Y-102119209D01*
X139747027Y-102135388D01*
X139727908Y-102149763D01*
X139707471Y-102162195D01*
X139685915Y-102172563D01*
X139663446Y-102180769D01*
X139640281Y-102186733D01*
X139616643Y-102190398D01*
X139592759Y-102191728D01*
X139568860Y-102190710D01*
X139545176Y-102187356D01*
X139521935Y-102181695D01*
X139499361Y-102173784D01*
X139477670Y-102163699D01*
X139457073Y-102151536D01*
X139437767Y-102137412D01*
X138728621Y-101563157D01*
X138710792Y-101547210D01*
X138694613Y-101529591D01*
X138680238Y-101510472D01*
X138667806Y-101490035D01*
X138657438Y-101468479D01*
X138649232Y-101446010D01*
X138643268Y-101422845D01*
X138639603Y-101399207D01*
X138638273Y-101375323D01*
X138639291Y-101351425D01*
X138642645Y-101327740D01*
X138648306Y-101304499D01*
X138656217Y-101281925D01*
X138666302Y-101260234D01*
X138678465Y-101239637D01*
X138692589Y-101220331D01*
X138999383Y-100841472D01*
X139015330Y-100823643D01*
X139032949Y-100807464D01*
X139052068Y-100793089D01*
X139072505Y-100780657D01*
X139094061Y-100770289D01*
X139116530Y-100762083D01*
X139139695Y-100756119D01*
X139163333Y-100752454D01*
X139187217Y-100751124D01*
X139211116Y-100752142D01*
X139211116Y-100752142D01*
G37*
D14*
X139389988Y-101471426D03*
D12*
G36*
X138031140Y-102209290D02*
X138054824Y-102212644D01*
X138078065Y-102218305D01*
X138100639Y-102226216D01*
X138122330Y-102236301D01*
X138142927Y-102248464D01*
X138162233Y-102262588D01*
X138871379Y-102836843D01*
X138889208Y-102852790D01*
X138905387Y-102870409D01*
X138919762Y-102889528D01*
X138932194Y-102909965D01*
X138942562Y-102931521D01*
X138950768Y-102953990D01*
X138956732Y-102977155D01*
X138960397Y-103000793D01*
X138961727Y-103024677D01*
X138960709Y-103048575D01*
X138957355Y-103072260D01*
X138951694Y-103095501D01*
X138943783Y-103118075D01*
X138933698Y-103139766D01*
X138921535Y-103160363D01*
X138907411Y-103179669D01*
X138600617Y-103558528D01*
X138584670Y-103576357D01*
X138567051Y-103592536D01*
X138547932Y-103606911D01*
X138527495Y-103619343D01*
X138505939Y-103629711D01*
X138483470Y-103637917D01*
X138460305Y-103643881D01*
X138436667Y-103647546D01*
X138412783Y-103648876D01*
X138388884Y-103647858D01*
X138365200Y-103644504D01*
X138341959Y-103638843D01*
X138319385Y-103630932D01*
X138297694Y-103620847D01*
X138277097Y-103608684D01*
X138257791Y-103594560D01*
X137548645Y-103020305D01*
X137530816Y-103004358D01*
X137514637Y-102986739D01*
X137500262Y-102967620D01*
X137487830Y-102947183D01*
X137477462Y-102925627D01*
X137469256Y-102903158D01*
X137463292Y-102879993D01*
X137459627Y-102856355D01*
X137458297Y-102832471D01*
X137459315Y-102808573D01*
X137462669Y-102784888D01*
X137468330Y-102761647D01*
X137476241Y-102739073D01*
X137486326Y-102717382D01*
X137498489Y-102696785D01*
X137512613Y-102677479D01*
X137819407Y-102298620D01*
X137835354Y-102280791D01*
X137852973Y-102264612D01*
X137872092Y-102250237D01*
X137892529Y-102237805D01*
X137914085Y-102227437D01*
X137936554Y-102219231D01*
X137959719Y-102213267D01*
X137983357Y-102209602D01*
X138007241Y-102208272D01*
X138031140Y-102209290D01*
X138031140Y-102209290D01*
G37*
D14*
X138210012Y-102928574D03*
D12*
G36*
X151011116Y-92252142D02*
X151034800Y-92255496D01*
X151058041Y-92261157D01*
X151080615Y-92269068D01*
X151102306Y-92279153D01*
X151122903Y-92291316D01*
X151142209Y-92305440D01*
X151851355Y-92879695D01*
X151869184Y-92895642D01*
X151885363Y-92913261D01*
X151899738Y-92932380D01*
X151912170Y-92952817D01*
X151922538Y-92974373D01*
X151930744Y-92996842D01*
X151936708Y-93020007D01*
X151940373Y-93043645D01*
X151941703Y-93067529D01*
X151940685Y-93091427D01*
X151937331Y-93115112D01*
X151931670Y-93138353D01*
X151923759Y-93160927D01*
X151913674Y-93182618D01*
X151901511Y-93203215D01*
X151887387Y-93222521D01*
X151580593Y-93601380D01*
X151564646Y-93619209D01*
X151547027Y-93635388D01*
X151527908Y-93649763D01*
X151507471Y-93662195D01*
X151485915Y-93672563D01*
X151463446Y-93680769D01*
X151440281Y-93686733D01*
X151416643Y-93690398D01*
X151392759Y-93691728D01*
X151368860Y-93690710D01*
X151345176Y-93687356D01*
X151321935Y-93681695D01*
X151299361Y-93673784D01*
X151277670Y-93663699D01*
X151257073Y-93651536D01*
X151237767Y-93637412D01*
X150528621Y-93063157D01*
X150510792Y-93047210D01*
X150494613Y-93029591D01*
X150480238Y-93010472D01*
X150467806Y-92990035D01*
X150457438Y-92968479D01*
X150449232Y-92946010D01*
X150443268Y-92922845D01*
X150439603Y-92899207D01*
X150438273Y-92875323D01*
X150439291Y-92851425D01*
X150442645Y-92827740D01*
X150448306Y-92804499D01*
X150456217Y-92781925D01*
X150466302Y-92760234D01*
X150478465Y-92739637D01*
X150492589Y-92720331D01*
X150799383Y-92341472D01*
X150815330Y-92323643D01*
X150832949Y-92307464D01*
X150852068Y-92293089D01*
X150872505Y-92280657D01*
X150894061Y-92270289D01*
X150916530Y-92262083D01*
X150939695Y-92256119D01*
X150963333Y-92252454D01*
X150987217Y-92251124D01*
X151011116Y-92252142D01*
X151011116Y-92252142D01*
G37*
D14*
X151189988Y-92971426D03*
D12*
G36*
X149831140Y-93709290D02*
X149854824Y-93712644D01*
X149878065Y-93718305D01*
X149900639Y-93726216D01*
X149922330Y-93736301D01*
X149942927Y-93748464D01*
X149962233Y-93762588D01*
X150671379Y-94336843D01*
X150689208Y-94352790D01*
X150705387Y-94370409D01*
X150719762Y-94389528D01*
X150732194Y-94409965D01*
X150742562Y-94431521D01*
X150750768Y-94453990D01*
X150756732Y-94477155D01*
X150760397Y-94500793D01*
X150761727Y-94524677D01*
X150760709Y-94548575D01*
X150757355Y-94572260D01*
X150751694Y-94595501D01*
X150743783Y-94618075D01*
X150733698Y-94639766D01*
X150721535Y-94660363D01*
X150707411Y-94679669D01*
X150400617Y-95058528D01*
X150384670Y-95076357D01*
X150367051Y-95092536D01*
X150347932Y-95106911D01*
X150327495Y-95119343D01*
X150305939Y-95129711D01*
X150283470Y-95137917D01*
X150260305Y-95143881D01*
X150236667Y-95147546D01*
X150212783Y-95148876D01*
X150188884Y-95147858D01*
X150165200Y-95144504D01*
X150141959Y-95138843D01*
X150119385Y-95130932D01*
X150097694Y-95120847D01*
X150077097Y-95108684D01*
X150057791Y-95094560D01*
X149348645Y-94520305D01*
X149330816Y-94504358D01*
X149314637Y-94486739D01*
X149300262Y-94467620D01*
X149287830Y-94447183D01*
X149277462Y-94425627D01*
X149269256Y-94403158D01*
X149263292Y-94379993D01*
X149259627Y-94356355D01*
X149258297Y-94332471D01*
X149259315Y-94308573D01*
X149262669Y-94284888D01*
X149268330Y-94261647D01*
X149276241Y-94239073D01*
X149286326Y-94217382D01*
X149298489Y-94196785D01*
X149312613Y-94177479D01*
X149619407Y-93798620D01*
X149635354Y-93780791D01*
X149652973Y-93764612D01*
X149672092Y-93750237D01*
X149692529Y-93737805D01*
X149714085Y-93727437D01*
X149736554Y-93719231D01*
X149759719Y-93713267D01*
X149783357Y-93709602D01*
X149807241Y-93708272D01*
X149831140Y-93709290D01*
X149831140Y-93709290D01*
G37*
D14*
X150010012Y-94428574D03*
D15*
X164500000Y-85000000D03*
D12*
G36*
X143180142Y-107376174D02*
X143203803Y-107379684D01*
X143227007Y-107385496D01*
X143249529Y-107393554D01*
X143271153Y-107403782D01*
X143291670Y-107416079D01*
X143310883Y-107430329D01*
X143328607Y-107446393D01*
X143344671Y-107464117D01*
X143358921Y-107483330D01*
X143371218Y-107503847D01*
X143381446Y-107525471D01*
X143389504Y-107547993D01*
X143395316Y-107571197D01*
X143398826Y-107594858D01*
X143400000Y-107618750D01*
X143400000Y-108106250D01*
X143398826Y-108130142D01*
X143395316Y-108153803D01*
X143389504Y-108177007D01*
X143381446Y-108199529D01*
X143371218Y-108221153D01*
X143358921Y-108241670D01*
X143344671Y-108260883D01*
X143328607Y-108278607D01*
X143310883Y-108294671D01*
X143291670Y-108308921D01*
X143271153Y-108321218D01*
X143249529Y-108331446D01*
X143227007Y-108339504D01*
X143203803Y-108345316D01*
X143180142Y-108348826D01*
X143156250Y-108350000D01*
X142243750Y-108350000D01*
X142219858Y-108348826D01*
X142196197Y-108345316D01*
X142172993Y-108339504D01*
X142150471Y-108331446D01*
X142128847Y-108321218D01*
X142108330Y-108308921D01*
X142089117Y-108294671D01*
X142071393Y-108278607D01*
X142055329Y-108260883D01*
X142041079Y-108241670D01*
X142028782Y-108221153D01*
X142018554Y-108199529D01*
X142010496Y-108177007D01*
X142004684Y-108153803D01*
X142001174Y-108130142D01*
X142000000Y-108106250D01*
X142000000Y-107618750D01*
X142001174Y-107594858D01*
X142004684Y-107571197D01*
X142010496Y-107547993D01*
X142018554Y-107525471D01*
X142028782Y-107503847D01*
X142041079Y-107483330D01*
X142055329Y-107464117D01*
X142071393Y-107446393D01*
X142089117Y-107430329D01*
X142108330Y-107416079D01*
X142128847Y-107403782D01*
X142150471Y-107393554D01*
X142172993Y-107385496D01*
X142196197Y-107379684D01*
X142219858Y-107376174D01*
X142243750Y-107375000D01*
X143156250Y-107375000D01*
X143180142Y-107376174D01*
X143180142Y-107376174D01*
G37*
D14*
X142700000Y-107862500D03*
D12*
G36*
X143180142Y-109251174D02*
X143203803Y-109254684D01*
X143227007Y-109260496D01*
X143249529Y-109268554D01*
X143271153Y-109278782D01*
X143291670Y-109291079D01*
X143310883Y-109305329D01*
X143328607Y-109321393D01*
X143344671Y-109339117D01*
X143358921Y-109358330D01*
X143371218Y-109378847D01*
X143381446Y-109400471D01*
X143389504Y-109422993D01*
X143395316Y-109446197D01*
X143398826Y-109469858D01*
X143400000Y-109493750D01*
X143400000Y-109981250D01*
X143398826Y-110005142D01*
X143395316Y-110028803D01*
X143389504Y-110052007D01*
X143381446Y-110074529D01*
X143371218Y-110096153D01*
X143358921Y-110116670D01*
X143344671Y-110135883D01*
X143328607Y-110153607D01*
X143310883Y-110169671D01*
X143291670Y-110183921D01*
X143271153Y-110196218D01*
X143249529Y-110206446D01*
X143227007Y-110214504D01*
X143203803Y-110220316D01*
X143180142Y-110223826D01*
X143156250Y-110225000D01*
X142243750Y-110225000D01*
X142219858Y-110223826D01*
X142196197Y-110220316D01*
X142172993Y-110214504D01*
X142150471Y-110206446D01*
X142128847Y-110196218D01*
X142108330Y-110183921D01*
X142089117Y-110169671D01*
X142071393Y-110153607D01*
X142055329Y-110135883D01*
X142041079Y-110116670D01*
X142028782Y-110096153D01*
X142018554Y-110074529D01*
X142010496Y-110052007D01*
X142004684Y-110028803D01*
X142001174Y-110005142D01*
X142000000Y-109981250D01*
X142000000Y-109493750D01*
X142001174Y-109469858D01*
X142004684Y-109446197D01*
X142010496Y-109422993D01*
X142018554Y-109400471D01*
X142028782Y-109378847D01*
X142041079Y-109358330D01*
X142055329Y-109339117D01*
X142071393Y-109321393D01*
X142089117Y-109305329D01*
X142108330Y-109291079D01*
X142128847Y-109278782D01*
X142150471Y-109268554D01*
X142172993Y-109260496D01*
X142196197Y-109254684D01*
X142219858Y-109251174D01*
X142243750Y-109250000D01*
X143156250Y-109250000D01*
X143180142Y-109251174D01*
X143180142Y-109251174D01*
G37*
D14*
X142700000Y-109737500D03*
D12*
G36*
X146680142Y-105513674D02*
X146703803Y-105517184D01*
X146727007Y-105522996D01*
X146749529Y-105531054D01*
X146771153Y-105541282D01*
X146791670Y-105553579D01*
X146810883Y-105567829D01*
X146828607Y-105583893D01*
X146844671Y-105601617D01*
X146858921Y-105620830D01*
X146871218Y-105641347D01*
X146881446Y-105662971D01*
X146889504Y-105685493D01*
X146895316Y-105708697D01*
X146898826Y-105732358D01*
X146900000Y-105756250D01*
X146900000Y-106243750D01*
X146898826Y-106267642D01*
X146895316Y-106291303D01*
X146889504Y-106314507D01*
X146881446Y-106337029D01*
X146871218Y-106358653D01*
X146858921Y-106379170D01*
X146844671Y-106398383D01*
X146828607Y-106416107D01*
X146810883Y-106432171D01*
X146791670Y-106446421D01*
X146771153Y-106458718D01*
X146749529Y-106468946D01*
X146727007Y-106477004D01*
X146703803Y-106482816D01*
X146680142Y-106486326D01*
X146656250Y-106487500D01*
X145743750Y-106487500D01*
X145719858Y-106486326D01*
X145696197Y-106482816D01*
X145672993Y-106477004D01*
X145650471Y-106468946D01*
X145628847Y-106458718D01*
X145608330Y-106446421D01*
X145589117Y-106432171D01*
X145571393Y-106416107D01*
X145555329Y-106398383D01*
X145541079Y-106379170D01*
X145528782Y-106358653D01*
X145518554Y-106337029D01*
X145510496Y-106314507D01*
X145504684Y-106291303D01*
X145501174Y-106267642D01*
X145500000Y-106243750D01*
X145500000Y-105756250D01*
X145501174Y-105732358D01*
X145504684Y-105708697D01*
X145510496Y-105685493D01*
X145518554Y-105662971D01*
X145528782Y-105641347D01*
X145541079Y-105620830D01*
X145555329Y-105601617D01*
X145571393Y-105583893D01*
X145589117Y-105567829D01*
X145608330Y-105553579D01*
X145628847Y-105541282D01*
X145650471Y-105531054D01*
X145672993Y-105522996D01*
X145696197Y-105517184D01*
X145719858Y-105513674D01*
X145743750Y-105512500D01*
X146656250Y-105512500D01*
X146680142Y-105513674D01*
X146680142Y-105513674D01*
G37*
D14*
X146200000Y-106000000D03*
D12*
G36*
X146680142Y-103638674D02*
X146703803Y-103642184D01*
X146727007Y-103647996D01*
X146749529Y-103656054D01*
X146771153Y-103666282D01*
X146791670Y-103678579D01*
X146810883Y-103692829D01*
X146828607Y-103708893D01*
X146844671Y-103726617D01*
X146858921Y-103745830D01*
X146871218Y-103766347D01*
X146881446Y-103787971D01*
X146889504Y-103810493D01*
X146895316Y-103833697D01*
X146898826Y-103857358D01*
X146900000Y-103881250D01*
X146900000Y-104368750D01*
X146898826Y-104392642D01*
X146895316Y-104416303D01*
X146889504Y-104439507D01*
X146881446Y-104462029D01*
X146871218Y-104483653D01*
X146858921Y-104504170D01*
X146844671Y-104523383D01*
X146828607Y-104541107D01*
X146810883Y-104557171D01*
X146791670Y-104571421D01*
X146771153Y-104583718D01*
X146749529Y-104593946D01*
X146727007Y-104602004D01*
X146703803Y-104607816D01*
X146680142Y-104611326D01*
X146656250Y-104612500D01*
X145743750Y-104612500D01*
X145719858Y-104611326D01*
X145696197Y-104607816D01*
X145672993Y-104602004D01*
X145650471Y-104593946D01*
X145628847Y-104583718D01*
X145608330Y-104571421D01*
X145589117Y-104557171D01*
X145571393Y-104541107D01*
X145555329Y-104523383D01*
X145541079Y-104504170D01*
X145528782Y-104483653D01*
X145518554Y-104462029D01*
X145510496Y-104439507D01*
X145504684Y-104416303D01*
X145501174Y-104392642D01*
X145500000Y-104368750D01*
X145500000Y-103881250D01*
X145501174Y-103857358D01*
X145504684Y-103833697D01*
X145510496Y-103810493D01*
X145518554Y-103787971D01*
X145528782Y-103766347D01*
X145541079Y-103745830D01*
X145555329Y-103726617D01*
X145571393Y-103708893D01*
X145589117Y-103692829D01*
X145608330Y-103678579D01*
X145628847Y-103666282D01*
X145650471Y-103656054D01*
X145672993Y-103647996D01*
X145696197Y-103642184D01*
X145719858Y-103638674D01*
X145743750Y-103637500D01*
X146656250Y-103637500D01*
X146680142Y-103638674D01*
X146680142Y-103638674D01*
G37*
D14*
X146200000Y-104125000D03*
D12*
G36*
X146480142Y-115276174D02*
X146503803Y-115279684D01*
X146527007Y-115285496D01*
X146549529Y-115293554D01*
X146571153Y-115303782D01*
X146591670Y-115316079D01*
X146610883Y-115330329D01*
X146628607Y-115346393D01*
X146644671Y-115364117D01*
X146658921Y-115383330D01*
X146671218Y-115403847D01*
X146681446Y-115425471D01*
X146689504Y-115447993D01*
X146695316Y-115471197D01*
X146698826Y-115494858D01*
X146700000Y-115518750D01*
X146700000Y-116006250D01*
X146698826Y-116030142D01*
X146695316Y-116053803D01*
X146689504Y-116077007D01*
X146681446Y-116099529D01*
X146671218Y-116121153D01*
X146658921Y-116141670D01*
X146644671Y-116160883D01*
X146628607Y-116178607D01*
X146610883Y-116194671D01*
X146591670Y-116208921D01*
X146571153Y-116221218D01*
X146549529Y-116231446D01*
X146527007Y-116239504D01*
X146503803Y-116245316D01*
X146480142Y-116248826D01*
X146456250Y-116250000D01*
X145543750Y-116250000D01*
X145519858Y-116248826D01*
X145496197Y-116245316D01*
X145472993Y-116239504D01*
X145450471Y-116231446D01*
X145428847Y-116221218D01*
X145408330Y-116208921D01*
X145389117Y-116194671D01*
X145371393Y-116178607D01*
X145355329Y-116160883D01*
X145341079Y-116141670D01*
X145328782Y-116121153D01*
X145318554Y-116099529D01*
X145310496Y-116077007D01*
X145304684Y-116053803D01*
X145301174Y-116030142D01*
X145300000Y-116006250D01*
X145300000Y-115518750D01*
X145301174Y-115494858D01*
X145304684Y-115471197D01*
X145310496Y-115447993D01*
X145318554Y-115425471D01*
X145328782Y-115403847D01*
X145341079Y-115383330D01*
X145355329Y-115364117D01*
X145371393Y-115346393D01*
X145389117Y-115330329D01*
X145408330Y-115316079D01*
X145428847Y-115303782D01*
X145450471Y-115293554D01*
X145472993Y-115285496D01*
X145496197Y-115279684D01*
X145519858Y-115276174D01*
X145543750Y-115275000D01*
X146456250Y-115275000D01*
X146480142Y-115276174D01*
X146480142Y-115276174D01*
G37*
D14*
X146000000Y-115762500D03*
D12*
G36*
X146480142Y-117151174D02*
X146503803Y-117154684D01*
X146527007Y-117160496D01*
X146549529Y-117168554D01*
X146571153Y-117178782D01*
X146591670Y-117191079D01*
X146610883Y-117205329D01*
X146628607Y-117221393D01*
X146644671Y-117239117D01*
X146658921Y-117258330D01*
X146671218Y-117278847D01*
X146681446Y-117300471D01*
X146689504Y-117322993D01*
X146695316Y-117346197D01*
X146698826Y-117369858D01*
X146700000Y-117393750D01*
X146700000Y-117881250D01*
X146698826Y-117905142D01*
X146695316Y-117928803D01*
X146689504Y-117952007D01*
X146681446Y-117974529D01*
X146671218Y-117996153D01*
X146658921Y-118016670D01*
X146644671Y-118035883D01*
X146628607Y-118053607D01*
X146610883Y-118069671D01*
X146591670Y-118083921D01*
X146571153Y-118096218D01*
X146549529Y-118106446D01*
X146527007Y-118114504D01*
X146503803Y-118120316D01*
X146480142Y-118123826D01*
X146456250Y-118125000D01*
X145543750Y-118125000D01*
X145519858Y-118123826D01*
X145496197Y-118120316D01*
X145472993Y-118114504D01*
X145450471Y-118106446D01*
X145428847Y-118096218D01*
X145408330Y-118083921D01*
X145389117Y-118069671D01*
X145371393Y-118053607D01*
X145355329Y-118035883D01*
X145341079Y-118016670D01*
X145328782Y-117996153D01*
X145318554Y-117974529D01*
X145310496Y-117952007D01*
X145304684Y-117928803D01*
X145301174Y-117905142D01*
X145300000Y-117881250D01*
X145300000Y-117393750D01*
X145301174Y-117369858D01*
X145304684Y-117346197D01*
X145310496Y-117322993D01*
X145318554Y-117300471D01*
X145328782Y-117278847D01*
X145341079Y-117258330D01*
X145355329Y-117239117D01*
X145371393Y-117221393D01*
X145389117Y-117205329D01*
X145408330Y-117191079D01*
X145428847Y-117178782D01*
X145450471Y-117168554D01*
X145472993Y-117160496D01*
X145496197Y-117154684D01*
X145519858Y-117151174D01*
X145543750Y-117150000D01*
X146456250Y-117150000D01*
X146480142Y-117151174D01*
X146480142Y-117151174D01*
G37*
D14*
X146000000Y-117637500D03*
D12*
G36*
X142792642Y-105301174D02*
X142816303Y-105304684D01*
X142839507Y-105310496D01*
X142862029Y-105318554D01*
X142883653Y-105328782D01*
X142904170Y-105341079D01*
X142923383Y-105355329D01*
X142941107Y-105371393D01*
X142957171Y-105389117D01*
X142971421Y-105408330D01*
X142983718Y-105428847D01*
X142993946Y-105450471D01*
X143002004Y-105472993D01*
X143007816Y-105496197D01*
X143011326Y-105519858D01*
X143012500Y-105543750D01*
X143012500Y-106456250D01*
X143011326Y-106480142D01*
X143007816Y-106503803D01*
X143002004Y-106527007D01*
X142993946Y-106549529D01*
X142983718Y-106571153D01*
X142971421Y-106591670D01*
X142957171Y-106610883D01*
X142941107Y-106628607D01*
X142923383Y-106644671D01*
X142904170Y-106658921D01*
X142883653Y-106671218D01*
X142862029Y-106681446D01*
X142839507Y-106689504D01*
X142816303Y-106695316D01*
X142792642Y-106698826D01*
X142768750Y-106700000D01*
X142281250Y-106700000D01*
X142257358Y-106698826D01*
X142233697Y-106695316D01*
X142210493Y-106689504D01*
X142187971Y-106681446D01*
X142166347Y-106671218D01*
X142145830Y-106658921D01*
X142126617Y-106644671D01*
X142108893Y-106628607D01*
X142092829Y-106610883D01*
X142078579Y-106591670D01*
X142066282Y-106571153D01*
X142056054Y-106549529D01*
X142047996Y-106527007D01*
X142042184Y-106503803D01*
X142038674Y-106480142D01*
X142037500Y-106456250D01*
X142037500Y-105543750D01*
X142038674Y-105519858D01*
X142042184Y-105496197D01*
X142047996Y-105472993D01*
X142056054Y-105450471D01*
X142066282Y-105428847D01*
X142078579Y-105408330D01*
X142092829Y-105389117D01*
X142108893Y-105371393D01*
X142126617Y-105355329D01*
X142145830Y-105341079D01*
X142166347Y-105328782D01*
X142187971Y-105318554D01*
X142210493Y-105310496D01*
X142233697Y-105304684D01*
X142257358Y-105301174D01*
X142281250Y-105300000D01*
X142768750Y-105300000D01*
X142792642Y-105301174D01*
X142792642Y-105301174D01*
G37*
D14*
X142525000Y-106000000D03*
D12*
G36*
X144667642Y-105301174D02*
X144691303Y-105304684D01*
X144714507Y-105310496D01*
X144737029Y-105318554D01*
X144758653Y-105328782D01*
X144779170Y-105341079D01*
X144798383Y-105355329D01*
X144816107Y-105371393D01*
X144832171Y-105389117D01*
X144846421Y-105408330D01*
X144858718Y-105428847D01*
X144868946Y-105450471D01*
X144877004Y-105472993D01*
X144882816Y-105496197D01*
X144886326Y-105519858D01*
X144887500Y-105543750D01*
X144887500Y-106456250D01*
X144886326Y-106480142D01*
X144882816Y-106503803D01*
X144877004Y-106527007D01*
X144868946Y-106549529D01*
X144858718Y-106571153D01*
X144846421Y-106591670D01*
X144832171Y-106610883D01*
X144816107Y-106628607D01*
X144798383Y-106644671D01*
X144779170Y-106658921D01*
X144758653Y-106671218D01*
X144737029Y-106681446D01*
X144714507Y-106689504D01*
X144691303Y-106695316D01*
X144667642Y-106698826D01*
X144643750Y-106700000D01*
X144156250Y-106700000D01*
X144132358Y-106698826D01*
X144108697Y-106695316D01*
X144085493Y-106689504D01*
X144062971Y-106681446D01*
X144041347Y-106671218D01*
X144020830Y-106658921D01*
X144001617Y-106644671D01*
X143983893Y-106628607D01*
X143967829Y-106610883D01*
X143953579Y-106591670D01*
X143941282Y-106571153D01*
X143931054Y-106549529D01*
X143922996Y-106527007D01*
X143917184Y-106503803D01*
X143913674Y-106480142D01*
X143912500Y-106456250D01*
X143912500Y-105543750D01*
X143913674Y-105519858D01*
X143917184Y-105496197D01*
X143922996Y-105472993D01*
X143931054Y-105450471D01*
X143941282Y-105428847D01*
X143953579Y-105408330D01*
X143967829Y-105389117D01*
X143983893Y-105371393D01*
X144001617Y-105355329D01*
X144020830Y-105341079D01*
X144041347Y-105328782D01*
X144062971Y-105318554D01*
X144085493Y-105310496D01*
X144108697Y-105304684D01*
X144132358Y-105301174D01*
X144156250Y-105300000D01*
X144643750Y-105300000D01*
X144667642Y-105301174D01*
X144667642Y-105301174D01*
G37*
D14*
X144400000Y-106000000D03*
D12*
G36*
X144667642Y-103301174D02*
X144691303Y-103304684D01*
X144714507Y-103310496D01*
X144737029Y-103318554D01*
X144758653Y-103328782D01*
X144779170Y-103341079D01*
X144798383Y-103355329D01*
X144816107Y-103371393D01*
X144832171Y-103389117D01*
X144846421Y-103408330D01*
X144858718Y-103428847D01*
X144868946Y-103450471D01*
X144877004Y-103472993D01*
X144882816Y-103496197D01*
X144886326Y-103519858D01*
X144887500Y-103543750D01*
X144887500Y-104456250D01*
X144886326Y-104480142D01*
X144882816Y-104503803D01*
X144877004Y-104527007D01*
X144868946Y-104549529D01*
X144858718Y-104571153D01*
X144846421Y-104591670D01*
X144832171Y-104610883D01*
X144816107Y-104628607D01*
X144798383Y-104644671D01*
X144779170Y-104658921D01*
X144758653Y-104671218D01*
X144737029Y-104681446D01*
X144714507Y-104689504D01*
X144691303Y-104695316D01*
X144667642Y-104698826D01*
X144643750Y-104700000D01*
X144156250Y-104700000D01*
X144132358Y-104698826D01*
X144108697Y-104695316D01*
X144085493Y-104689504D01*
X144062971Y-104681446D01*
X144041347Y-104671218D01*
X144020830Y-104658921D01*
X144001617Y-104644671D01*
X143983893Y-104628607D01*
X143967829Y-104610883D01*
X143953579Y-104591670D01*
X143941282Y-104571153D01*
X143931054Y-104549529D01*
X143922996Y-104527007D01*
X143917184Y-104503803D01*
X143913674Y-104480142D01*
X143912500Y-104456250D01*
X143912500Y-103543750D01*
X143913674Y-103519858D01*
X143917184Y-103496197D01*
X143922996Y-103472993D01*
X143931054Y-103450471D01*
X143941282Y-103428847D01*
X143953579Y-103408330D01*
X143967829Y-103389117D01*
X143983893Y-103371393D01*
X144001617Y-103355329D01*
X144020830Y-103341079D01*
X144041347Y-103328782D01*
X144062971Y-103318554D01*
X144085493Y-103310496D01*
X144108697Y-103304684D01*
X144132358Y-103301174D01*
X144156250Y-103300000D01*
X144643750Y-103300000D01*
X144667642Y-103301174D01*
X144667642Y-103301174D01*
G37*
D14*
X144400000Y-104000000D03*
D12*
G36*
X142792642Y-103301174D02*
X142816303Y-103304684D01*
X142839507Y-103310496D01*
X142862029Y-103318554D01*
X142883653Y-103328782D01*
X142904170Y-103341079D01*
X142923383Y-103355329D01*
X142941107Y-103371393D01*
X142957171Y-103389117D01*
X142971421Y-103408330D01*
X142983718Y-103428847D01*
X142993946Y-103450471D01*
X143002004Y-103472993D01*
X143007816Y-103496197D01*
X143011326Y-103519858D01*
X143012500Y-103543750D01*
X143012500Y-104456250D01*
X143011326Y-104480142D01*
X143007816Y-104503803D01*
X143002004Y-104527007D01*
X142993946Y-104549529D01*
X142983718Y-104571153D01*
X142971421Y-104591670D01*
X142957171Y-104610883D01*
X142941107Y-104628607D01*
X142923383Y-104644671D01*
X142904170Y-104658921D01*
X142883653Y-104671218D01*
X142862029Y-104681446D01*
X142839507Y-104689504D01*
X142816303Y-104695316D01*
X142792642Y-104698826D01*
X142768750Y-104700000D01*
X142281250Y-104700000D01*
X142257358Y-104698826D01*
X142233697Y-104695316D01*
X142210493Y-104689504D01*
X142187971Y-104681446D01*
X142166347Y-104671218D01*
X142145830Y-104658921D01*
X142126617Y-104644671D01*
X142108893Y-104628607D01*
X142092829Y-104610883D01*
X142078579Y-104591670D01*
X142066282Y-104571153D01*
X142056054Y-104549529D01*
X142047996Y-104527007D01*
X142042184Y-104503803D01*
X142038674Y-104480142D01*
X142037500Y-104456250D01*
X142037500Y-103543750D01*
X142038674Y-103519858D01*
X142042184Y-103496197D01*
X142047996Y-103472993D01*
X142056054Y-103450471D01*
X142066282Y-103428847D01*
X142078579Y-103408330D01*
X142092829Y-103389117D01*
X142108893Y-103371393D01*
X142126617Y-103355329D01*
X142145830Y-103341079D01*
X142166347Y-103328782D01*
X142187971Y-103318554D01*
X142210493Y-103310496D01*
X142233697Y-103304684D01*
X142257358Y-103301174D01*
X142281250Y-103300000D01*
X142768750Y-103300000D01*
X142792642Y-103301174D01*
X142792642Y-103301174D01*
G37*
D14*
X142525000Y-104000000D03*
D12*
G36*
X159280142Y-102851174D02*
X159303803Y-102854684D01*
X159327007Y-102860496D01*
X159349529Y-102868554D01*
X159371153Y-102878782D01*
X159391670Y-102891079D01*
X159410883Y-102905329D01*
X159428607Y-102921393D01*
X159444671Y-102939117D01*
X159458921Y-102958330D01*
X159471218Y-102978847D01*
X159481446Y-103000471D01*
X159489504Y-103022993D01*
X159495316Y-103046197D01*
X159498826Y-103069858D01*
X159500000Y-103093750D01*
X159500000Y-103581250D01*
X159498826Y-103605142D01*
X159495316Y-103628803D01*
X159489504Y-103652007D01*
X159481446Y-103674529D01*
X159471218Y-103696153D01*
X159458921Y-103716670D01*
X159444671Y-103735883D01*
X159428607Y-103753607D01*
X159410883Y-103769671D01*
X159391670Y-103783921D01*
X159371153Y-103796218D01*
X159349529Y-103806446D01*
X159327007Y-103814504D01*
X159303803Y-103820316D01*
X159280142Y-103823826D01*
X159256250Y-103825000D01*
X158343750Y-103825000D01*
X158319858Y-103823826D01*
X158296197Y-103820316D01*
X158272993Y-103814504D01*
X158250471Y-103806446D01*
X158228847Y-103796218D01*
X158208330Y-103783921D01*
X158189117Y-103769671D01*
X158171393Y-103753607D01*
X158155329Y-103735883D01*
X158141079Y-103716670D01*
X158128782Y-103696153D01*
X158118554Y-103674529D01*
X158110496Y-103652007D01*
X158104684Y-103628803D01*
X158101174Y-103605142D01*
X158100000Y-103581250D01*
X158100000Y-103093750D01*
X158101174Y-103069858D01*
X158104684Y-103046197D01*
X158110496Y-103022993D01*
X158118554Y-103000471D01*
X158128782Y-102978847D01*
X158141079Y-102958330D01*
X158155329Y-102939117D01*
X158171393Y-102921393D01*
X158189117Y-102905329D01*
X158208330Y-102891079D01*
X158228847Y-102878782D01*
X158250471Y-102868554D01*
X158272993Y-102860496D01*
X158296197Y-102854684D01*
X158319858Y-102851174D01*
X158343750Y-102850000D01*
X159256250Y-102850000D01*
X159280142Y-102851174D01*
X159280142Y-102851174D01*
G37*
D14*
X158800000Y-103337500D03*
D12*
G36*
X159280142Y-100976174D02*
X159303803Y-100979684D01*
X159327007Y-100985496D01*
X159349529Y-100993554D01*
X159371153Y-101003782D01*
X159391670Y-101016079D01*
X159410883Y-101030329D01*
X159428607Y-101046393D01*
X159444671Y-101064117D01*
X159458921Y-101083330D01*
X159471218Y-101103847D01*
X159481446Y-101125471D01*
X159489504Y-101147993D01*
X159495316Y-101171197D01*
X159498826Y-101194858D01*
X159500000Y-101218750D01*
X159500000Y-101706250D01*
X159498826Y-101730142D01*
X159495316Y-101753803D01*
X159489504Y-101777007D01*
X159481446Y-101799529D01*
X159471218Y-101821153D01*
X159458921Y-101841670D01*
X159444671Y-101860883D01*
X159428607Y-101878607D01*
X159410883Y-101894671D01*
X159391670Y-101908921D01*
X159371153Y-101921218D01*
X159349529Y-101931446D01*
X159327007Y-101939504D01*
X159303803Y-101945316D01*
X159280142Y-101948826D01*
X159256250Y-101950000D01*
X158343750Y-101950000D01*
X158319858Y-101948826D01*
X158296197Y-101945316D01*
X158272993Y-101939504D01*
X158250471Y-101931446D01*
X158228847Y-101921218D01*
X158208330Y-101908921D01*
X158189117Y-101894671D01*
X158171393Y-101878607D01*
X158155329Y-101860883D01*
X158141079Y-101841670D01*
X158128782Y-101821153D01*
X158118554Y-101799529D01*
X158110496Y-101777007D01*
X158104684Y-101753803D01*
X158101174Y-101730142D01*
X158100000Y-101706250D01*
X158100000Y-101218750D01*
X158101174Y-101194858D01*
X158104684Y-101171197D01*
X158110496Y-101147993D01*
X158118554Y-101125471D01*
X158128782Y-101103847D01*
X158141079Y-101083330D01*
X158155329Y-101064117D01*
X158171393Y-101046393D01*
X158189117Y-101030329D01*
X158208330Y-101016079D01*
X158228847Y-101003782D01*
X158250471Y-100993554D01*
X158272993Y-100985496D01*
X158296197Y-100979684D01*
X158319858Y-100976174D01*
X158343750Y-100975000D01*
X159256250Y-100975000D01*
X159280142Y-100976174D01*
X159280142Y-100976174D01*
G37*
D14*
X158800000Y-101462500D03*
D12*
G36*
X151280142Y-104851174D02*
X151303803Y-104854684D01*
X151327007Y-104860496D01*
X151349529Y-104868554D01*
X151371153Y-104878782D01*
X151391670Y-104891079D01*
X151410883Y-104905329D01*
X151428607Y-104921393D01*
X151444671Y-104939117D01*
X151458921Y-104958330D01*
X151471218Y-104978847D01*
X151481446Y-105000471D01*
X151489504Y-105022993D01*
X151495316Y-105046197D01*
X151498826Y-105069858D01*
X151500000Y-105093750D01*
X151500000Y-105581250D01*
X151498826Y-105605142D01*
X151495316Y-105628803D01*
X151489504Y-105652007D01*
X151481446Y-105674529D01*
X151471218Y-105696153D01*
X151458921Y-105716670D01*
X151444671Y-105735883D01*
X151428607Y-105753607D01*
X151410883Y-105769671D01*
X151391670Y-105783921D01*
X151371153Y-105796218D01*
X151349529Y-105806446D01*
X151327007Y-105814504D01*
X151303803Y-105820316D01*
X151280142Y-105823826D01*
X151256250Y-105825000D01*
X150343750Y-105825000D01*
X150319858Y-105823826D01*
X150296197Y-105820316D01*
X150272993Y-105814504D01*
X150250471Y-105806446D01*
X150228847Y-105796218D01*
X150208330Y-105783921D01*
X150189117Y-105769671D01*
X150171393Y-105753607D01*
X150155329Y-105735883D01*
X150141079Y-105716670D01*
X150128782Y-105696153D01*
X150118554Y-105674529D01*
X150110496Y-105652007D01*
X150104684Y-105628803D01*
X150101174Y-105605142D01*
X150100000Y-105581250D01*
X150100000Y-105093750D01*
X150101174Y-105069858D01*
X150104684Y-105046197D01*
X150110496Y-105022993D01*
X150118554Y-105000471D01*
X150128782Y-104978847D01*
X150141079Y-104958330D01*
X150155329Y-104939117D01*
X150171393Y-104921393D01*
X150189117Y-104905329D01*
X150208330Y-104891079D01*
X150228847Y-104878782D01*
X150250471Y-104868554D01*
X150272993Y-104860496D01*
X150296197Y-104854684D01*
X150319858Y-104851174D01*
X150343750Y-104850000D01*
X151256250Y-104850000D01*
X151280142Y-104851174D01*
X151280142Y-104851174D01*
G37*
D14*
X150800000Y-105337500D03*
D12*
G36*
X151280142Y-102976174D02*
X151303803Y-102979684D01*
X151327007Y-102985496D01*
X151349529Y-102993554D01*
X151371153Y-103003782D01*
X151391670Y-103016079D01*
X151410883Y-103030329D01*
X151428607Y-103046393D01*
X151444671Y-103064117D01*
X151458921Y-103083330D01*
X151471218Y-103103847D01*
X151481446Y-103125471D01*
X151489504Y-103147993D01*
X151495316Y-103171197D01*
X151498826Y-103194858D01*
X151500000Y-103218750D01*
X151500000Y-103706250D01*
X151498826Y-103730142D01*
X151495316Y-103753803D01*
X151489504Y-103777007D01*
X151481446Y-103799529D01*
X151471218Y-103821153D01*
X151458921Y-103841670D01*
X151444671Y-103860883D01*
X151428607Y-103878607D01*
X151410883Y-103894671D01*
X151391670Y-103908921D01*
X151371153Y-103921218D01*
X151349529Y-103931446D01*
X151327007Y-103939504D01*
X151303803Y-103945316D01*
X151280142Y-103948826D01*
X151256250Y-103950000D01*
X150343750Y-103950000D01*
X150319858Y-103948826D01*
X150296197Y-103945316D01*
X150272993Y-103939504D01*
X150250471Y-103931446D01*
X150228847Y-103921218D01*
X150208330Y-103908921D01*
X150189117Y-103894671D01*
X150171393Y-103878607D01*
X150155329Y-103860883D01*
X150141079Y-103841670D01*
X150128782Y-103821153D01*
X150118554Y-103799529D01*
X150110496Y-103777007D01*
X150104684Y-103753803D01*
X150101174Y-103730142D01*
X150100000Y-103706250D01*
X150100000Y-103218750D01*
X150101174Y-103194858D01*
X150104684Y-103171197D01*
X150110496Y-103147993D01*
X150118554Y-103125471D01*
X150128782Y-103103847D01*
X150141079Y-103083330D01*
X150155329Y-103064117D01*
X150171393Y-103046393D01*
X150189117Y-103030329D01*
X150208330Y-103016079D01*
X150228847Y-103003782D01*
X150250471Y-102993554D01*
X150272993Y-102985496D01*
X150296197Y-102979684D01*
X150319858Y-102976174D01*
X150343750Y-102975000D01*
X151256250Y-102975000D01*
X151280142Y-102976174D01*
X151280142Y-102976174D01*
G37*
D14*
X150800000Y-103462500D03*
D12*
G36*
X157280142Y-102851174D02*
X157303803Y-102854684D01*
X157327007Y-102860496D01*
X157349529Y-102868554D01*
X157371153Y-102878782D01*
X157391670Y-102891079D01*
X157410883Y-102905329D01*
X157428607Y-102921393D01*
X157444671Y-102939117D01*
X157458921Y-102958330D01*
X157471218Y-102978847D01*
X157481446Y-103000471D01*
X157489504Y-103022993D01*
X157495316Y-103046197D01*
X157498826Y-103069858D01*
X157500000Y-103093750D01*
X157500000Y-103581250D01*
X157498826Y-103605142D01*
X157495316Y-103628803D01*
X157489504Y-103652007D01*
X157481446Y-103674529D01*
X157471218Y-103696153D01*
X157458921Y-103716670D01*
X157444671Y-103735883D01*
X157428607Y-103753607D01*
X157410883Y-103769671D01*
X157391670Y-103783921D01*
X157371153Y-103796218D01*
X157349529Y-103806446D01*
X157327007Y-103814504D01*
X157303803Y-103820316D01*
X157280142Y-103823826D01*
X157256250Y-103825000D01*
X156343750Y-103825000D01*
X156319858Y-103823826D01*
X156296197Y-103820316D01*
X156272993Y-103814504D01*
X156250471Y-103806446D01*
X156228847Y-103796218D01*
X156208330Y-103783921D01*
X156189117Y-103769671D01*
X156171393Y-103753607D01*
X156155329Y-103735883D01*
X156141079Y-103716670D01*
X156128782Y-103696153D01*
X156118554Y-103674529D01*
X156110496Y-103652007D01*
X156104684Y-103628803D01*
X156101174Y-103605142D01*
X156100000Y-103581250D01*
X156100000Y-103093750D01*
X156101174Y-103069858D01*
X156104684Y-103046197D01*
X156110496Y-103022993D01*
X156118554Y-103000471D01*
X156128782Y-102978847D01*
X156141079Y-102958330D01*
X156155329Y-102939117D01*
X156171393Y-102921393D01*
X156189117Y-102905329D01*
X156208330Y-102891079D01*
X156228847Y-102878782D01*
X156250471Y-102868554D01*
X156272993Y-102860496D01*
X156296197Y-102854684D01*
X156319858Y-102851174D01*
X156343750Y-102850000D01*
X157256250Y-102850000D01*
X157280142Y-102851174D01*
X157280142Y-102851174D01*
G37*
D14*
X156800000Y-103337500D03*
D12*
G36*
X157280142Y-100976174D02*
X157303803Y-100979684D01*
X157327007Y-100985496D01*
X157349529Y-100993554D01*
X157371153Y-101003782D01*
X157391670Y-101016079D01*
X157410883Y-101030329D01*
X157428607Y-101046393D01*
X157444671Y-101064117D01*
X157458921Y-101083330D01*
X157471218Y-101103847D01*
X157481446Y-101125471D01*
X157489504Y-101147993D01*
X157495316Y-101171197D01*
X157498826Y-101194858D01*
X157500000Y-101218750D01*
X157500000Y-101706250D01*
X157498826Y-101730142D01*
X157495316Y-101753803D01*
X157489504Y-101777007D01*
X157481446Y-101799529D01*
X157471218Y-101821153D01*
X157458921Y-101841670D01*
X157444671Y-101860883D01*
X157428607Y-101878607D01*
X157410883Y-101894671D01*
X157391670Y-101908921D01*
X157371153Y-101921218D01*
X157349529Y-101931446D01*
X157327007Y-101939504D01*
X157303803Y-101945316D01*
X157280142Y-101948826D01*
X157256250Y-101950000D01*
X156343750Y-101950000D01*
X156319858Y-101948826D01*
X156296197Y-101945316D01*
X156272993Y-101939504D01*
X156250471Y-101931446D01*
X156228847Y-101921218D01*
X156208330Y-101908921D01*
X156189117Y-101894671D01*
X156171393Y-101878607D01*
X156155329Y-101860883D01*
X156141079Y-101841670D01*
X156128782Y-101821153D01*
X156118554Y-101799529D01*
X156110496Y-101777007D01*
X156104684Y-101753803D01*
X156101174Y-101730142D01*
X156100000Y-101706250D01*
X156100000Y-101218750D01*
X156101174Y-101194858D01*
X156104684Y-101171197D01*
X156110496Y-101147993D01*
X156118554Y-101125471D01*
X156128782Y-101103847D01*
X156141079Y-101083330D01*
X156155329Y-101064117D01*
X156171393Y-101046393D01*
X156189117Y-101030329D01*
X156208330Y-101016079D01*
X156228847Y-101003782D01*
X156250471Y-100993554D01*
X156272993Y-100985496D01*
X156296197Y-100979684D01*
X156319858Y-100976174D01*
X156343750Y-100975000D01*
X157256250Y-100975000D01*
X157280142Y-100976174D01*
X157280142Y-100976174D01*
G37*
D14*
X156800000Y-101462500D03*
D12*
G36*
X159730142Y-115201174D02*
X159753803Y-115204684D01*
X159777007Y-115210496D01*
X159799529Y-115218554D01*
X159821153Y-115228782D01*
X159841670Y-115241079D01*
X159860883Y-115255329D01*
X159878607Y-115271393D01*
X159894671Y-115289117D01*
X159908921Y-115308330D01*
X159921218Y-115328847D01*
X159931446Y-115350471D01*
X159939504Y-115372993D01*
X159945316Y-115396197D01*
X159948826Y-115419858D01*
X159950000Y-115443750D01*
X159950000Y-115931250D01*
X159948826Y-115955142D01*
X159945316Y-115978803D01*
X159939504Y-116002007D01*
X159931446Y-116024529D01*
X159921218Y-116046153D01*
X159908921Y-116066670D01*
X159894671Y-116085883D01*
X159878607Y-116103607D01*
X159860883Y-116119671D01*
X159841670Y-116133921D01*
X159821153Y-116146218D01*
X159799529Y-116156446D01*
X159777007Y-116164504D01*
X159753803Y-116170316D01*
X159730142Y-116173826D01*
X159706250Y-116175000D01*
X158793750Y-116175000D01*
X158769858Y-116173826D01*
X158746197Y-116170316D01*
X158722993Y-116164504D01*
X158700471Y-116156446D01*
X158678847Y-116146218D01*
X158658330Y-116133921D01*
X158639117Y-116119671D01*
X158621393Y-116103607D01*
X158605329Y-116085883D01*
X158591079Y-116066670D01*
X158578782Y-116046153D01*
X158568554Y-116024529D01*
X158560496Y-116002007D01*
X158554684Y-115978803D01*
X158551174Y-115955142D01*
X158550000Y-115931250D01*
X158550000Y-115443750D01*
X158551174Y-115419858D01*
X158554684Y-115396197D01*
X158560496Y-115372993D01*
X158568554Y-115350471D01*
X158578782Y-115328847D01*
X158591079Y-115308330D01*
X158605329Y-115289117D01*
X158621393Y-115271393D01*
X158639117Y-115255329D01*
X158658330Y-115241079D01*
X158678847Y-115228782D01*
X158700471Y-115218554D01*
X158722993Y-115210496D01*
X158746197Y-115204684D01*
X158769858Y-115201174D01*
X158793750Y-115200000D01*
X159706250Y-115200000D01*
X159730142Y-115201174D01*
X159730142Y-115201174D01*
G37*
D14*
X159250000Y-115687500D03*
D12*
G36*
X159730142Y-113326174D02*
X159753803Y-113329684D01*
X159777007Y-113335496D01*
X159799529Y-113343554D01*
X159821153Y-113353782D01*
X159841670Y-113366079D01*
X159860883Y-113380329D01*
X159878607Y-113396393D01*
X159894671Y-113414117D01*
X159908921Y-113433330D01*
X159921218Y-113453847D01*
X159931446Y-113475471D01*
X159939504Y-113497993D01*
X159945316Y-113521197D01*
X159948826Y-113544858D01*
X159950000Y-113568750D01*
X159950000Y-114056250D01*
X159948826Y-114080142D01*
X159945316Y-114103803D01*
X159939504Y-114127007D01*
X159931446Y-114149529D01*
X159921218Y-114171153D01*
X159908921Y-114191670D01*
X159894671Y-114210883D01*
X159878607Y-114228607D01*
X159860883Y-114244671D01*
X159841670Y-114258921D01*
X159821153Y-114271218D01*
X159799529Y-114281446D01*
X159777007Y-114289504D01*
X159753803Y-114295316D01*
X159730142Y-114298826D01*
X159706250Y-114300000D01*
X158793750Y-114300000D01*
X158769858Y-114298826D01*
X158746197Y-114295316D01*
X158722993Y-114289504D01*
X158700471Y-114281446D01*
X158678847Y-114271218D01*
X158658330Y-114258921D01*
X158639117Y-114244671D01*
X158621393Y-114228607D01*
X158605329Y-114210883D01*
X158591079Y-114191670D01*
X158578782Y-114171153D01*
X158568554Y-114149529D01*
X158560496Y-114127007D01*
X158554684Y-114103803D01*
X158551174Y-114080142D01*
X158550000Y-114056250D01*
X158550000Y-113568750D01*
X158551174Y-113544858D01*
X158554684Y-113521197D01*
X158560496Y-113497993D01*
X158568554Y-113475471D01*
X158578782Y-113453847D01*
X158591079Y-113433330D01*
X158605329Y-113414117D01*
X158621393Y-113396393D01*
X158639117Y-113380329D01*
X158658330Y-113366079D01*
X158678847Y-113353782D01*
X158700471Y-113343554D01*
X158722993Y-113335496D01*
X158746197Y-113329684D01*
X158769858Y-113326174D01*
X158793750Y-113325000D01*
X159706250Y-113325000D01*
X159730142Y-113326174D01*
X159730142Y-113326174D01*
G37*
D14*
X159250000Y-113812500D03*
D12*
G36*
X156730142Y-114701174D02*
X156753803Y-114704684D01*
X156777007Y-114710496D01*
X156799529Y-114718554D01*
X156821153Y-114728782D01*
X156841670Y-114741079D01*
X156860883Y-114755329D01*
X156878607Y-114771393D01*
X156894671Y-114789117D01*
X156908921Y-114808330D01*
X156921218Y-114828847D01*
X156931446Y-114850471D01*
X156939504Y-114872993D01*
X156945316Y-114896197D01*
X156948826Y-114919858D01*
X156950000Y-114943750D01*
X156950000Y-115431250D01*
X156948826Y-115455142D01*
X156945316Y-115478803D01*
X156939504Y-115502007D01*
X156931446Y-115524529D01*
X156921218Y-115546153D01*
X156908921Y-115566670D01*
X156894671Y-115585883D01*
X156878607Y-115603607D01*
X156860883Y-115619671D01*
X156841670Y-115633921D01*
X156821153Y-115646218D01*
X156799529Y-115656446D01*
X156777007Y-115664504D01*
X156753803Y-115670316D01*
X156730142Y-115673826D01*
X156706250Y-115675000D01*
X155793750Y-115675000D01*
X155769858Y-115673826D01*
X155746197Y-115670316D01*
X155722993Y-115664504D01*
X155700471Y-115656446D01*
X155678847Y-115646218D01*
X155658330Y-115633921D01*
X155639117Y-115619671D01*
X155621393Y-115603607D01*
X155605329Y-115585883D01*
X155591079Y-115566670D01*
X155578782Y-115546153D01*
X155568554Y-115524529D01*
X155560496Y-115502007D01*
X155554684Y-115478803D01*
X155551174Y-115455142D01*
X155550000Y-115431250D01*
X155550000Y-114943750D01*
X155551174Y-114919858D01*
X155554684Y-114896197D01*
X155560496Y-114872993D01*
X155568554Y-114850471D01*
X155578782Y-114828847D01*
X155591079Y-114808330D01*
X155605329Y-114789117D01*
X155621393Y-114771393D01*
X155639117Y-114755329D01*
X155658330Y-114741079D01*
X155678847Y-114728782D01*
X155700471Y-114718554D01*
X155722993Y-114710496D01*
X155746197Y-114704684D01*
X155769858Y-114701174D01*
X155793750Y-114700000D01*
X156706250Y-114700000D01*
X156730142Y-114701174D01*
X156730142Y-114701174D01*
G37*
D14*
X156250000Y-115187500D03*
D12*
G36*
X156730142Y-112826174D02*
X156753803Y-112829684D01*
X156777007Y-112835496D01*
X156799529Y-112843554D01*
X156821153Y-112853782D01*
X156841670Y-112866079D01*
X156860883Y-112880329D01*
X156878607Y-112896393D01*
X156894671Y-112914117D01*
X156908921Y-112933330D01*
X156921218Y-112953847D01*
X156931446Y-112975471D01*
X156939504Y-112997993D01*
X156945316Y-113021197D01*
X156948826Y-113044858D01*
X156950000Y-113068750D01*
X156950000Y-113556250D01*
X156948826Y-113580142D01*
X156945316Y-113603803D01*
X156939504Y-113627007D01*
X156931446Y-113649529D01*
X156921218Y-113671153D01*
X156908921Y-113691670D01*
X156894671Y-113710883D01*
X156878607Y-113728607D01*
X156860883Y-113744671D01*
X156841670Y-113758921D01*
X156821153Y-113771218D01*
X156799529Y-113781446D01*
X156777007Y-113789504D01*
X156753803Y-113795316D01*
X156730142Y-113798826D01*
X156706250Y-113800000D01*
X155793750Y-113800000D01*
X155769858Y-113798826D01*
X155746197Y-113795316D01*
X155722993Y-113789504D01*
X155700471Y-113781446D01*
X155678847Y-113771218D01*
X155658330Y-113758921D01*
X155639117Y-113744671D01*
X155621393Y-113728607D01*
X155605329Y-113710883D01*
X155591079Y-113691670D01*
X155578782Y-113671153D01*
X155568554Y-113649529D01*
X155560496Y-113627007D01*
X155554684Y-113603803D01*
X155551174Y-113580142D01*
X155550000Y-113556250D01*
X155550000Y-113068750D01*
X155551174Y-113044858D01*
X155554684Y-113021197D01*
X155560496Y-112997993D01*
X155568554Y-112975471D01*
X155578782Y-112953847D01*
X155591079Y-112933330D01*
X155605329Y-112914117D01*
X155621393Y-112896393D01*
X155639117Y-112880329D01*
X155658330Y-112866079D01*
X155678847Y-112853782D01*
X155700471Y-112843554D01*
X155722993Y-112835496D01*
X155746197Y-112829684D01*
X155769858Y-112826174D01*
X155793750Y-112825000D01*
X156706250Y-112825000D01*
X156730142Y-112826174D01*
X156730142Y-112826174D01*
G37*
D14*
X156250000Y-113312500D03*
D12*
G36*
X160080142Y-106601174D02*
X160103803Y-106604684D01*
X160127007Y-106610496D01*
X160149529Y-106618554D01*
X160171153Y-106628782D01*
X160191670Y-106641079D01*
X160210883Y-106655329D01*
X160228607Y-106671393D01*
X160244671Y-106689117D01*
X160258921Y-106708330D01*
X160271218Y-106728847D01*
X160281446Y-106750471D01*
X160289504Y-106772993D01*
X160295316Y-106796197D01*
X160298826Y-106819858D01*
X160300000Y-106843750D01*
X160300000Y-107331250D01*
X160298826Y-107355142D01*
X160295316Y-107378803D01*
X160289504Y-107402007D01*
X160281446Y-107424529D01*
X160271218Y-107446153D01*
X160258921Y-107466670D01*
X160244671Y-107485883D01*
X160228607Y-107503607D01*
X160210883Y-107519671D01*
X160191670Y-107533921D01*
X160171153Y-107546218D01*
X160149529Y-107556446D01*
X160127007Y-107564504D01*
X160103803Y-107570316D01*
X160080142Y-107573826D01*
X160056250Y-107575000D01*
X159143750Y-107575000D01*
X159119858Y-107573826D01*
X159096197Y-107570316D01*
X159072993Y-107564504D01*
X159050471Y-107556446D01*
X159028847Y-107546218D01*
X159008330Y-107533921D01*
X158989117Y-107519671D01*
X158971393Y-107503607D01*
X158955329Y-107485883D01*
X158941079Y-107466670D01*
X158928782Y-107446153D01*
X158918554Y-107424529D01*
X158910496Y-107402007D01*
X158904684Y-107378803D01*
X158901174Y-107355142D01*
X158900000Y-107331250D01*
X158900000Y-106843750D01*
X158901174Y-106819858D01*
X158904684Y-106796197D01*
X158910496Y-106772993D01*
X158918554Y-106750471D01*
X158928782Y-106728847D01*
X158941079Y-106708330D01*
X158955329Y-106689117D01*
X158971393Y-106671393D01*
X158989117Y-106655329D01*
X159008330Y-106641079D01*
X159028847Y-106628782D01*
X159050471Y-106618554D01*
X159072993Y-106610496D01*
X159096197Y-106604684D01*
X159119858Y-106601174D01*
X159143750Y-106600000D01*
X160056250Y-106600000D01*
X160080142Y-106601174D01*
X160080142Y-106601174D01*
G37*
D14*
X159600000Y-107087500D03*
D12*
G36*
X160080142Y-104726174D02*
X160103803Y-104729684D01*
X160127007Y-104735496D01*
X160149529Y-104743554D01*
X160171153Y-104753782D01*
X160191670Y-104766079D01*
X160210883Y-104780329D01*
X160228607Y-104796393D01*
X160244671Y-104814117D01*
X160258921Y-104833330D01*
X160271218Y-104853847D01*
X160281446Y-104875471D01*
X160289504Y-104897993D01*
X160295316Y-104921197D01*
X160298826Y-104944858D01*
X160300000Y-104968750D01*
X160300000Y-105456250D01*
X160298826Y-105480142D01*
X160295316Y-105503803D01*
X160289504Y-105527007D01*
X160281446Y-105549529D01*
X160271218Y-105571153D01*
X160258921Y-105591670D01*
X160244671Y-105610883D01*
X160228607Y-105628607D01*
X160210883Y-105644671D01*
X160191670Y-105658921D01*
X160171153Y-105671218D01*
X160149529Y-105681446D01*
X160127007Y-105689504D01*
X160103803Y-105695316D01*
X160080142Y-105698826D01*
X160056250Y-105700000D01*
X159143750Y-105700000D01*
X159119858Y-105698826D01*
X159096197Y-105695316D01*
X159072993Y-105689504D01*
X159050471Y-105681446D01*
X159028847Y-105671218D01*
X159008330Y-105658921D01*
X158989117Y-105644671D01*
X158971393Y-105628607D01*
X158955329Y-105610883D01*
X158941079Y-105591670D01*
X158928782Y-105571153D01*
X158918554Y-105549529D01*
X158910496Y-105527007D01*
X158904684Y-105503803D01*
X158901174Y-105480142D01*
X158900000Y-105456250D01*
X158900000Y-104968750D01*
X158901174Y-104944858D01*
X158904684Y-104921197D01*
X158910496Y-104897993D01*
X158918554Y-104875471D01*
X158928782Y-104853847D01*
X158941079Y-104833330D01*
X158955329Y-104814117D01*
X158971393Y-104796393D01*
X158989117Y-104780329D01*
X159008330Y-104766079D01*
X159028847Y-104753782D01*
X159050471Y-104743554D01*
X159072993Y-104735496D01*
X159096197Y-104729684D01*
X159119858Y-104726174D01*
X159143750Y-104725000D01*
X160056250Y-104725000D01*
X160080142Y-104726174D01*
X160080142Y-104726174D01*
G37*
D14*
X159600000Y-105212500D03*
D12*
G36*
X160180142Y-110813674D02*
X160203803Y-110817184D01*
X160227007Y-110822996D01*
X160249529Y-110831054D01*
X160271153Y-110841282D01*
X160291670Y-110853579D01*
X160310883Y-110867829D01*
X160328607Y-110883893D01*
X160344671Y-110901617D01*
X160358921Y-110920830D01*
X160371218Y-110941347D01*
X160381446Y-110962971D01*
X160389504Y-110985493D01*
X160395316Y-111008697D01*
X160398826Y-111032358D01*
X160400000Y-111056250D01*
X160400000Y-111543750D01*
X160398826Y-111567642D01*
X160395316Y-111591303D01*
X160389504Y-111614507D01*
X160381446Y-111637029D01*
X160371218Y-111658653D01*
X160358921Y-111679170D01*
X160344671Y-111698383D01*
X160328607Y-111716107D01*
X160310883Y-111732171D01*
X160291670Y-111746421D01*
X160271153Y-111758718D01*
X160249529Y-111768946D01*
X160227007Y-111777004D01*
X160203803Y-111782816D01*
X160180142Y-111786326D01*
X160156250Y-111787500D01*
X159243750Y-111787500D01*
X159219858Y-111786326D01*
X159196197Y-111782816D01*
X159172993Y-111777004D01*
X159150471Y-111768946D01*
X159128847Y-111758718D01*
X159108330Y-111746421D01*
X159089117Y-111732171D01*
X159071393Y-111716107D01*
X159055329Y-111698383D01*
X159041079Y-111679170D01*
X159028782Y-111658653D01*
X159018554Y-111637029D01*
X159010496Y-111614507D01*
X159004684Y-111591303D01*
X159001174Y-111567642D01*
X159000000Y-111543750D01*
X159000000Y-111056250D01*
X159001174Y-111032358D01*
X159004684Y-111008697D01*
X159010496Y-110985493D01*
X159018554Y-110962971D01*
X159028782Y-110941347D01*
X159041079Y-110920830D01*
X159055329Y-110901617D01*
X159071393Y-110883893D01*
X159089117Y-110867829D01*
X159108330Y-110853579D01*
X159128847Y-110841282D01*
X159150471Y-110831054D01*
X159172993Y-110822996D01*
X159196197Y-110817184D01*
X159219858Y-110813674D01*
X159243750Y-110812500D01*
X160156250Y-110812500D01*
X160180142Y-110813674D01*
X160180142Y-110813674D01*
G37*
D14*
X159700000Y-111300000D03*
D12*
G36*
X160180142Y-108938674D02*
X160203803Y-108942184D01*
X160227007Y-108947996D01*
X160249529Y-108956054D01*
X160271153Y-108966282D01*
X160291670Y-108978579D01*
X160310883Y-108992829D01*
X160328607Y-109008893D01*
X160344671Y-109026617D01*
X160358921Y-109045830D01*
X160371218Y-109066347D01*
X160381446Y-109087971D01*
X160389504Y-109110493D01*
X160395316Y-109133697D01*
X160398826Y-109157358D01*
X160400000Y-109181250D01*
X160400000Y-109668750D01*
X160398826Y-109692642D01*
X160395316Y-109716303D01*
X160389504Y-109739507D01*
X160381446Y-109762029D01*
X160371218Y-109783653D01*
X160358921Y-109804170D01*
X160344671Y-109823383D01*
X160328607Y-109841107D01*
X160310883Y-109857171D01*
X160291670Y-109871421D01*
X160271153Y-109883718D01*
X160249529Y-109893946D01*
X160227007Y-109902004D01*
X160203803Y-109907816D01*
X160180142Y-109911326D01*
X160156250Y-109912500D01*
X159243750Y-109912500D01*
X159219858Y-109911326D01*
X159196197Y-109907816D01*
X159172993Y-109902004D01*
X159150471Y-109893946D01*
X159128847Y-109883718D01*
X159108330Y-109871421D01*
X159089117Y-109857171D01*
X159071393Y-109841107D01*
X159055329Y-109823383D01*
X159041079Y-109804170D01*
X159028782Y-109783653D01*
X159018554Y-109762029D01*
X159010496Y-109739507D01*
X159004684Y-109716303D01*
X159001174Y-109692642D01*
X159000000Y-109668750D01*
X159000000Y-109181250D01*
X159001174Y-109157358D01*
X159004684Y-109133697D01*
X159010496Y-109110493D01*
X159018554Y-109087971D01*
X159028782Y-109066347D01*
X159041079Y-109045830D01*
X159055329Y-109026617D01*
X159071393Y-109008893D01*
X159089117Y-108992829D01*
X159108330Y-108978579D01*
X159128847Y-108966282D01*
X159150471Y-108956054D01*
X159172993Y-108947996D01*
X159196197Y-108942184D01*
X159219858Y-108938674D01*
X159243750Y-108937500D01*
X160156250Y-108937500D01*
X160180142Y-108938674D01*
X160180142Y-108938674D01*
G37*
D14*
X159700000Y-109425000D03*
D12*
G36*
X148730142Y-103638674D02*
X148753803Y-103642184D01*
X148777007Y-103647996D01*
X148799529Y-103656054D01*
X148821153Y-103666282D01*
X148841670Y-103678579D01*
X148860883Y-103692829D01*
X148878607Y-103708893D01*
X148894671Y-103726617D01*
X148908921Y-103745830D01*
X148921218Y-103766347D01*
X148931446Y-103787971D01*
X148939504Y-103810493D01*
X148945316Y-103833697D01*
X148948826Y-103857358D01*
X148950000Y-103881250D01*
X148950000Y-104368750D01*
X148948826Y-104392642D01*
X148945316Y-104416303D01*
X148939504Y-104439507D01*
X148931446Y-104462029D01*
X148921218Y-104483653D01*
X148908921Y-104504170D01*
X148894671Y-104523383D01*
X148878607Y-104541107D01*
X148860883Y-104557171D01*
X148841670Y-104571421D01*
X148821153Y-104583718D01*
X148799529Y-104593946D01*
X148777007Y-104602004D01*
X148753803Y-104607816D01*
X148730142Y-104611326D01*
X148706250Y-104612500D01*
X147793750Y-104612500D01*
X147769858Y-104611326D01*
X147746197Y-104607816D01*
X147722993Y-104602004D01*
X147700471Y-104593946D01*
X147678847Y-104583718D01*
X147658330Y-104571421D01*
X147639117Y-104557171D01*
X147621393Y-104541107D01*
X147605329Y-104523383D01*
X147591079Y-104504170D01*
X147578782Y-104483653D01*
X147568554Y-104462029D01*
X147560496Y-104439507D01*
X147554684Y-104416303D01*
X147551174Y-104392642D01*
X147550000Y-104368750D01*
X147550000Y-103881250D01*
X147551174Y-103857358D01*
X147554684Y-103833697D01*
X147560496Y-103810493D01*
X147568554Y-103787971D01*
X147578782Y-103766347D01*
X147591079Y-103745830D01*
X147605329Y-103726617D01*
X147621393Y-103708893D01*
X147639117Y-103692829D01*
X147658330Y-103678579D01*
X147678847Y-103666282D01*
X147700471Y-103656054D01*
X147722993Y-103647996D01*
X147746197Y-103642184D01*
X147769858Y-103638674D01*
X147793750Y-103637500D01*
X148706250Y-103637500D01*
X148730142Y-103638674D01*
X148730142Y-103638674D01*
G37*
D14*
X148250000Y-104125000D03*
D12*
G36*
X148730142Y-105513674D02*
X148753803Y-105517184D01*
X148777007Y-105522996D01*
X148799529Y-105531054D01*
X148821153Y-105541282D01*
X148841670Y-105553579D01*
X148860883Y-105567829D01*
X148878607Y-105583893D01*
X148894671Y-105601617D01*
X148908921Y-105620830D01*
X148921218Y-105641347D01*
X148931446Y-105662971D01*
X148939504Y-105685493D01*
X148945316Y-105708697D01*
X148948826Y-105732358D01*
X148950000Y-105756250D01*
X148950000Y-106243750D01*
X148948826Y-106267642D01*
X148945316Y-106291303D01*
X148939504Y-106314507D01*
X148931446Y-106337029D01*
X148921218Y-106358653D01*
X148908921Y-106379170D01*
X148894671Y-106398383D01*
X148878607Y-106416107D01*
X148860883Y-106432171D01*
X148841670Y-106446421D01*
X148821153Y-106458718D01*
X148799529Y-106468946D01*
X148777007Y-106477004D01*
X148753803Y-106482816D01*
X148730142Y-106486326D01*
X148706250Y-106487500D01*
X147793750Y-106487500D01*
X147769858Y-106486326D01*
X147746197Y-106482816D01*
X147722993Y-106477004D01*
X147700471Y-106468946D01*
X147678847Y-106458718D01*
X147658330Y-106446421D01*
X147639117Y-106432171D01*
X147621393Y-106416107D01*
X147605329Y-106398383D01*
X147591079Y-106379170D01*
X147578782Y-106358653D01*
X147568554Y-106337029D01*
X147560496Y-106314507D01*
X147554684Y-106291303D01*
X147551174Y-106267642D01*
X147550000Y-106243750D01*
X147550000Y-105756250D01*
X147551174Y-105732358D01*
X147554684Y-105708697D01*
X147560496Y-105685493D01*
X147568554Y-105662971D01*
X147578782Y-105641347D01*
X147591079Y-105620830D01*
X147605329Y-105601617D01*
X147621393Y-105583893D01*
X147639117Y-105567829D01*
X147658330Y-105553579D01*
X147678847Y-105541282D01*
X147700471Y-105531054D01*
X147722993Y-105522996D01*
X147746197Y-105517184D01*
X147769858Y-105513674D01*
X147793750Y-105512500D01*
X148706250Y-105512500D01*
X148730142Y-105513674D01*
X148730142Y-105513674D01*
G37*
D14*
X148250000Y-106000000D03*
D12*
G36*
X154280142Y-113976174D02*
X154303803Y-113979684D01*
X154327007Y-113985496D01*
X154349529Y-113993554D01*
X154371153Y-114003782D01*
X154391670Y-114016079D01*
X154410883Y-114030329D01*
X154428607Y-114046393D01*
X154444671Y-114064117D01*
X154458921Y-114083330D01*
X154471218Y-114103847D01*
X154481446Y-114125471D01*
X154489504Y-114147993D01*
X154495316Y-114171197D01*
X154498826Y-114194858D01*
X154500000Y-114218750D01*
X154500000Y-114706250D01*
X154498826Y-114730142D01*
X154495316Y-114753803D01*
X154489504Y-114777007D01*
X154481446Y-114799529D01*
X154471218Y-114821153D01*
X154458921Y-114841670D01*
X154444671Y-114860883D01*
X154428607Y-114878607D01*
X154410883Y-114894671D01*
X154391670Y-114908921D01*
X154371153Y-114921218D01*
X154349529Y-114931446D01*
X154327007Y-114939504D01*
X154303803Y-114945316D01*
X154280142Y-114948826D01*
X154256250Y-114950000D01*
X153343750Y-114950000D01*
X153319858Y-114948826D01*
X153296197Y-114945316D01*
X153272993Y-114939504D01*
X153250471Y-114931446D01*
X153228847Y-114921218D01*
X153208330Y-114908921D01*
X153189117Y-114894671D01*
X153171393Y-114878607D01*
X153155329Y-114860883D01*
X153141079Y-114841670D01*
X153128782Y-114821153D01*
X153118554Y-114799529D01*
X153110496Y-114777007D01*
X153104684Y-114753803D01*
X153101174Y-114730142D01*
X153100000Y-114706250D01*
X153100000Y-114218750D01*
X153101174Y-114194858D01*
X153104684Y-114171197D01*
X153110496Y-114147993D01*
X153118554Y-114125471D01*
X153128782Y-114103847D01*
X153141079Y-114083330D01*
X153155329Y-114064117D01*
X153171393Y-114046393D01*
X153189117Y-114030329D01*
X153208330Y-114016079D01*
X153228847Y-114003782D01*
X153250471Y-113993554D01*
X153272993Y-113985496D01*
X153296197Y-113979684D01*
X153319858Y-113976174D01*
X153343750Y-113975000D01*
X154256250Y-113975000D01*
X154280142Y-113976174D01*
X154280142Y-113976174D01*
G37*
D14*
X153800000Y-114462500D03*
D12*
G36*
X154280142Y-115851174D02*
X154303803Y-115854684D01*
X154327007Y-115860496D01*
X154349529Y-115868554D01*
X154371153Y-115878782D01*
X154391670Y-115891079D01*
X154410883Y-115905329D01*
X154428607Y-115921393D01*
X154444671Y-115939117D01*
X154458921Y-115958330D01*
X154471218Y-115978847D01*
X154481446Y-116000471D01*
X154489504Y-116022993D01*
X154495316Y-116046197D01*
X154498826Y-116069858D01*
X154500000Y-116093750D01*
X154500000Y-116581250D01*
X154498826Y-116605142D01*
X154495316Y-116628803D01*
X154489504Y-116652007D01*
X154481446Y-116674529D01*
X154471218Y-116696153D01*
X154458921Y-116716670D01*
X154444671Y-116735883D01*
X154428607Y-116753607D01*
X154410883Y-116769671D01*
X154391670Y-116783921D01*
X154371153Y-116796218D01*
X154349529Y-116806446D01*
X154327007Y-116814504D01*
X154303803Y-116820316D01*
X154280142Y-116823826D01*
X154256250Y-116825000D01*
X153343750Y-116825000D01*
X153319858Y-116823826D01*
X153296197Y-116820316D01*
X153272993Y-116814504D01*
X153250471Y-116806446D01*
X153228847Y-116796218D01*
X153208330Y-116783921D01*
X153189117Y-116769671D01*
X153171393Y-116753607D01*
X153155329Y-116735883D01*
X153141079Y-116716670D01*
X153128782Y-116696153D01*
X153118554Y-116674529D01*
X153110496Y-116652007D01*
X153104684Y-116628803D01*
X153101174Y-116605142D01*
X153100000Y-116581250D01*
X153100000Y-116093750D01*
X153101174Y-116069858D01*
X153104684Y-116046197D01*
X153110496Y-116022993D01*
X153118554Y-116000471D01*
X153128782Y-115978847D01*
X153141079Y-115958330D01*
X153155329Y-115939117D01*
X153171393Y-115921393D01*
X153189117Y-115905329D01*
X153208330Y-115891079D01*
X153228847Y-115878782D01*
X153250471Y-115868554D01*
X153272993Y-115860496D01*
X153296197Y-115854684D01*
X153319858Y-115851174D01*
X153343750Y-115850000D01*
X154256250Y-115850000D01*
X154280142Y-115851174D01*
X154280142Y-115851174D01*
G37*
D14*
X153800000Y-116337500D03*
D12*
G36*
X144180142Y-115251174D02*
X144203803Y-115254684D01*
X144227007Y-115260496D01*
X144249529Y-115268554D01*
X144271153Y-115278782D01*
X144291670Y-115291079D01*
X144310883Y-115305329D01*
X144328607Y-115321393D01*
X144344671Y-115339117D01*
X144358921Y-115358330D01*
X144371218Y-115378847D01*
X144381446Y-115400471D01*
X144389504Y-115422993D01*
X144395316Y-115446197D01*
X144398826Y-115469858D01*
X144400000Y-115493750D01*
X144400000Y-115981250D01*
X144398826Y-116005142D01*
X144395316Y-116028803D01*
X144389504Y-116052007D01*
X144381446Y-116074529D01*
X144371218Y-116096153D01*
X144358921Y-116116670D01*
X144344671Y-116135883D01*
X144328607Y-116153607D01*
X144310883Y-116169671D01*
X144291670Y-116183921D01*
X144271153Y-116196218D01*
X144249529Y-116206446D01*
X144227007Y-116214504D01*
X144203803Y-116220316D01*
X144180142Y-116223826D01*
X144156250Y-116225000D01*
X143243750Y-116225000D01*
X143219858Y-116223826D01*
X143196197Y-116220316D01*
X143172993Y-116214504D01*
X143150471Y-116206446D01*
X143128847Y-116196218D01*
X143108330Y-116183921D01*
X143089117Y-116169671D01*
X143071393Y-116153607D01*
X143055329Y-116135883D01*
X143041079Y-116116670D01*
X143028782Y-116096153D01*
X143018554Y-116074529D01*
X143010496Y-116052007D01*
X143004684Y-116028803D01*
X143001174Y-116005142D01*
X143000000Y-115981250D01*
X143000000Y-115493750D01*
X143001174Y-115469858D01*
X143004684Y-115446197D01*
X143010496Y-115422993D01*
X143018554Y-115400471D01*
X143028782Y-115378847D01*
X143041079Y-115358330D01*
X143055329Y-115339117D01*
X143071393Y-115321393D01*
X143089117Y-115305329D01*
X143108330Y-115291079D01*
X143128847Y-115278782D01*
X143150471Y-115268554D01*
X143172993Y-115260496D01*
X143196197Y-115254684D01*
X143219858Y-115251174D01*
X143243750Y-115250000D01*
X144156250Y-115250000D01*
X144180142Y-115251174D01*
X144180142Y-115251174D01*
G37*
D14*
X143700000Y-115737500D03*
D12*
G36*
X144180142Y-113376174D02*
X144203803Y-113379684D01*
X144227007Y-113385496D01*
X144249529Y-113393554D01*
X144271153Y-113403782D01*
X144291670Y-113416079D01*
X144310883Y-113430329D01*
X144328607Y-113446393D01*
X144344671Y-113464117D01*
X144358921Y-113483330D01*
X144371218Y-113503847D01*
X144381446Y-113525471D01*
X144389504Y-113547993D01*
X144395316Y-113571197D01*
X144398826Y-113594858D01*
X144400000Y-113618750D01*
X144400000Y-114106250D01*
X144398826Y-114130142D01*
X144395316Y-114153803D01*
X144389504Y-114177007D01*
X144381446Y-114199529D01*
X144371218Y-114221153D01*
X144358921Y-114241670D01*
X144344671Y-114260883D01*
X144328607Y-114278607D01*
X144310883Y-114294671D01*
X144291670Y-114308921D01*
X144271153Y-114321218D01*
X144249529Y-114331446D01*
X144227007Y-114339504D01*
X144203803Y-114345316D01*
X144180142Y-114348826D01*
X144156250Y-114350000D01*
X143243750Y-114350000D01*
X143219858Y-114348826D01*
X143196197Y-114345316D01*
X143172993Y-114339504D01*
X143150471Y-114331446D01*
X143128847Y-114321218D01*
X143108330Y-114308921D01*
X143089117Y-114294671D01*
X143071393Y-114278607D01*
X143055329Y-114260883D01*
X143041079Y-114241670D01*
X143028782Y-114221153D01*
X143018554Y-114199529D01*
X143010496Y-114177007D01*
X143004684Y-114153803D01*
X143001174Y-114130142D01*
X143000000Y-114106250D01*
X143000000Y-113618750D01*
X143001174Y-113594858D01*
X143004684Y-113571197D01*
X143010496Y-113547993D01*
X143018554Y-113525471D01*
X143028782Y-113503847D01*
X143041079Y-113483330D01*
X143055329Y-113464117D01*
X143071393Y-113446393D01*
X143089117Y-113430329D01*
X143108330Y-113416079D01*
X143128847Y-113403782D01*
X143150471Y-113393554D01*
X143172993Y-113385496D01*
X143196197Y-113379684D01*
X143219858Y-113376174D01*
X143243750Y-113375000D01*
X144156250Y-113375000D01*
X144180142Y-113376174D01*
X144180142Y-113376174D01*
G37*
D14*
X143700000Y-113862500D03*
D12*
G36*
X153280142Y-100976174D02*
X153303803Y-100979684D01*
X153327007Y-100985496D01*
X153349529Y-100993554D01*
X153371153Y-101003782D01*
X153391670Y-101016079D01*
X153410883Y-101030329D01*
X153428607Y-101046393D01*
X153444671Y-101064117D01*
X153458921Y-101083330D01*
X153471218Y-101103847D01*
X153481446Y-101125471D01*
X153489504Y-101147993D01*
X153495316Y-101171197D01*
X153498826Y-101194858D01*
X153500000Y-101218750D01*
X153500000Y-101706250D01*
X153498826Y-101730142D01*
X153495316Y-101753803D01*
X153489504Y-101777007D01*
X153481446Y-101799529D01*
X153471218Y-101821153D01*
X153458921Y-101841670D01*
X153444671Y-101860883D01*
X153428607Y-101878607D01*
X153410883Y-101894671D01*
X153391670Y-101908921D01*
X153371153Y-101921218D01*
X153349529Y-101931446D01*
X153327007Y-101939504D01*
X153303803Y-101945316D01*
X153280142Y-101948826D01*
X153256250Y-101950000D01*
X152343750Y-101950000D01*
X152319858Y-101948826D01*
X152296197Y-101945316D01*
X152272993Y-101939504D01*
X152250471Y-101931446D01*
X152228847Y-101921218D01*
X152208330Y-101908921D01*
X152189117Y-101894671D01*
X152171393Y-101878607D01*
X152155329Y-101860883D01*
X152141079Y-101841670D01*
X152128782Y-101821153D01*
X152118554Y-101799529D01*
X152110496Y-101777007D01*
X152104684Y-101753803D01*
X152101174Y-101730142D01*
X152100000Y-101706250D01*
X152100000Y-101218750D01*
X152101174Y-101194858D01*
X152104684Y-101171197D01*
X152110496Y-101147993D01*
X152118554Y-101125471D01*
X152128782Y-101103847D01*
X152141079Y-101083330D01*
X152155329Y-101064117D01*
X152171393Y-101046393D01*
X152189117Y-101030329D01*
X152208330Y-101016079D01*
X152228847Y-101003782D01*
X152250471Y-100993554D01*
X152272993Y-100985496D01*
X152296197Y-100979684D01*
X152319858Y-100976174D01*
X152343750Y-100975000D01*
X153256250Y-100975000D01*
X153280142Y-100976174D01*
X153280142Y-100976174D01*
G37*
D14*
X152800000Y-101462500D03*
D12*
G36*
X153280142Y-102851174D02*
X153303803Y-102854684D01*
X153327007Y-102860496D01*
X153349529Y-102868554D01*
X153371153Y-102878782D01*
X153391670Y-102891079D01*
X153410883Y-102905329D01*
X153428607Y-102921393D01*
X153444671Y-102939117D01*
X153458921Y-102958330D01*
X153471218Y-102978847D01*
X153481446Y-103000471D01*
X153489504Y-103022993D01*
X153495316Y-103046197D01*
X153498826Y-103069858D01*
X153500000Y-103093750D01*
X153500000Y-103581250D01*
X153498826Y-103605142D01*
X153495316Y-103628803D01*
X153489504Y-103652007D01*
X153481446Y-103674529D01*
X153471218Y-103696153D01*
X153458921Y-103716670D01*
X153444671Y-103735883D01*
X153428607Y-103753607D01*
X153410883Y-103769671D01*
X153391670Y-103783921D01*
X153371153Y-103796218D01*
X153349529Y-103806446D01*
X153327007Y-103814504D01*
X153303803Y-103820316D01*
X153280142Y-103823826D01*
X153256250Y-103825000D01*
X152343750Y-103825000D01*
X152319858Y-103823826D01*
X152296197Y-103820316D01*
X152272993Y-103814504D01*
X152250471Y-103806446D01*
X152228847Y-103796218D01*
X152208330Y-103783921D01*
X152189117Y-103769671D01*
X152171393Y-103753607D01*
X152155329Y-103735883D01*
X152141079Y-103716670D01*
X152128782Y-103696153D01*
X152118554Y-103674529D01*
X152110496Y-103652007D01*
X152104684Y-103628803D01*
X152101174Y-103605142D01*
X152100000Y-103581250D01*
X152100000Y-103093750D01*
X152101174Y-103069858D01*
X152104684Y-103046197D01*
X152110496Y-103022993D01*
X152118554Y-103000471D01*
X152128782Y-102978847D01*
X152141079Y-102958330D01*
X152155329Y-102939117D01*
X152171393Y-102921393D01*
X152189117Y-102905329D01*
X152208330Y-102891079D01*
X152228847Y-102878782D01*
X152250471Y-102868554D01*
X152272993Y-102860496D01*
X152296197Y-102854684D01*
X152319858Y-102851174D01*
X152343750Y-102850000D01*
X153256250Y-102850000D01*
X153280142Y-102851174D01*
X153280142Y-102851174D01*
G37*
D14*
X152800000Y-103337500D03*
D12*
G36*
X155280142Y-100976174D02*
X155303803Y-100979684D01*
X155327007Y-100985496D01*
X155349529Y-100993554D01*
X155371153Y-101003782D01*
X155391670Y-101016079D01*
X155410883Y-101030329D01*
X155428607Y-101046393D01*
X155444671Y-101064117D01*
X155458921Y-101083330D01*
X155471218Y-101103847D01*
X155481446Y-101125471D01*
X155489504Y-101147993D01*
X155495316Y-101171197D01*
X155498826Y-101194858D01*
X155500000Y-101218750D01*
X155500000Y-101706250D01*
X155498826Y-101730142D01*
X155495316Y-101753803D01*
X155489504Y-101777007D01*
X155481446Y-101799529D01*
X155471218Y-101821153D01*
X155458921Y-101841670D01*
X155444671Y-101860883D01*
X155428607Y-101878607D01*
X155410883Y-101894671D01*
X155391670Y-101908921D01*
X155371153Y-101921218D01*
X155349529Y-101931446D01*
X155327007Y-101939504D01*
X155303803Y-101945316D01*
X155280142Y-101948826D01*
X155256250Y-101950000D01*
X154343750Y-101950000D01*
X154319858Y-101948826D01*
X154296197Y-101945316D01*
X154272993Y-101939504D01*
X154250471Y-101931446D01*
X154228847Y-101921218D01*
X154208330Y-101908921D01*
X154189117Y-101894671D01*
X154171393Y-101878607D01*
X154155329Y-101860883D01*
X154141079Y-101841670D01*
X154128782Y-101821153D01*
X154118554Y-101799529D01*
X154110496Y-101777007D01*
X154104684Y-101753803D01*
X154101174Y-101730142D01*
X154100000Y-101706250D01*
X154100000Y-101218750D01*
X154101174Y-101194858D01*
X154104684Y-101171197D01*
X154110496Y-101147993D01*
X154118554Y-101125471D01*
X154128782Y-101103847D01*
X154141079Y-101083330D01*
X154155329Y-101064117D01*
X154171393Y-101046393D01*
X154189117Y-101030329D01*
X154208330Y-101016079D01*
X154228847Y-101003782D01*
X154250471Y-100993554D01*
X154272993Y-100985496D01*
X154296197Y-100979684D01*
X154319858Y-100976174D01*
X154343750Y-100975000D01*
X155256250Y-100975000D01*
X155280142Y-100976174D01*
X155280142Y-100976174D01*
G37*
D14*
X154800000Y-101462500D03*
D12*
G36*
X155280142Y-102851174D02*
X155303803Y-102854684D01*
X155327007Y-102860496D01*
X155349529Y-102868554D01*
X155371153Y-102878782D01*
X155391670Y-102891079D01*
X155410883Y-102905329D01*
X155428607Y-102921393D01*
X155444671Y-102939117D01*
X155458921Y-102958330D01*
X155471218Y-102978847D01*
X155481446Y-103000471D01*
X155489504Y-103022993D01*
X155495316Y-103046197D01*
X155498826Y-103069858D01*
X155500000Y-103093750D01*
X155500000Y-103581250D01*
X155498826Y-103605142D01*
X155495316Y-103628803D01*
X155489504Y-103652007D01*
X155481446Y-103674529D01*
X155471218Y-103696153D01*
X155458921Y-103716670D01*
X155444671Y-103735883D01*
X155428607Y-103753607D01*
X155410883Y-103769671D01*
X155391670Y-103783921D01*
X155371153Y-103796218D01*
X155349529Y-103806446D01*
X155327007Y-103814504D01*
X155303803Y-103820316D01*
X155280142Y-103823826D01*
X155256250Y-103825000D01*
X154343750Y-103825000D01*
X154319858Y-103823826D01*
X154296197Y-103820316D01*
X154272993Y-103814504D01*
X154250471Y-103806446D01*
X154228847Y-103796218D01*
X154208330Y-103783921D01*
X154189117Y-103769671D01*
X154171393Y-103753607D01*
X154155329Y-103735883D01*
X154141079Y-103716670D01*
X154128782Y-103696153D01*
X154118554Y-103674529D01*
X154110496Y-103652007D01*
X154104684Y-103628803D01*
X154101174Y-103605142D01*
X154100000Y-103581250D01*
X154100000Y-103093750D01*
X154101174Y-103069858D01*
X154104684Y-103046197D01*
X154110496Y-103022993D01*
X154118554Y-103000471D01*
X154128782Y-102978847D01*
X154141079Y-102958330D01*
X154155329Y-102939117D01*
X154171393Y-102921393D01*
X154189117Y-102905329D01*
X154208330Y-102891079D01*
X154228847Y-102878782D01*
X154250471Y-102868554D01*
X154272993Y-102860496D01*
X154296197Y-102854684D01*
X154319858Y-102851174D01*
X154343750Y-102850000D01*
X155256250Y-102850000D01*
X155280142Y-102851174D01*
X155280142Y-102851174D01*
G37*
D14*
X154800000Y-103337500D03*
D16*
X153020000Y-107500000D03*
X152620000Y-107500000D03*
X152220000Y-107500000D03*
X151820000Y-107500000D03*
X151420000Y-107500000D03*
X151020000Y-107500000D03*
X150620000Y-107500000D03*
X150220000Y-107500000D03*
X149820000Y-107500000D03*
X149420000Y-107500000D03*
X149020000Y-107500000D03*
X148620000Y-107500000D03*
D17*
X147960000Y-108160000D03*
X147960000Y-108560000D03*
X147960000Y-108960000D03*
X147960000Y-109360000D03*
X147960000Y-109760000D03*
X147960000Y-110160000D03*
X147960000Y-110560000D03*
X147960000Y-110960000D03*
X147960000Y-111360000D03*
X147960000Y-111760000D03*
X147960000Y-112160000D03*
X147960000Y-112560000D03*
D16*
X148620000Y-113220000D03*
X149020000Y-113220000D03*
X149420000Y-113220000D03*
X149820000Y-113220000D03*
X150220000Y-113220000D03*
X150620000Y-113220000D03*
X151020000Y-113220000D03*
X151420000Y-113220000D03*
X151820000Y-113220000D03*
X152220000Y-113220000D03*
X152620000Y-113220000D03*
X153020000Y-113220000D03*
D17*
X153680000Y-112560000D03*
X153680000Y-112160000D03*
X153680000Y-111760000D03*
X153680000Y-111360000D03*
X153680000Y-110960000D03*
X153680000Y-110560000D03*
X153680000Y-110160000D03*
X153680000Y-109760000D03*
X153680000Y-109360000D03*
X153680000Y-108960000D03*
X153680000Y-108560000D03*
X153680000Y-108160000D03*
D18*
X150820000Y-110360000D03*
D19*
X145800000Y-108950000D03*
X144400000Y-108950000D03*
X144400000Y-107850000D03*
X145800000Y-107850000D03*
D20*
X157200000Y-109500000D03*
X157200000Y-107000000D03*
D21*
X141291601Y-125498001D03*
D12*
G36*
X141560992Y-125936668D02*
X141061468Y-125958478D01*
X141022210Y-125059334D01*
X141521734Y-125037524D01*
X141560992Y-125936668D01*
X141560992Y-125936668D01*
G37*
G36*
X146580142Y-119376174D02*
X146603803Y-119379684D01*
X146627007Y-119385496D01*
X146649529Y-119393554D01*
X146671153Y-119403782D01*
X146691670Y-119416079D01*
X146710883Y-119430329D01*
X146728607Y-119446393D01*
X146744671Y-119464117D01*
X146758921Y-119483330D01*
X146771218Y-119503847D01*
X146781446Y-119525471D01*
X146789504Y-119547993D01*
X146795316Y-119571197D01*
X146798826Y-119594858D01*
X146800000Y-119618750D01*
X146800000Y-120106250D01*
X146798826Y-120130142D01*
X146795316Y-120153803D01*
X146789504Y-120177007D01*
X146781446Y-120199529D01*
X146771218Y-120221153D01*
X146758921Y-120241670D01*
X146744671Y-120260883D01*
X146728607Y-120278607D01*
X146710883Y-120294671D01*
X146691670Y-120308921D01*
X146671153Y-120321218D01*
X146649529Y-120331446D01*
X146627007Y-120339504D01*
X146603803Y-120345316D01*
X146580142Y-120348826D01*
X146556250Y-120350000D01*
X145643750Y-120350000D01*
X145619858Y-120348826D01*
X145596197Y-120345316D01*
X145572993Y-120339504D01*
X145550471Y-120331446D01*
X145528847Y-120321218D01*
X145508330Y-120308921D01*
X145489117Y-120294671D01*
X145471393Y-120278607D01*
X145455329Y-120260883D01*
X145441079Y-120241670D01*
X145428782Y-120221153D01*
X145418554Y-120199529D01*
X145410496Y-120177007D01*
X145404684Y-120153803D01*
X145401174Y-120130142D01*
X145400000Y-120106250D01*
X145400000Y-119618750D01*
X145401174Y-119594858D01*
X145404684Y-119571197D01*
X145410496Y-119547993D01*
X145418554Y-119525471D01*
X145428782Y-119503847D01*
X145441079Y-119483330D01*
X145455329Y-119464117D01*
X145471393Y-119446393D01*
X145489117Y-119430329D01*
X145508330Y-119416079D01*
X145528847Y-119403782D01*
X145550471Y-119393554D01*
X145572993Y-119385496D01*
X145596197Y-119379684D01*
X145619858Y-119376174D01*
X145643750Y-119375000D01*
X146556250Y-119375000D01*
X146580142Y-119376174D01*
X146580142Y-119376174D01*
G37*
D14*
X146100000Y-119862500D03*
D12*
G36*
X146580142Y-121251174D02*
X146603803Y-121254684D01*
X146627007Y-121260496D01*
X146649529Y-121268554D01*
X146671153Y-121278782D01*
X146691670Y-121291079D01*
X146710883Y-121305329D01*
X146728607Y-121321393D01*
X146744671Y-121339117D01*
X146758921Y-121358330D01*
X146771218Y-121378847D01*
X146781446Y-121400471D01*
X146789504Y-121422993D01*
X146795316Y-121446197D01*
X146798826Y-121469858D01*
X146800000Y-121493750D01*
X146800000Y-121981250D01*
X146798826Y-122005142D01*
X146795316Y-122028803D01*
X146789504Y-122052007D01*
X146781446Y-122074529D01*
X146771218Y-122096153D01*
X146758921Y-122116670D01*
X146744671Y-122135883D01*
X146728607Y-122153607D01*
X146710883Y-122169671D01*
X146691670Y-122183921D01*
X146671153Y-122196218D01*
X146649529Y-122206446D01*
X146627007Y-122214504D01*
X146603803Y-122220316D01*
X146580142Y-122223826D01*
X146556250Y-122225000D01*
X145643750Y-122225000D01*
X145619858Y-122223826D01*
X145596197Y-122220316D01*
X145572993Y-122214504D01*
X145550471Y-122206446D01*
X145528847Y-122196218D01*
X145508330Y-122183921D01*
X145489117Y-122169671D01*
X145471393Y-122153607D01*
X145455329Y-122135883D01*
X145441079Y-122116670D01*
X145428782Y-122096153D01*
X145418554Y-122074529D01*
X145410496Y-122052007D01*
X145404684Y-122028803D01*
X145401174Y-122005142D01*
X145400000Y-121981250D01*
X145400000Y-121493750D01*
X145401174Y-121469858D01*
X145404684Y-121446197D01*
X145410496Y-121422993D01*
X145418554Y-121400471D01*
X145428782Y-121378847D01*
X145441079Y-121358330D01*
X145455329Y-121339117D01*
X145471393Y-121321393D01*
X145489117Y-121305329D01*
X145508330Y-121291079D01*
X145528847Y-121278782D01*
X145550471Y-121268554D01*
X145572993Y-121260496D01*
X145596197Y-121254684D01*
X145619858Y-121251174D01*
X145643750Y-121250000D01*
X146556250Y-121250000D01*
X146580142Y-121251174D01*
X146580142Y-121251174D01*
G37*
D14*
X146100000Y-121737500D03*
D12*
G36*
X144180142Y-119351174D02*
X144203803Y-119354684D01*
X144227007Y-119360496D01*
X144249529Y-119368554D01*
X144271153Y-119378782D01*
X144291670Y-119391079D01*
X144310883Y-119405329D01*
X144328607Y-119421393D01*
X144344671Y-119439117D01*
X144358921Y-119458330D01*
X144371218Y-119478847D01*
X144381446Y-119500471D01*
X144389504Y-119522993D01*
X144395316Y-119546197D01*
X144398826Y-119569858D01*
X144400000Y-119593750D01*
X144400000Y-120081250D01*
X144398826Y-120105142D01*
X144395316Y-120128803D01*
X144389504Y-120152007D01*
X144381446Y-120174529D01*
X144371218Y-120196153D01*
X144358921Y-120216670D01*
X144344671Y-120235883D01*
X144328607Y-120253607D01*
X144310883Y-120269671D01*
X144291670Y-120283921D01*
X144271153Y-120296218D01*
X144249529Y-120306446D01*
X144227007Y-120314504D01*
X144203803Y-120320316D01*
X144180142Y-120323826D01*
X144156250Y-120325000D01*
X143243750Y-120325000D01*
X143219858Y-120323826D01*
X143196197Y-120320316D01*
X143172993Y-120314504D01*
X143150471Y-120306446D01*
X143128847Y-120296218D01*
X143108330Y-120283921D01*
X143089117Y-120269671D01*
X143071393Y-120253607D01*
X143055329Y-120235883D01*
X143041079Y-120216670D01*
X143028782Y-120196153D01*
X143018554Y-120174529D01*
X143010496Y-120152007D01*
X143004684Y-120128803D01*
X143001174Y-120105142D01*
X143000000Y-120081250D01*
X143000000Y-119593750D01*
X143001174Y-119569858D01*
X143004684Y-119546197D01*
X143010496Y-119522993D01*
X143018554Y-119500471D01*
X143028782Y-119478847D01*
X143041079Y-119458330D01*
X143055329Y-119439117D01*
X143071393Y-119421393D01*
X143089117Y-119405329D01*
X143108330Y-119391079D01*
X143128847Y-119378782D01*
X143150471Y-119368554D01*
X143172993Y-119360496D01*
X143196197Y-119354684D01*
X143219858Y-119351174D01*
X143243750Y-119350000D01*
X144156250Y-119350000D01*
X144180142Y-119351174D01*
X144180142Y-119351174D01*
G37*
D14*
X143700000Y-119837500D03*
D12*
G36*
X144180142Y-117476174D02*
X144203803Y-117479684D01*
X144227007Y-117485496D01*
X144249529Y-117493554D01*
X144271153Y-117503782D01*
X144291670Y-117516079D01*
X144310883Y-117530329D01*
X144328607Y-117546393D01*
X144344671Y-117564117D01*
X144358921Y-117583330D01*
X144371218Y-117603847D01*
X144381446Y-117625471D01*
X144389504Y-117647993D01*
X144395316Y-117671197D01*
X144398826Y-117694858D01*
X144400000Y-117718750D01*
X144400000Y-118206250D01*
X144398826Y-118230142D01*
X144395316Y-118253803D01*
X144389504Y-118277007D01*
X144381446Y-118299529D01*
X144371218Y-118321153D01*
X144358921Y-118341670D01*
X144344671Y-118360883D01*
X144328607Y-118378607D01*
X144310883Y-118394671D01*
X144291670Y-118408921D01*
X144271153Y-118421218D01*
X144249529Y-118431446D01*
X144227007Y-118439504D01*
X144203803Y-118445316D01*
X144180142Y-118448826D01*
X144156250Y-118450000D01*
X143243750Y-118450000D01*
X143219858Y-118448826D01*
X143196197Y-118445316D01*
X143172993Y-118439504D01*
X143150471Y-118431446D01*
X143128847Y-118421218D01*
X143108330Y-118408921D01*
X143089117Y-118394671D01*
X143071393Y-118378607D01*
X143055329Y-118360883D01*
X143041079Y-118341670D01*
X143028782Y-118321153D01*
X143018554Y-118299529D01*
X143010496Y-118277007D01*
X143004684Y-118253803D01*
X143001174Y-118230142D01*
X143000000Y-118206250D01*
X143000000Y-117718750D01*
X143001174Y-117694858D01*
X143004684Y-117671197D01*
X143010496Y-117647993D01*
X143018554Y-117625471D01*
X143028782Y-117603847D01*
X143041079Y-117583330D01*
X143055329Y-117564117D01*
X143071393Y-117546393D01*
X143089117Y-117530329D01*
X143108330Y-117516079D01*
X143128847Y-117503782D01*
X143150471Y-117493554D01*
X143172993Y-117485496D01*
X143196197Y-117479684D01*
X143219858Y-117476174D01*
X143243750Y-117475000D01*
X144156250Y-117475000D01*
X144180142Y-117476174D01*
X144180142Y-117476174D01*
G37*
D14*
X143700000Y-117962500D03*
D12*
G36*
X161730142Y-113263674D02*
X161753803Y-113267184D01*
X161777007Y-113272996D01*
X161799529Y-113281054D01*
X161821153Y-113291282D01*
X161841670Y-113303579D01*
X161860883Y-113317829D01*
X161878607Y-113333893D01*
X161894671Y-113351617D01*
X161908921Y-113370830D01*
X161921218Y-113391347D01*
X161931446Y-113412971D01*
X161939504Y-113435493D01*
X161945316Y-113458697D01*
X161948826Y-113482358D01*
X161950000Y-113506250D01*
X161950000Y-113993750D01*
X161948826Y-114017642D01*
X161945316Y-114041303D01*
X161939504Y-114064507D01*
X161931446Y-114087029D01*
X161921218Y-114108653D01*
X161908921Y-114129170D01*
X161894671Y-114148383D01*
X161878607Y-114166107D01*
X161860883Y-114182171D01*
X161841670Y-114196421D01*
X161821153Y-114208718D01*
X161799529Y-114218946D01*
X161777007Y-114227004D01*
X161753803Y-114232816D01*
X161730142Y-114236326D01*
X161706250Y-114237500D01*
X160793750Y-114237500D01*
X160769858Y-114236326D01*
X160746197Y-114232816D01*
X160722993Y-114227004D01*
X160700471Y-114218946D01*
X160678847Y-114208718D01*
X160658330Y-114196421D01*
X160639117Y-114182171D01*
X160621393Y-114166107D01*
X160605329Y-114148383D01*
X160591079Y-114129170D01*
X160578782Y-114108653D01*
X160568554Y-114087029D01*
X160560496Y-114064507D01*
X160554684Y-114041303D01*
X160551174Y-114017642D01*
X160550000Y-113993750D01*
X160550000Y-113506250D01*
X160551174Y-113482358D01*
X160554684Y-113458697D01*
X160560496Y-113435493D01*
X160568554Y-113412971D01*
X160578782Y-113391347D01*
X160591079Y-113370830D01*
X160605329Y-113351617D01*
X160621393Y-113333893D01*
X160639117Y-113317829D01*
X160658330Y-113303579D01*
X160678847Y-113291282D01*
X160700471Y-113281054D01*
X160722993Y-113272996D01*
X160746197Y-113267184D01*
X160769858Y-113263674D01*
X160793750Y-113262500D01*
X161706250Y-113262500D01*
X161730142Y-113263674D01*
X161730142Y-113263674D01*
G37*
D14*
X161250000Y-113750000D03*
D12*
G36*
X161730142Y-115138674D02*
X161753803Y-115142184D01*
X161777007Y-115147996D01*
X161799529Y-115156054D01*
X161821153Y-115166282D01*
X161841670Y-115178579D01*
X161860883Y-115192829D01*
X161878607Y-115208893D01*
X161894671Y-115226617D01*
X161908921Y-115245830D01*
X161921218Y-115266347D01*
X161931446Y-115287971D01*
X161939504Y-115310493D01*
X161945316Y-115333697D01*
X161948826Y-115357358D01*
X161950000Y-115381250D01*
X161950000Y-115868750D01*
X161948826Y-115892642D01*
X161945316Y-115916303D01*
X161939504Y-115939507D01*
X161931446Y-115962029D01*
X161921218Y-115983653D01*
X161908921Y-116004170D01*
X161894671Y-116023383D01*
X161878607Y-116041107D01*
X161860883Y-116057171D01*
X161841670Y-116071421D01*
X161821153Y-116083718D01*
X161799529Y-116093946D01*
X161777007Y-116102004D01*
X161753803Y-116107816D01*
X161730142Y-116111326D01*
X161706250Y-116112500D01*
X160793750Y-116112500D01*
X160769858Y-116111326D01*
X160746197Y-116107816D01*
X160722993Y-116102004D01*
X160700471Y-116093946D01*
X160678847Y-116083718D01*
X160658330Y-116071421D01*
X160639117Y-116057171D01*
X160621393Y-116041107D01*
X160605329Y-116023383D01*
X160591079Y-116004170D01*
X160578782Y-115983653D01*
X160568554Y-115962029D01*
X160560496Y-115939507D01*
X160554684Y-115916303D01*
X160551174Y-115892642D01*
X160550000Y-115868750D01*
X160550000Y-115381250D01*
X160551174Y-115357358D01*
X160554684Y-115333697D01*
X160560496Y-115310493D01*
X160568554Y-115287971D01*
X160578782Y-115266347D01*
X160591079Y-115245830D01*
X160605329Y-115226617D01*
X160621393Y-115208893D01*
X160639117Y-115192829D01*
X160658330Y-115178579D01*
X160678847Y-115166282D01*
X160700471Y-115156054D01*
X160722993Y-115147996D01*
X160746197Y-115142184D01*
X160769858Y-115138674D01*
X160793750Y-115137500D01*
X161706250Y-115137500D01*
X161730142Y-115138674D01*
X161730142Y-115138674D01*
G37*
D14*
X161250000Y-115625000D03*
D12*
G36*
X156230142Y-116388674D02*
X156253803Y-116392184D01*
X156277007Y-116397996D01*
X156299529Y-116406054D01*
X156321153Y-116416282D01*
X156341670Y-116428579D01*
X156360883Y-116442829D01*
X156378607Y-116458893D01*
X156394671Y-116476617D01*
X156408921Y-116495830D01*
X156421218Y-116516347D01*
X156431446Y-116537971D01*
X156439504Y-116560493D01*
X156445316Y-116583697D01*
X156448826Y-116607358D01*
X156450000Y-116631250D01*
X156450000Y-117118750D01*
X156448826Y-117142642D01*
X156445316Y-117166303D01*
X156439504Y-117189507D01*
X156431446Y-117212029D01*
X156421218Y-117233653D01*
X156408921Y-117254170D01*
X156394671Y-117273383D01*
X156378607Y-117291107D01*
X156360883Y-117307171D01*
X156341670Y-117321421D01*
X156321153Y-117333718D01*
X156299529Y-117343946D01*
X156277007Y-117352004D01*
X156253803Y-117357816D01*
X156230142Y-117361326D01*
X156206250Y-117362500D01*
X155293750Y-117362500D01*
X155269858Y-117361326D01*
X155246197Y-117357816D01*
X155222993Y-117352004D01*
X155200471Y-117343946D01*
X155178847Y-117333718D01*
X155158330Y-117321421D01*
X155139117Y-117307171D01*
X155121393Y-117291107D01*
X155105329Y-117273383D01*
X155091079Y-117254170D01*
X155078782Y-117233653D01*
X155068554Y-117212029D01*
X155060496Y-117189507D01*
X155054684Y-117166303D01*
X155051174Y-117142642D01*
X155050000Y-117118750D01*
X155050000Y-116631250D01*
X155051174Y-116607358D01*
X155054684Y-116583697D01*
X155060496Y-116560493D01*
X155068554Y-116537971D01*
X155078782Y-116516347D01*
X155091079Y-116495830D01*
X155105329Y-116476617D01*
X155121393Y-116458893D01*
X155139117Y-116442829D01*
X155158330Y-116428579D01*
X155178847Y-116416282D01*
X155200471Y-116406054D01*
X155222993Y-116397996D01*
X155246197Y-116392184D01*
X155269858Y-116388674D01*
X155293750Y-116387500D01*
X156206250Y-116387500D01*
X156230142Y-116388674D01*
X156230142Y-116388674D01*
G37*
D14*
X155750000Y-116875000D03*
D12*
G36*
X156230142Y-118263674D02*
X156253803Y-118267184D01*
X156277007Y-118272996D01*
X156299529Y-118281054D01*
X156321153Y-118291282D01*
X156341670Y-118303579D01*
X156360883Y-118317829D01*
X156378607Y-118333893D01*
X156394671Y-118351617D01*
X156408921Y-118370830D01*
X156421218Y-118391347D01*
X156431446Y-118412971D01*
X156439504Y-118435493D01*
X156445316Y-118458697D01*
X156448826Y-118482358D01*
X156450000Y-118506250D01*
X156450000Y-118993750D01*
X156448826Y-119017642D01*
X156445316Y-119041303D01*
X156439504Y-119064507D01*
X156431446Y-119087029D01*
X156421218Y-119108653D01*
X156408921Y-119129170D01*
X156394671Y-119148383D01*
X156378607Y-119166107D01*
X156360883Y-119182171D01*
X156341670Y-119196421D01*
X156321153Y-119208718D01*
X156299529Y-119218946D01*
X156277007Y-119227004D01*
X156253803Y-119232816D01*
X156230142Y-119236326D01*
X156206250Y-119237500D01*
X155293750Y-119237500D01*
X155269858Y-119236326D01*
X155246197Y-119232816D01*
X155222993Y-119227004D01*
X155200471Y-119218946D01*
X155178847Y-119208718D01*
X155158330Y-119196421D01*
X155139117Y-119182171D01*
X155121393Y-119166107D01*
X155105329Y-119148383D01*
X155091079Y-119129170D01*
X155078782Y-119108653D01*
X155068554Y-119087029D01*
X155060496Y-119064507D01*
X155054684Y-119041303D01*
X155051174Y-119017642D01*
X155050000Y-118993750D01*
X155050000Y-118506250D01*
X155051174Y-118482358D01*
X155054684Y-118458697D01*
X155060496Y-118435493D01*
X155068554Y-118412971D01*
X155078782Y-118391347D01*
X155091079Y-118370830D01*
X155105329Y-118351617D01*
X155121393Y-118333893D01*
X155139117Y-118317829D01*
X155158330Y-118303579D01*
X155178847Y-118291282D01*
X155200471Y-118281054D01*
X155222993Y-118272996D01*
X155246197Y-118267184D01*
X155269858Y-118263674D01*
X155293750Y-118262500D01*
X156206250Y-118262500D01*
X156230142Y-118263674D01*
X156230142Y-118263674D01*
G37*
D14*
X155750000Y-118750000D03*
D12*
G36*
X146181140Y-95809290D02*
X146204824Y-95812644D01*
X146228065Y-95818305D01*
X146250639Y-95826216D01*
X146272330Y-95836301D01*
X146292927Y-95848464D01*
X146312233Y-95862588D01*
X147021379Y-96436843D01*
X147039208Y-96452790D01*
X147055387Y-96470409D01*
X147069762Y-96489528D01*
X147082194Y-96509965D01*
X147092562Y-96531521D01*
X147100768Y-96553990D01*
X147106732Y-96577155D01*
X147110397Y-96600793D01*
X147111727Y-96624677D01*
X147110709Y-96648575D01*
X147107355Y-96672260D01*
X147101694Y-96695501D01*
X147093783Y-96718075D01*
X147083698Y-96739766D01*
X147071535Y-96760363D01*
X147057411Y-96779669D01*
X146750617Y-97158528D01*
X146734670Y-97176357D01*
X146717051Y-97192536D01*
X146697932Y-97206911D01*
X146677495Y-97219343D01*
X146655939Y-97229711D01*
X146633470Y-97237917D01*
X146610305Y-97243881D01*
X146586667Y-97247546D01*
X146562783Y-97248876D01*
X146538884Y-97247858D01*
X146515200Y-97244504D01*
X146491959Y-97238843D01*
X146469385Y-97230932D01*
X146447694Y-97220847D01*
X146427097Y-97208684D01*
X146407791Y-97194560D01*
X145698645Y-96620305D01*
X145680816Y-96604358D01*
X145664637Y-96586739D01*
X145650262Y-96567620D01*
X145637830Y-96547183D01*
X145627462Y-96525627D01*
X145619256Y-96503158D01*
X145613292Y-96479993D01*
X145609627Y-96456355D01*
X145608297Y-96432471D01*
X145609315Y-96408573D01*
X145612669Y-96384888D01*
X145618330Y-96361647D01*
X145626241Y-96339073D01*
X145636326Y-96317382D01*
X145648489Y-96296785D01*
X145662613Y-96277479D01*
X145969407Y-95898620D01*
X145985354Y-95880791D01*
X146002973Y-95864612D01*
X146022092Y-95850237D01*
X146042529Y-95837805D01*
X146064085Y-95827437D01*
X146086554Y-95819231D01*
X146109719Y-95813267D01*
X146133357Y-95809602D01*
X146157241Y-95808272D01*
X146181140Y-95809290D01*
X146181140Y-95809290D01*
G37*
D14*
X146360012Y-96528574D03*
D12*
G36*
X147361116Y-94352142D02*
X147384800Y-94355496D01*
X147408041Y-94361157D01*
X147430615Y-94369068D01*
X147452306Y-94379153D01*
X147472903Y-94391316D01*
X147492209Y-94405440D01*
X148201355Y-94979695D01*
X148219184Y-94995642D01*
X148235363Y-95013261D01*
X148249738Y-95032380D01*
X148262170Y-95052817D01*
X148272538Y-95074373D01*
X148280744Y-95096842D01*
X148286708Y-95120007D01*
X148290373Y-95143645D01*
X148291703Y-95167529D01*
X148290685Y-95191427D01*
X148287331Y-95215112D01*
X148281670Y-95238353D01*
X148273759Y-95260927D01*
X148263674Y-95282618D01*
X148251511Y-95303215D01*
X148237387Y-95322521D01*
X147930593Y-95701380D01*
X147914646Y-95719209D01*
X147897027Y-95735388D01*
X147877908Y-95749763D01*
X147857471Y-95762195D01*
X147835915Y-95772563D01*
X147813446Y-95780769D01*
X147790281Y-95786733D01*
X147766643Y-95790398D01*
X147742759Y-95791728D01*
X147718860Y-95790710D01*
X147695176Y-95787356D01*
X147671935Y-95781695D01*
X147649361Y-95773784D01*
X147627670Y-95763699D01*
X147607073Y-95751536D01*
X147587767Y-95737412D01*
X146878621Y-95163157D01*
X146860792Y-95147210D01*
X146844613Y-95129591D01*
X146830238Y-95110472D01*
X146817806Y-95090035D01*
X146807438Y-95068479D01*
X146799232Y-95046010D01*
X146793268Y-95022845D01*
X146789603Y-94999207D01*
X146788273Y-94975323D01*
X146789291Y-94951425D01*
X146792645Y-94927740D01*
X146798306Y-94904499D01*
X146806217Y-94881925D01*
X146816302Y-94860234D01*
X146828465Y-94839637D01*
X146842589Y-94820331D01*
X147149383Y-94441472D01*
X147165330Y-94423643D01*
X147182949Y-94407464D01*
X147202068Y-94393089D01*
X147222505Y-94380657D01*
X147244061Y-94370289D01*
X147266530Y-94362083D01*
X147289695Y-94356119D01*
X147313333Y-94352454D01*
X147337217Y-94351124D01*
X147361116Y-94352142D01*
X147361116Y-94352142D01*
G37*
D14*
X147539988Y-95071426D03*
D12*
G36*
X179780142Y-139901174D02*
X179803803Y-139904684D01*
X179827007Y-139910496D01*
X179849529Y-139918554D01*
X179871153Y-139928782D01*
X179891670Y-139941079D01*
X179910883Y-139955329D01*
X179928607Y-139971393D01*
X179944671Y-139989117D01*
X179958921Y-140008330D01*
X179971218Y-140028847D01*
X179981446Y-140050471D01*
X179989504Y-140072993D01*
X179995316Y-140096197D01*
X179998826Y-140119858D01*
X180000000Y-140143750D01*
X180000000Y-141056250D01*
X179998826Y-141080142D01*
X179995316Y-141103803D01*
X179989504Y-141127007D01*
X179981446Y-141149529D01*
X179971218Y-141171153D01*
X179958921Y-141191670D01*
X179944671Y-141210883D01*
X179928607Y-141228607D01*
X179910883Y-141244671D01*
X179891670Y-141258921D01*
X179871153Y-141271218D01*
X179849529Y-141281446D01*
X179827007Y-141289504D01*
X179803803Y-141295316D01*
X179780142Y-141298826D01*
X179756250Y-141300000D01*
X179268750Y-141300000D01*
X179244858Y-141298826D01*
X179221197Y-141295316D01*
X179197993Y-141289504D01*
X179175471Y-141281446D01*
X179153847Y-141271218D01*
X179133330Y-141258921D01*
X179114117Y-141244671D01*
X179096393Y-141228607D01*
X179080329Y-141210883D01*
X179066079Y-141191670D01*
X179053782Y-141171153D01*
X179043554Y-141149529D01*
X179035496Y-141127007D01*
X179029684Y-141103803D01*
X179026174Y-141080142D01*
X179025000Y-141056250D01*
X179025000Y-140143750D01*
X179026174Y-140119858D01*
X179029684Y-140096197D01*
X179035496Y-140072993D01*
X179043554Y-140050471D01*
X179053782Y-140028847D01*
X179066079Y-140008330D01*
X179080329Y-139989117D01*
X179096393Y-139971393D01*
X179114117Y-139955329D01*
X179133330Y-139941079D01*
X179153847Y-139928782D01*
X179175471Y-139918554D01*
X179197993Y-139910496D01*
X179221197Y-139904684D01*
X179244858Y-139901174D01*
X179268750Y-139900000D01*
X179756250Y-139900000D01*
X179780142Y-139901174D01*
X179780142Y-139901174D01*
G37*
D14*
X179512500Y-140600000D03*
D12*
G36*
X181655142Y-139901174D02*
X181678803Y-139904684D01*
X181702007Y-139910496D01*
X181724529Y-139918554D01*
X181746153Y-139928782D01*
X181766670Y-139941079D01*
X181785883Y-139955329D01*
X181803607Y-139971393D01*
X181819671Y-139989117D01*
X181833921Y-140008330D01*
X181846218Y-140028847D01*
X181856446Y-140050471D01*
X181864504Y-140072993D01*
X181870316Y-140096197D01*
X181873826Y-140119858D01*
X181875000Y-140143750D01*
X181875000Y-141056250D01*
X181873826Y-141080142D01*
X181870316Y-141103803D01*
X181864504Y-141127007D01*
X181856446Y-141149529D01*
X181846218Y-141171153D01*
X181833921Y-141191670D01*
X181819671Y-141210883D01*
X181803607Y-141228607D01*
X181785883Y-141244671D01*
X181766670Y-141258921D01*
X181746153Y-141271218D01*
X181724529Y-141281446D01*
X181702007Y-141289504D01*
X181678803Y-141295316D01*
X181655142Y-141298826D01*
X181631250Y-141300000D01*
X181143750Y-141300000D01*
X181119858Y-141298826D01*
X181096197Y-141295316D01*
X181072993Y-141289504D01*
X181050471Y-141281446D01*
X181028847Y-141271218D01*
X181008330Y-141258921D01*
X180989117Y-141244671D01*
X180971393Y-141228607D01*
X180955329Y-141210883D01*
X180941079Y-141191670D01*
X180928782Y-141171153D01*
X180918554Y-141149529D01*
X180910496Y-141127007D01*
X180904684Y-141103803D01*
X180901174Y-141080142D01*
X180900000Y-141056250D01*
X180900000Y-140143750D01*
X180901174Y-140119858D01*
X180904684Y-140096197D01*
X180910496Y-140072993D01*
X180918554Y-140050471D01*
X180928782Y-140028847D01*
X180941079Y-140008330D01*
X180955329Y-139989117D01*
X180971393Y-139971393D01*
X180989117Y-139955329D01*
X181008330Y-139941079D01*
X181028847Y-139928782D01*
X181050471Y-139918554D01*
X181072993Y-139910496D01*
X181096197Y-139904684D01*
X181119858Y-139901174D01*
X181143750Y-139900000D01*
X181631250Y-139900000D01*
X181655142Y-139901174D01*
X181655142Y-139901174D01*
G37*
D14*
X181387500Y-140600000D03*
D12*
G36*
X178980142Y-134401174D02*
X179003803Y-134404684D01*
X179027007Y-134410496D01*
X179049529Y-134418554D01*
X179071153Y-134428782D01*
X179091670Y-134441079D01*
X179110883Y-134455329D01*
X179128607Y-134471393D01*
X179144671Y-134489117D01*
X179158921Y-134508330D01*
X179171218Y-134528847D01*
X179181446Y-134550471D01*
X179189504Y-134572993D01*
X179195316Y-134596197D01*
X179198826Y-134619858D01*
X179200000Y-134643750D01*
X179200000Y-135556250D01*
X179198826Y-135580142D01*
X179195316Y-135603803D01*
X179189504Y-135627007D01*
X179181446Y-135649529D01*
X179171218Y-135671153D01*
X179158921Y-135691670D01*
X179144671Y-135710883D01*
X179128607Y-135728607D01*
X179110883Y-135744671D01*
X179091670Y-135758921D01*
X179071153Y-135771218D01*
X179049529Y-135781446D01*
X179027007Y-135789504D01*
X179003803Y-135795316D01*
X178980142Y-135798826D01*
X178956250Y-135800000D01*
X178468750Y-135800000D01*
X178444858Y-135798826D01*
X178421197Y-135795316D01*
X178397993Y-135789504D01*
X178375471Y-135781446D01*
X178353847Y-135771218D01*
X178333330Y-135758921D01*
X178314117Y-135744671D01*
X178296393Y-135728607D01*
X178280329Y-135710883D01*
X178266079Y-135691670D01*
X178253782Y-135671153D01*
X178243554Y-135649529D01*
X178235496Y-135627007D01*
X178229684Y-135603803D01*
X178226174Y-135580142D01*
X178225000Y-135556250D01*
X178225000Y-134643750D01*
X178226174Y-134619858D01*
X178229684Y-134596197D01*
X178235496Y-134572993D01*
X178243554Y-134550471D01*
X178253782Y-134528847D01*
X178266079Y-134508330D01*
X178280329Y-134489117D01*
X178296393Y-134471393D01*
X178314117Y-134455329D01*
X178333330Y-134441079D01*
X178353847Y-134428782D01*
X178375471Y-134418554D01*
X178397993Y-134410496D01*
X178421197Y-134404684D01*
X178444858Y-134401174D01*
X178468750Y-134400000D01*
X178956250Y-134400000D01*
X178980142Y-134401174D01*
X178980142Y-134401174D01*
G37*
D14*
X178712500Y-135100000D03*
D12*
G36*
X180855142Y-134401174D02*
X180878803Y-134404684D01*
X180902007Y-134410496D01*
X180924529Y-134418554D01*
X180946153Y-134428782D01*
X180966670Y-134441079D01*
X180985883Y-134455329D01*
X181003607Y-134471393D01*
X181019671Y-134489117D01*
X181033921Y-134508330D01*
X181046218Y-134528847D01*
X181056446Y-134550471D01*
X181064504Y-134572993D01*
X181070316Y-134596197D01*
X181073826Y-134619858D01*
X181075000Y-134643750D01*
X181075000Y-135556250D01*
X181073826Y-135580142D01*
X181070316Y-135603803D01*
X181064504Y-135627007D01*
X181056446Y-135649529D01*
X181046218Y-135671153D01*
X181033921Y-135691670D01*
X181019671Y-135710883D01*
X181003607Y-135728607D01*
X180985883Y-135744671D01*
X180966670Y-135758921D01*
X180946153Y-135771218D01*
X180924529Y-135781446D01*
X180902007Y-135789504D01*
X180878803Y-135795316D01*
X180855142Y-135798826D01*
X180831250Y-135800000D01*
X180343750Y-135800000D01*
X180319858Y-135798826D01*
X180296197Y-135795316D01*
X180272993Y-135789504D01*
X180250471Y-135781446D01*
X180228847Y-135771218D01*
X180208330Y-135758921D01*
X180189117Y-135744671D01*
X180171393Y-135728607D01*
X180155329Y-135710883D01*
X180141079Y-135691670D01*
X180128782Y-135671153D01*
X180118554Y-135649529D01*
X180110496Y-135627007D01*
X180104684Y-135603803D01*
X180101174Y-135580142D01*
X180100000Y-135556250D01*
X180100000Y-134643750D01*
X180101174Y-134619858D01*
X180104684Y-134596197D01*
X180110496Y-134572993D01*
X180118554Y-134550471D01*
X180128782Y-134528847D01*
X180141079Y-134508330D01*
X180155329Y-134489117D01*
X180171393Y-134471393D01*
X180189117Y-134455329D01*
X180208330Y-134441079D01*
X180228847Y-134428782D01*
X180250471Y-134418554D01*
X180272993Y-134410496D01*
X180296197Y-134404684D01*
X180319858Y-134401174D01*
X180343750Y-134400000D01*
X180831250Y-134400000D01*
X180855142Y-134401174D01*
X180855142Y-134401174D01*
G37*
D14*
X180587500Y-135100000D03*
D12*
G36*
X189874045Y-131549536D02*
X189897706Y-131553046D01*
X189920910Y-131558858D01*
X189943432Y-131566916D01*
X189965056Y-131577144D01*
X189985573Y-131589441D01*
X190004786Y-131603691D01*
X190022510Y-131619755D01*
X190667745Y-132264990D01*
X190683809Y-132282714D01*
X190698059Y-132301927D01*
X190710356Y-132322444D01*
X190720584Y-132344068D01*
X190728642Y-132366590D01*
X190734454Y-132389794D01*
X190737964Y-132413455D01*
X190739138Y-132437347D01*
X190737964Y-132461239D01*
X190734454Y-132484900D01*
X190728642Y-132508104D01*
X190720584Y-132530626D01*
X190710356Y-132552250D01*
X190698059Y-132572767D01*
X190683809Y-132591980D01*
X190667745Y-132609704D01*
X190323030Y-132954419D01*
X190305306Y-132970483D01*
X190286093Y-132984733D01*
X190265576Y-132997030D01*
X190243952Y-133007258D01*
X190221430Y-133015316D01*
X190198226Y-133021128D01*
X190174565Y-133024638D01*
X190150673Y-133025812D01*
X190126781Y-133024638D01*
X190103120Y-133021128D01*
X190079916Y-133015316D01*
X190057394Y-133007258D01*
X190035770Y-132997030D01*
X190015253Y-132984733D01*
X189996040Y-132970483D01*
X189978316Y-132954419D01*
X189333081Y-132309184D01*
X189317017Y-132291460D01*
X189302767Y-132272247D01*
X189290470Y-132251730D01*
X189280242Y-132230106D01*
X189272184Y-132207584D01*
X189266372Y-132184380D01*
X189262862Y-132160719D01*
X189261688Y-132136827D01*
X189262862Y-132112935D01*
X189266372Y-132089274D01*
X189272184Y-132066070D01*
X189280242Y-132043548D01*
X189290470Y-132021924D01*
X189302767Y-132001407D01*
X189317017Y-131982194D01*
X189333081Y-131964470D01*
X189677796Y-131619755D01*
X189695520Y-131603691D01*
X189714733Y-131589441D01*
X189735250Y-131577144D01*
X189756874Y-131566916D01*
X189779396Y-131558858D01*
X189802600Y-131553046D01*
X189826261Y-131549536D01*
X189850153Y-131548362D01*
X189874045Y-131549536D01*
X189874045Y-131549536D01*
G37*
D14*
X190000413Y-132287087D03*
D12*
G36*
X188548219Y-132875362D02*
X188571880Y-132878872D01*
X188595084Y-132884684D01*
X188617606Y-132892742D01*
X188639230Y-132902970D01*
X188659747Y-132915267D01*
X188678960Y-132929517D01*
X188696684Y-132945581D01*
X189341919Y-133590816D01*
X189357983Y-133608540D01*
X189372233Y-133627753D01*
X189384530Y-133648270D01*
X189394758Y-133669894D01*
X189402816Y-133692416D01*
X189408628Y-133715620D01*
X189412138Y-133739281D01*
X189413312Y-133763173D01*
X189412138Y-133787065D01*
X189408628Y-133810726D01*
X189402816Y-133833930D01*
X189394758Y-133856452D01*
X189384530Y-133878076D01*
X189372233Y-133898593D01*
X189357983Y-133917806D01*
X189341919Y-133935530D01*
X188997204Y-134280245D01*
X188979480Y-134296309D01*
X188960267Y-134310559D01*
X188939750Y-134322856D01*
X188918126Y-134333084D01*
X188895604Y-134341142D01*
X188872400Y-134346954D01*
X188848739Y-134350464D01*
X188824847Y-134351638D01*
X188800955Y-134350464D01*
X188777294Y-134346954D01*
X188754090Y-134341142D01*
X188731568Y-134333084D01*
X188709944Y-134322856D01*
X188689427Y-134310559D01*
X188670214Y-134296309D01*
X188652490Y-134280245D01*
X188007255Y-133635010D01*
X187991191Y-133617286D01*
X187976941Y-133598073D01*
X187964644Y-133577556D01*
X187954416Y-133555932D01*
X187946358Y-133533410D01*
X187940546Y-133510206D01*
X187937036Y-133486545D01*
X187935862Y-133462653D01*
X187937036Y-133438761D01*
X187940546Y-133415100D01*
X187946358Y-133391896D01*
X187954416Y-133369374D01*
X187964644Y-133347750D01*
X187976941Y-133327233D01*
X187991191Y-133308020D01*
X188007255Y-133290296D01*
X188351970Y-132945581D01*
X188369694Y-132929517D01*
X188388907Y-132915267D01*
X188409424Y-132902970D01*
X188431048Y-132892742D01*
X188453570Y-132884684D01*
X188476774Y-132878872D01*
X188500435Y-132875362D01*
X188524327Y-132874188D01*
X188548219Y-132875362D01*
X188548219Y-132875362D01*
G37*
D14*
X188674587Y-133612913D03*
D12*
G36*
X138764918Y-134748899D02*
X138788540Y-134752667D01*
X138811679Y-134758732D01*
X138834112Y-134767035D01*
X138855623Y-134777498D01*
X138876005Y-134790019D01*
X138895062Y-134804477D01*
X139268508Y-135117836D01*
X139286055Y-135134092D01*
X139301925Y-135151990D01*
X139315964Y-135171358D01*
X139328037Y-135192008D01*
X139338028Y-135213742D01*
X139345840Y-135236351D01*
X139351399Y-135259617D01*
X139354650Y-135283315D01*
X139355563Y-135307218D01*
X139354129Y-135331096D01*
X139350361Y-135354717D01*
X139344296Y-135377856D01*
X139335993Y-135400289D01*
X139325530Y-135421800D01*
X139313009Y-135442182D01*
X139298551Y-135461239D01*
X138712007Y-136160254D01*
X138695751Y-136177801D01*
X138677853Y-136193671D01*
X138658485Y-136207710D01*
X138637835Y-136219783D01*
X138616101Y-136229774D01*
X138593492Y-136237586D01*
X138570227Y-136243145D01*
X138546528Y-136246396D01*
X138522625Y-136247309D01*
X138498748Y-136245875D01*
X138475126Y-136242107D01*
X138451987Y-136236042D01*
X138429554Y-136227739D01*
X138408043Y-136217276D01*
X138387661Y-136204755D01*
X138368604Y-136190297D01*
X137995158Y-135876938D01*
X137977611Y-135860682D01*
X137961741Y-135842784D01*
X137947702Y-135823416D01*
X137935629Y-135802766D01*
X137925638Y-135781032D01*
X137917826Y-135758423D01*
X137912267Y-135735157D01*
X137909016Y-135711459D01*
X137908103Y-135687556D01*
X137909537Y-135663678D01*
X137913305Y-135640057D01*
X137919370Y-135616918D01*
X137927673Y-135594485D01*
X137938136Y-135572974D01*
X137950657Y-135552592D01*
X137965115Y-135533535D01*
X138551659Y-134834520D01*
X138567915Y-134816973D01*
X138585813Y-134801103D01*
X138605181Y-134787064D01*
X138625831Y-134774991D01*
X138647565Y-134765000D01*
X138670174Y-134757188D01*
X138693439Y-134751629D01*
X138717138Y-134748378D01*
X138741041Y-134747465D01*
X138764918Y-134748899D01*
X138764918Y-134748899D01*
G37*
D14*
X138631833Y-135497387D03*
D12*
G36*
X140201252Y-135954125D02*
X140224874Y-135957893D01*
X140248013Y-135963958D01*
X140270446Y-135972261D01*
X140291957Y-135982724D01*
X140312339Y-135995245D01*
X140331396Y-136009703D01*
X140704842Y-136323062D01*
X140722389Y-136339318D01*
X140738259Y-136357216D01*
X140752298Y-136376584D01*
X140764371Y-136397234D01*
X140774362Y-136418968D01*
X140782174Y-136441577D01*
X140787733Y-136464843D01*
X140790984Y-136488541D01*
X140791897Y-136512444D01*
X140790463Y-136536322D01*
X140786695Y-136559943D01*
X140780630Y-136583082D01*
X140772327Y-136605515D01*
X140761864Y-136627026D01*
X140749343Y-136647408D01*
X140734885Y-136666465D01*
X140148341Y-137365480D01*
X140132085Y-137383027D01*
X140114187Y-137398897D01*
X140094819Y-137412936D01*
X140074169Y-137425009D01*
X140052435Y-137435000D01*
X140029826Y-137442812D01*
X140006561Y-137448371D01*
X139982862Y-137451622D01*
X139958959Y-137452535D01*
X139935082Y-137451101D01*
X139911460Y-137447333D01*
X139888321Y-137441268D01*
X139865888Y-137432965D01*
X139844377Y-137422502D01*
X139823995Y-137409981D01*
X139804938Y-137395523D01*
X139431492Y-137082164D01*
X139413945Y-137065908D01*
X139398075Y-137048010D01*
X139384036Y-137028642D01*
X139371963Y-137007992D01*
X139361972Y-136986258D01*
X139354160Y-136963649D01*
X139348601Y-136940383D01*
X139345350Y-136916685D01*
X139344437Y-136892782D01*
X139345871Y-136868904D01*
X139349639Y-136845283D01*
X139355704Y-136822144D01*
X139364007Y-136799711D01*
X139374470Y-136778200D01*
X139386991Y-136757818D01*
X139401449Y-136738761D01*
X139987993Y-136039746D01*
X140004249Y-136022199D01*
X140022147Y-136006329D01*
X140041515Y-135992290D01*
X140062165Y-135980217D01*
X140083899Y-135970226D01*
X140106508Y-135962414D01*
X140129773Y-135956855D01*
X140153472Y-135953604D01*
X140177375Y-135952691D01*
X140201252Y-135954125D01*
X140201252Y-135954125D01*
G37*
D14*
X140068167Y-136702613D03*
D12*
G36*
X138381096Y-131795871D02*
X138404717Y-131799639D01*
X138427856Y-131805704D01*
X138450289Y-131814007D01*
X138471800Y-131824470D01*
X138492182Y-131836991D01*
X138511239Y-131851449D01*
X139210254Y-132437993D01*
X139227801Y-132454249D01*
X139243671Y-132472147D01*
X139257710Y-132491515D01*
X139269783Y-132512165D01*
X139279774Y-132533899D01*
X139287586Y-132556508D01*
X139293145Y-132579773D01*
X139296396Y-132603472D01*
X139297309Y-132627375D01*
X139295875Y-132651252D01*
X139292107Y-132674874D01*
X139286042Y-132698013D01*
X139277739Y-132720446D01*
X139267276Y-132741957D01*
X139254755Y-132762339D01*
X139240297Y-132781396D01*
X138926938Y-133154842D01*
X138910682Y-133172389D01*
X138892784Y-133188259D01*
X138873416Y-133202298D01*
X138852766Y-133214371D01*
X138831032Y-133224362D01*
X138808423Y-133232174D01*
X138785157Y-133237733D01*
X138761459Y-133240984D01*
X138737556Y-133241897D01*
X138713678Y-133240463D01*
X138690057Y-133236695D01*
X138666918Y-133230630D01*
X138644485Y-133222327D01*
X138622974Y-133211864D01*
X138602592Y-133199343D01*
X138583535Y-133184885D01*
X137884520Y-132598341D01*
X137866973Y-132582085D01*
X137851103Y-132564187D01*
X137837064Y-132544819D01*
X137824991Y-132524169D01*
X137815000Y-132502435D01*
X137807188Y-132479826D01*
X137801629Y-132456561D01*
X137798378Y-132432862D01*
X137797465Y-132408959D01*
X137798899Y-132385082D01*
X137802667Y-132361460D01*
X137808732Y-132338321D01*
X137817035Y-132315888D01*
X137827498Y-132294377D01*
X137840019Y-132273995D01*
X137854477Y-132254938D01*
X138167836Y-131881492D01*
X138184092Y-131863945D01*
X138201990Y-131848075D01*
X138221358Y-131834036D01*
X138242008Y-131821963D01*
X138263742Y-131811972D01*
X138286351Y-131804160D01*
X138309617Y-131798601D01*
X138333315Y-131795350D01*
X138357218Y-131794437D01*
X138381096Y-131795871D01*
X138381096Y-131795871D01*
G37*
D14*
X138547387Y-132518167D03*
D12*
G36*
X139586322Y-130359537D02*
X139609943Y-130363305D01*
X139633082Y-130369370D01*
X139655515Y-130377673D01*
X139677026Y-130388136D01*
X139697408Y-130400657D01*
X139716465Y-130415115D01*
X140415480Y-131001659D01*
X140433027Y-131017915D01*
X140448897Y-131035813D01*
X140462936Y-131055181D01*
X140475009Y-131075831D01*
X140485000Y-131097565D01*
X140492812Y-131120174D01*
X140498371Y-131143439D01*
X140501622Y-131167138D01*
X140502535Y-131191041D01*
X140501101Y-131214918D01*
X140497333Y-131238540D01*
X140491268Y-131261679D01*
X140482965Y-131284112D01*
X140472502Y-131305623D01*
X140459981Y-131326005D01*
X140445523Y-131345062D01*
X140132164Y-131718508D01*
X140115908Y-131736055D01*
X140098010Y-131751925D01*
X140078642Y-131765964D01*
X140057992Y-131778037D01*
X140036258Y-131788028D01*
X140013649Y-131795840D01*
X139990383Y-131801399D01*
X139966685Y-131804650D01*
X139942782Y-131805563D01*
X139918904Y-131804129D01*
X139895283Y-131800361D01*
X139872144Y-131794296D01*
X139849711Y-131785993D01*
X139828200Y-131775530D01*
X139807818Y-131763009D01*
X139788761Y-131748551D01*
X139089746Y-131162007D01*
X139072199Y-131145751D01*
X139056329Y-131127853D01*
X139042290Y-131108485D01*
X139030217Y-131087835D01*
X139020226Y-131066101D01*
X139012414Y-131043492D01*
X139006855Y-131020227D01*
X139003604Y-130996528D01*
X139002691Y-130972625D01*
X139004125Y-130948748D01*
X139007893Y-130925126D01*
X139013958Y-130901987D01*
X139022261Y-130879554D01*
X139032724Y-130858043D01*
X139045245Y-130837661D01*
X139059703Y-130818604D01*
X139373062Y-130445158D01*
X139389318Y-130427611D01*
X139407216Y-130411741D01*
X139426584Y-130397702D01*
X139447234Y-130385629D01*
X139468968Y-130375638D01*
X139491577Y-130367826D01*
X139514843Y-130362267D01*
X139538541Y-130359016D01*
X139562444Y-130358103D01*
X139586322Y-130359537D01*
X139586322Y-130359537D01*
G37*
D14*
X139752613Y-131081833D03*
D12*
G36*
X141886322Y-132209537D02*
X141909943Y-132213305D01*
X141933082Y-132219370D01*
X141955515Y-132227673D01*
X141977026Y-132238136D01*
X141997408Y-132250657D01*
X142016465Y-132265115D01*
X142715480Y-132851659D01*
X142733027Y-132867915D01*
X142748897Y-132885813D01*
X142762936Y-132905181D01*
X142775009Y-132925831D01*
X142785000Y-132947565D01*
X142792812Y-132970174D01*
X142798371Y-132993439D01*
X142801622Y-133017138D01*
X142802535Y-133041041D01*
X142801101Y-133064918D01*
X142797333Y-133088540D01*
X142791268Y-133111679D01*
X142782965Y-133134112D01*
X142772502Y-133155623D01*
X142759981Y-133176005D01*
X142745523Y-133195062D01*
X142432164Y-133568508D01*
X142415908Y-133586055D01*
X142398010Y-133601925D01*
X142378642Y-133615964D01*
X142357992Y-133628037D01*
X142336258Y-133638028D01*
X142313649Y-133645840D01*
X142290383Y-133651399D01*
X142266685Y-133654650D01*
X142242782Y-133655563D01*
X142218904Y-133654129D01*
X142195283Y-133650361D01*
X142172144Y-133644296D01*
X142149711Y-133635993D01*
X142128200Y-133625530D01*
X142107818Y-133613009D01*
X142088761Y-133598551D01*
X141389746Y-133012007D01*
X141372199Y-132995751D01*
X141356329Y-132977853D01*
X141342290Y-132958485D01*
X141330217Y-132937835D01*
X141320226Y-132916101D01*
X141312414Y-132893492D01*
X141306855Y-132870227D01*
X141303604Y-132846528D01*
X141302691Y-132822625D01*
X141304125Y-132798748D01*
X141307893Y-132775126D01*
X141313958Y-132751987D01*
X141322261Y-132729554D01*
X141332724Y-132708043D01*
X141345245Y-132687661D01*
X141359703Y-132668604D01*
X141673062Y-132295158D01*
X141689318Y-132277611D01*
X141707216Y-132261741D01*
X141726584Y-132247702D01*
X141747234Y-132235629D01*
X141768968Y-132225638D01*
X141791577Y-132217826D01*
X141814843Y-132212267D01*
X141838541Y-132209016D01*
X141862444Y-132208103D01*
X141886322Y-132209537D01*
X141886322Y-132209537D01*
G37*
D14*
X142052613Y-132931833D03*
D12*
G36*
X140681096Y-133645871D02*
X140704717Y-133649639D01*
X140727856Y-133655704D01*
X140750289Y-133664007D01*
X140771800Y-133674470D01*
X140792182Y-133686991D01*
X140811239Y-133701449D01*
X141510254Y-134287993D01*
X141527801Y-134304249D01*
X141543671Y-134322147D01*
X141557710Y-134341515D01*
X141569783Y-134362165D01*
X141579774Y-134383899D01*
X141587586Y-134406508D01*
X141593145Y-134429773D01*
X141596396Y-134453472D01*
X141597309Y-134477375D01*
X141595875Y-134501252D01*
X141592107Y-134524874D01*
X141586042Y-134548013D01*
X141577739Y-134570446D01*
X141567276Y-134591957D01*
X141554755Y-134612339D01*
X141540297Y-134631396D01*
X141226938Y-135004842D01*
X141210682Y-135022389D01*
X141192784Y-135038259D01*
X141173416Y-135052298D01*
X141152766Y-135064371D01*
X141131032Y-135074362D01*
X141108423Y-135082174D01*
X141085157Y-135087733D01*
X141061459Y-135090984D01*
X141037556Y-135091897D01*
X141013678Y-135090463D01*
X140990057Y-135086695D01*
X140966918Y-135080630D01*
X140944485Y-135072327D01*
X140922974Y-135061864D01*
X140902592Y-135049343D01*
X140883535Y-135034885D01*
X140184520Y-134448341D01*
X140166973Y-134432085D01*
X140151103Y-134414187D01*
X140137064Y-134394819D01*
X140124991Y-134374169D01*
X140115000Y-134352435D01*
X140107188Y-134329826D01*
X140101629Y-134306561D01*
X140098378Y-134282862D01*
X140097465Y-134258959D01*
X140098899Y-134235082D01*
X140102667Y-134211460D01*
X140108732Y-134188321D01*
X140117035Y-134165888D01*
X140127498Y-134144377D01*
X140140019Y-134123995D01*
X140154477Y-134104938D01*
X140467836Y-133731492D01*
X140484092Y-133713945D01*
X140501990Y-133698075D01*
X140521358Y-133684036D01*
X140542008Y-133671963D01*
X140563742Y-133661972D01*
X140586351Y-133654160D01*
X140609617Y-133648601D01*
X140633315Y-133645350D01*
X140657218Y-133644437D01*
X140681096Y-133645871D01*
X140681096Y-133645871D01*
G37*
D14*
X140847387Y-134368167D03*
D22*
X193033883Y-132729111D03*
D12*
G36*
X192786396Y-133683705D02*
X192079289Y-132976598D01*
X193281370Y-131774517D01*
X193988477Y-132481624D01*
X192786396Y-133683705D01*
X192786396Y-133683705D01*
G37*
D22*
X188579111Y-137183883D03*
D12*
G36*
X188331624Y-138138477D02*
X187624517Y-137431370D01*
X188826598Y-136229289D01*
X189533705Y-136936396D01*
X188331624Y-138138477D01*
X188331624Y-138138477D01*
G37*
D22*
X195720889Y-135416117D03*
D12*
G36*
X195473402Y-136370711D02*
X194766295Y-135663604D01*
X195968376Y-134461523D01*
X196675483Y-135168630D01*
X195473402Y-136370711D01*
X195473402Y-136370711D01*
G37*
D22*
X191266117Y-139870889D03*
D12*
G36*
X191018630Y-140825483D02*
X190311523Y-140118376D01*
X191513604Y-138916295D01*
X192220711Y-139623402D01*
X191018630Y-140825483D01*
X191018630Y-140825483D01*
G37*
D22*
X200216117Y-131070889D03*
D12*
G36*
X199968630Y-132025483D02*
X199261523Y-131318376D01*
X200463604Y-130116295D01*
X201170711Y-130823402D01*
X199968630Y-132025483D01*
X199968630Y-132025483D01*
G37*
D22*
X204670889Y-126616117D03*
D12*
G36*
X204423402Y-127570711D02*
X203716295Y-126863604D01*
X204918376Y-125661523D01*
X205625483Y-126368630D01*
X204423402Y-127570711D01*
X204423402Y-127570711D01*
G37*
D22*
X197529111Y-128383883D03*
D12*
G36*
X197281624Y-129338477D02*
X196574517Y-128631370D01*
X197776598Y-127429289D01*
X198483705Y-128136396D01*
X197281624Y-129338477D01*
X197281624Y-129338477D01*
G37*
D22*
X201983883Y-123929111D03*
D12*
G36*
X201736396Y-124883705D02*
X201029289Y-124176598D01*
X202231370Y-122974517D01*
X202938477Y-123681624D01*
X201736396Y-124883705D01*
X201736396Y-124883705D01*
G37*
D10*
X158701412Y-84458934D03*
D11*
X158701412Y-84458934D02*
X158701412Y-84458934D01*
D10*
X159142478Y-86960346D03*
D11*
X159142478Y-86960346D02*
X159142478Y-86960346D01*
D10*
X156200000Y-84900000D03*
D11*
X156200000Y-84900000D02*
X156200000Y-84900000D01*
D10*
X156641066Y-87401412D03*
D23*
X150150000Y-87750000D03*
D12*
G36*
X151099365Y-87650218D02*
X150249782Y-88699365D01*
X149200635Y-87849782D01*
X150050218Y-86800635D01*
X151099365Y-87650218D01*
X151099365Y-87650218D01*
G37*
D23*
X148891359Y-89304292D03*
D24*
X148891359Y-89304292D02*
X148891359Y-89304292D01*
D23*
X147632718Y-90858584D03*
D24*
X147632718Y-90858584D02*
X147632718Y-90858584D01*
D23*
X146374078Y-92412876D03*
D24*
X146374078Y-92412876D02*
X146374078Y-92412876D01*
D23*
X145115437Y-93967168D03*
D24*
X145115437Y-93967168D02*
X145115437Y-93967168D01*
D23*
X143856795Y-95521460D03*
D24*
X143856795Y-95521460D02*
X143856795Y-95521460D01*
D25*
X141900000Y-112400000D03*
X145800000Y-113900000D03*
X142100000Y-116800000D03*
X142300000Y-121400000D03*
X166300000Y-96550000D03*
X161250000Y-93300000D03*
X145350000Y-95400000D03*
X150820000Y-110360000D03*
X145900000Y-125600000D03*
X150150000Y-128000000D03*
X155750000Y-120000000D03*
X143700000Y-122300000D03*
X156850000Y-124550000D03*
X153900000Y-113350000D03*
X159400000Y-141450000D03*
X153400000Y-106500000D03*
X147600000Y-107350000D03*
X167850000Y-94500000D03*
X142000000Y-98100000D03*
X186400000Y-137600000D03*
X162750000Y-115250000D03*
X157500000Y-120500000D03*
X150495558Y-106504442D03*
X152984315Y-89600000D03*
X149600000Y-106400000D03*
X147000000Y-112000000D03*
X150450000Y-90500000D03*
X147000000Y-112900003D03*
X147800000Y-93350000D03*
X147900000Y-114300000D03*
X151150000Y-89600000D03*
X149350001Y-114850000D03*
X146600000Y-93850000D03*
X147100000Y-100700000D03*
X141150000Y-100850000D03*
X145750000Y-97950000D03*
X182600000Y-141000000D03*
X191250000Y-131300000D03*
X191600000Y-132200000D03*
X152400000Y-139525000D03*
X156900000Y-138100000D03*
X153350000Y-138900000D03*
X155461601Y-108747271D03*
X154925000Y-92400000D03*
X155200000Y-109700000D03*
X155500000Y-96200000D03*
X155723827Y-110559990D03*
X155050000Y-99400000D03*
X152200000Y-119800000D03*
X158350000Y-130150000D03*
X152200000Y-121000000D03*
X170000000Y-138200010D03*
X151400000Y-121800000D03*
X168850000Y-139250000D03*
X150600000Y-122600000D03*
X137500000Y-134500000D03*
X150200000Y-123600000D03*
X141100000Y-130100000D03*
X149510024Y-121500000D03*
X147850000Y-123400000D03*
X149900000Y-117250000D03*
D26*
X150800000Y-105925000D02*
X151475000Y-106600000D01*
X150800000Y-105337500D02*
X150800000Y-105925000D01*
X151510000Y-106600000D02*
X151820000Y-106910000D01*
X151820000Y-106910000D02*
X151820000Y-107500000D01*
X151475000Y-106600000D02*
X151510000Y-106600000D01*
X150243763Y-104781263D02*
X149618737Y-104781263D01*
X150800000Y-105337500D02*
X150243763Y-104781263D01*
X148250000Y-104125000D02*
X149325000Y-104125000D01*
X149618737Y-104418737D02*
X149618737Y-104781263D01*
X149325000Y-104125000D02*
X149618737Y-104418737D01*
X148250000Y-103537500D02*
X149200000Y-102587500D01*
X148250000Y-104125000D02*
X148250000Y-103537500D01*
X149200000Y-102587500D02*
X149200000Y-102000000D01*
X149200000Y-102000000D02*
X151000000Y-100200000D01*
X155537500Y-100200000D02*
X156800000Y-101462500D01*
X155400000Y-100200000D02*
X155537500Y-100200000D01*
X151000000Y-100200000D02*
X155400000Y-100200000D01*
X150620000Y-110160000D02*
X150820000Y-110360000D01*
X147960000Y-110160000D02*
X150620000Y-110160000D01*
X151820000Y-109360000D02*
X150820000Y-110360000D01*
X151820000Y-107500000D02*
X151820000Y-109360000D01*
X145644998Y-107850000D02*
X145800000Y-107850000D01*
X144544998Y-108950000D02*
X145644998Y-107850000D01*
X144400000Y-108950000D02*
X144544998Y-108950000D01*
X143787500Y-108950000D02*
X144400000Y-108950000D01*
X142700000Y-107862500D02*
X143787500Y-108950000D01*
X142700000Y-107862500D02*
X143300000Y-107262500D01*
X143600000Y-106800000D02*
X144400000Y-106000000D01*
X144400000Y-104000000D02*
X144400000Y-106000000D01*
X146075000Y-104000000D02*
X146200000Y-104125000D01*
X144400000Y-104000000D02*
X146075000Y-104000000D01*
X146200000Y-104125000D02*
X148250000Y-104125000D01*
X141291601Y-125498001D02*
X142339499Y-125498001D01*
D27*
X143095294Y-126992976D02*
X143095294Y-125804706D01*
X144099423Y-127997105D02*
X143095294Y-126992976D01*
D26*
X159250000Y-120500000D02*
X159250000Y-115687500D01*
D27*
X144099423Y-127997105D02*
X144099423Y-127400577D01*
D26*
X161187500Y-115687500D02*
X161250000Y-115625000D01*
X159250000Y-115687500D02*
X161187500Y-115687500D01*
X156250000Y-115187500D02*
X157250000Y-116187500D01*
X157250000Y-116187500D02*
X157250000Y-118750000D01*
X155750000Y-118750000D02*
X157250000Y-118750000D01*
X157250000Y-118750000D02*
X157250000Y-119500000D01*
X154350000Y-118750000D02*
X155750000Y-118750000D01*
X153800000Y-116337500D02*
X153800000Y-118200000D01*
X153800000Y-118200000D02*
X154350000Y-118750000D01*
X156800000Y-101462500D02*
X156800000Y-98300000D01*
X156800000Y-98300000D02*
X161250000Y-93850000D01*
X160408934Y-84458934D02*
X158701412Y-84458934D01*
X161250000Y-85300000D02*
X160408934Y-84458934D01*
X160156237Y-104656263D02*
X159600000Y-105212500D01*
X160156237Y-102818737D02*
X160156237Y-104656263D01*
X158800000Y-101462500D02*
X160156237Y-102818737D01*
X160500000Y-111300000D02*
X160900000Y-110900000D01*
X159700000Y-111300000D02*
X160500000Y-111300000D01*
X160900000Y-106512500D02*
X159600000Y-105212500D01*
X160900000Y-110900000D02*
X160900000Y-106512500D01*
X156800000Y-101462500D02*
X158800000Y-101462500D01*
X142646204Y-125804706D02*
X142339499Y-125498001D01*
X143095294Y-125804706D02*
X142646204Y-125804706D01*
X142300000Y-122462500D02*
X143837500Y-124000000D01*
X142300000Y-121400000D02*
X142300000Y-122462500D01*
X142339499Y-125498001D02*
X143837500Y-124000000D01*
X143837500Y-124000000D02*
X146100000Y-121737500D01*
X146000000Y-114100000D02*
X145800000Y-113900000D01*
X146000000Y-115762500D02*
X146000000Y-114100000D01*
X147329976Y-110160000D02*
X147960000Y-110160000D01*
X145389976Y-112100000D02*
X147329976Y-110160000D01*
X143200001Y-112000001D02*
X143300000Y-112100000D01*
X142299999Y-112000001D02*
X143200001Y-112000001D01*
X143300000Y-112100000D02*
X145389976Y-112100000D01*
X141900000Y-112400000D02*
X142299999Y-112000001D01*
X141900000Y-116600000D02*
X142100000Y-116800000D01*
X141900000Y-112400000D02*
X141900000Y-116600000D01*
X171790000Y-101360000D02*
X166980000Y-96550000D01*
X166980000Y-96550000D02*
X166300000Y-96550000D01*
X161250000Y-93850000D02*
X161250000Y-93300000D01*
X161250000Y-93300000D02*
X161250000Y-85300000D01*
X143856795Y-95521460D02*
X145228540Y-95521460D01*
X145228540Y-95521460D02*
X145350000Y-95400000D01*
D27*
X144099423Y-127400577D02*
X145900000Y-125600000D01*
D26*
X153094988Y-128000000D02*
X150150000Y-128000000D01*
X155750000Y-125344988D02*
X153094988Y-128000000D01*
X189250861Y-136512133D02*
X193033883Y-132729111D01*
X188579111Y-137183883D02*
X189250861Y-136512133D01*
X197379111Y-128383883D02*
X197529111Y-128383883D01*
X197529111Y-128383883D02*
X201983883Y-123929111D01*
X159150000Y-120600000D02*
X159250000Y-120500000D01*
X158250000Y-121500000D02*
X159150000Y-120600000D01*
X155750000Y-123200000D02*
X157300000Y-123200000D01*
X155750000Y-123200000D02*
X155750000Y-125344988D01*
X157300000Y-123200000D02*
X158150000Y-124050000D01*
X170650000Y-136600000D02*
X172750000Y-134500000D01*
X172750000Y-134500000D02*
X177200000Y-134500000D01*
X167100000Y-136600000D02*
X170650000Y-136600000D01*
X157200000Y-121500000D02*
X156100000Y-121500000D01*
X157200000Y-121500000D02*
X158250000Y-121500000D01*
X156750000Y-121500000D02*
X157200000Y-121500000D01*
X155750000Y-121850000D02*
X155750000Y-122050000D01*
X156100000Y-121500000D02*
X155750000Y-121850000D01*
X155750000Y-122050000D02*
X155750000Y-123200000D01*
X177200000Y-134500000D02*
X177200000Y-134300000D01*
X177200000Y-134300000D02*
X179100000Y-132400000D01*
X179100000Y-132400000D02*
X186450000Y-132400000D01*
X188750010Y-130099990D02*
X194949990Y-130099990D01*
X186450000Y-132400000D02*
X188750010Y-130099990D01*
X194949990Y-130099990D02*
X195300000Y-130450000D01*
X195300000Y-130450000D02*
X195312994Y-130450000D01*
X193033883Y-132729111D02*
X195312994Y-130450000D01*
X195312994Y-130450000D02*
X197379111Y-128383883D01*
X158150000Y-127650000D02*
X158400000Y-127900000D01*
X158150000Y-127200000D02*
X158150000Y-127650000D01*
X158400000Y-127900000D02*
X167100000Y-136600000D01*
X158200000Y-127700000D02*
X158400000Y-127900000D01*
X158150000Y-124050000D02*
X158150000Y-127200000D01*
X143600000Y-106962500D02*
X143300000Y-107262500D01*
X143600000Y-106800000D02*
X143600000Y-106962500D01*
X155750000Y-118750000D02*
X155750000Y-120000000D01*
X155750000Y-120000000D02*
X155750000Y-122050000D01*
X142962500Y-110000000D02*
X142700000Y-109737500D01*
X145100000Y-110000000D02*
X142962500Y-110000000D01*
X145500000Y-109600000D02*
X145100000Y-110000000D01*
X145500000Y-109200000D02*
X145500000Y-109600000D01*
X145800000Y-108950000D02*
X145750000Y-108950000D01*
X145750000Y-108950000D02*
X145500000Y-109200000D01*
X145810000Y-108960000D02*
X145800000Y-108950000D01*
X147960000Y-108960000D02*
X146110000Y-108960000D01*
X146200000Y-106000000D02*
X146200000Y-106350000D01*
X146200000Y-106950000D02*
X146200000Y-106000000D01*
X146200000Y-106950000D02*
X146400000Y-106950000D01*
X145600000Y-106950000D02*
X146200000Y-106950000D01*
X147960000Y-108560000D02*
X147060000Y-108560000D01*
X146700000Y-108200000D02*
X146700000Y-106950000D01*
X147060000Y-108560000D02*
X146700000Y-108200000D01*
X146400000Y-106950000D02*
X146700000Y-106950000D01*
X145050000Y-106950000D02*
X145600000Y-106950000D01*
X144400000Y-107850000D02*
X144400000Y-107600000D01*
X144400000Y-107600000D02*
X145050000Y-106950000D01*
X143700000Y-119837500D02*
X143700000Y-122300000D01*
X146075000Y-119837500D02*
X146100000Y-119862500D01*
X143700000Y-119837500D02*
X146075000Y-119837500D01*
X141937500Y-106000000D02*
X142525000Y-106000000D01*
X141500000Y-106437500D02*
X141937500Y-106000000D01*
X141500000Y-110600000D02*
X141500000Y-106437500D01*
X145194988Y-110400000D02*
X144100000Y-110400000D01*
X143800000Y-110700000D02*
X141600000Y-110700000D01*
X147960000Y-109360000D02*
X146840000Y-109360000D01*
X144100000Y-110400000D02*
X143800000Y-110700000D01*
X146700000Y-109800000D02*
X146600000Y-109900000D01*
X141600000Y-110700000D02*
X141500000Y-110600000D01*
X146700000Y-109500000D02*
X146700000Y-109800000D01*
X145694988Y-109900000D02*
X145194988Y-110400000D01*
X146840000Y-109360000D02*
X146700000Y-109500000D01*
X146600000Y-109900000D02*
X145694988Y-109900000D01*
X141149990Y-104750010D02*
X141774990Y-104750010D01*
X141149990Y-110749990D02*
X141149990Y-104750010D01*
X143944980Y-111050008D02*
X141450008Y-111050008D01*
X141774990Y-104750010D02*
X142525000Y-104000000D01*
X147234988Y-109760000D02*
X146744980Y-110250008D01*
X141450008Y-111050008D02*
X141149990Y-110749990D01*
X145849992Y-110250008D02*
X145349990Y-110750010D01*
X147960000Y-109760000D02*
X147234988Y-109760000D01*
X146744980Y-110250008D02*
X145849992Y-110250008D01*
X145349990Y-110750010D02*
X144244978Y-110750010D01*
X144244978Y-110750010D02*
X143944980Y-111050008D01*
X153895000Y-108160000D02*
X155200000Y-106855000D01*
X153680000Y-108160000D02*
X153895000Y-108160000D01*
X156400000Y-105200000D02*
X155200000Y-106400000D01*
X155200000Y-106855000D02*
X155200000Y-106400000D01*
X157525000Y-105200000D02*
X156700000Y-105200000D01*
X158800000Y-103337500D02*
X158800000Y-103925000D01*
X158800000Y-103925000D02*
X157525000Y-105200000D01*
X156700000Y-105200000D02*
X156400000Y-105200000D01*
X150925000Y-103337500D02*
X150800000Y-103462500D01*
X152800000Y-103337500D02*
X150925000Y-103337500D01*
X152220000Y-106815012D02*
X152200000Y-106795012D01*
X152220000Y-107500000D02*
X152220000Y-106815012D01*
X152200000Y-103937500D02*
X152800000Y-103337500D01*
X152200000Y-106795012D02*
X152200000Y-103937500D01*
X147960000Y-106290000D02*
X148250000Y-106000000D01*
X153020000Y-107500000D02*
X153020000Y-107180000D01*
X156800000Y-103925000D02*
X155525000Y-105200000D01*
X156800000Y-103337500D02*
X156800000Y-103925000D01*
X155525000Y-105200000D02*
X155000000Y-105200000D01*
X154800000Y-105400000D02*
X153400000Y-105400000D01*
X155000000Y-105200000D02*
X154800000Y-105400000D01*
X153400000Y-105400000D02*
X153400000Y-106400000D01*
X153020000Y-106780000D02*
X153020000Y-107500000D01*
X153400000Y-106400000D02*
X153020000Y-106780000D01*
X153020000Y-113220000D02*
X153020000Y-114020000D01*
X153020000Y-114020000D02*
X153250000Y-114250000D01*
X164097682Y-141400000D02*
X164397682Y-141100000D01*
D27*
X156850000Y-125115685D02*
X156850000Y-133552318D01*
X156850000Y-124550000D02*
X156850000Y-125115685D01*
X164397682Y-141100000D02*
X156850000Y-133552318D01*
D26*
X153800000Y-114462500D02*
X153800000Y-113450000D01*
X153800000Y-113450000D02*
X153900000Y-113350000D01*
D27*
X168100577Y-144802895D02*
X164897682Y-141600000D01*
X164897682Y-141600000D02*
X164397682Y-141100000D01*
D26*
X164047682Y-141450000D02*
X164397682Y-141100000D01*
X159400000Y-141450000D02*
X164047682Y-141450000D01*
X153020000Y-106880000D02*
X153400000Y-106500000D01*
X153020000Y-107500000D02*
X153020000Y-106880000D01*
X148250000Y-106000000D02*
X148250000Y-106700000D01*
X148250000Y-106700000D02*
X147600000Y-107350000D01*
X147960000Y-107710000D02*
X147600000Y-107350000D01*
X147960000Y-108160000D02*
X147960000Y-107710000D01*
X174274495Y-100831904D02*
X174274495Y-101674495D01*
X174274495Y-100831904D02*
X167942591Y-94500000D01*
X167942591Y-94500000D02*
X167850000Y-94500000D01*
X155389653Y-86110347D02*
X158292479Y-86110347D01*
X153750000Y-87750000D02*
X155389653Y-86110347D01*
X158292479Y-86110347D02*
X159142478Y-86960346D01*
X150150000Y-87750000D02*
X153750000Y-87750000D01*
X142475001Y-98575001D02*
X143675001Y-98575001D01*
X142000000Y-98100000D02*
X142475001Y-98575001D01*
X143675001Y-98575001D02*
X144350000Y-99250000D01*
X144350000Y-99250000D02*
X146750000Y-99250000D01*
X146750000Y-99250000D02*
X149050000Y-96950000D01*
X149050000Y-96950000D02*
X149050000Y-95000000D01*
X148650000Y-94456402D02*
X148900010Y-94206392D01*
X149050000Y-95000000D02*
X148650000Y-94600000D01*
X148650000Y-94600000D02*
X148650000Y-94456402D01*
X148900010Y-94206392D02*
X148900010Y-93149990D01*
X148900010Y-93149990D02*
X150349990Y-91700010D01*
X150349990Y-91700010D02*
X152100010Y-91700010D01*
X152100010Y-91700010D02*
X154200000Y-93800000D01*
X154200000Y-93800000D02*
X155350000Y-93800000D01*
X159142478Y-90007522D02*
X159142478Y-86960346D01*
X155350000Y-93800000D02*
X159142478Y-90007522D01*
X186400000Y-141850000D02*
X186400000Y-137600000D01*
X168100577Y-144802895D02*
X183447105Y-144802895D01*
X183447105Y-144802895D02*
X186400000Y-141850000D01*
X157899999Y-120100001D02*
X157899999Y-113899999D01*
X157500000Y-120500000D02*
X157899999Y-120100001D01*
X157899999Y-113899999D02*
X157312500Y-113312500D01*
X162750000Y-114684315D02*
X161590685Y-113525000D01*
X162750000Y-115250000D02*
X162750000Y-114684315D01*
X159674990Y-113875010D02*
X159344978Y-113875010D01*
X161590685Y-113525000D02*
X160025000Y-113525000D01*
X160025000Y-113525000D02*
X159674990Y-113875010D01*
X155090000Y-112160000D02*
X157400000Y-112160000D01*
X157312500Y-113312500D02*
X156437500Y-113312500D01*
X154400000Y-112160000D02*
X157597500Y-112160000D01*
X157597500Y-112160000D02*
X159250000Y-113812500D01*
X154400000Y-112160000D02*
X155090000Y-112160000D01*
X153680000Y-112160000D02*
X154400000Y-112160000D01*
X155285000Y-112560000D02*
X153680000Y-112560000D01*
X155440000Y-112560000D02*
X156000000Y-113120000D01*
X155285000Y-112560000D02*
X155440000Y-112560000D01*
X155750000Y-116875000D02*
X155193763Y-116318763D01*
X155437500Y-113312500D02*
X156087490Y-113312500D01*
X155193763Y-113556237D02*
X155437500Y-113312500D01*
X155193763Y-116318763D02*
X155193763Y-113556237D01*
X153680000Y-108560000D02*
X154270000Y-108560000D01*
X155830000Y-107000000D02*
X157200000Y-107000000D01*
X154270000Y-108560000D02*
X155830000Y-107000000D01*
X159200000Y-107000000D02*
X159400000Y-107200000D01*
X157200000Y-107000000D02*
X159200000Y-107000000D01*
X159300000Y-109500000D02*
X159400000Y-109400000D01*
X157200000Y-109500000D02*
X159300000Y-109500000D01*
X157200000Y-108750000D02*
X157200000Y-109500000D01*
X156950000Y-108500000D02*
X157200000Y-108750000D01*
X153680000Y-108960000D02*
X154364988Y-108960000D01*
X154364988Y-108960000D02*
X155324988Y-108000000D01*
X155750000Y-108000000D02*
X156250000Y-108500000D01*
X155324988Y-108000000D02*
X155750000Y-108000000D01*
X156250000Y-108500000D02*
X156950000Y-108500000D01*
X144300000Y-112500000D02*
X143700000Y-113100000D01*
X143700000Y-113100000D02*
X143700000Y-113862500D01*
X145430000Y-112500000D02*
X144300000Y-112500000D01*
X145484964Y-112500000D02*
X144300000Y-112500000D01*
X147424964Y-110560000D02*
X145484964Y-112500000D01*
X147960000Y-110560000D02*
X147424964Y-110560000D01*
X152800000Y-101462500D02*
X154800000Y-101462500D01*
X154800000Y-104200000D02*
X154800000Y-103337500D01*
X154400000Y-104600000D02*
X154800000Y-104200000D01*
X152800000Y-104600000D02*
X154400000Y-104600000D01*
X152620000Y-107500000D02*
X152620000Y-104780000D01*
X152620000Y-104780000D02*
X152800000Y-104600000D01*
X150220000Y-107500000D02*
X150220000Y-106780000D01*
X150220000Y-106780000D02*
X150495558Y-106504442D01*
X155791067Y-88251411D02*
X154332904Y-88251411D01*
X156641066Y-87401412D02*
X155791067Y-88251411D01*
X154332904Y-88251411D02*
X152984315Y-89600000D01*
X149820000Y-107500000D02*
X149820000Y-106620000D01*
X149820000Y-106620000D02*
X149600000Y-106400000D01*
X148620000Y-107500000D02*
X148620000Y-107370000D01*
X147960000Y-112160000D02*
X147160000Y-112160000D01*
X147160000Y-112160000D02*
X147000000Y-112000000D01*
X147632718Y-90858584D02*
X150091416Y-90858584D01*
X150091416Y-90858584D02*
X150450000Y-90500000D01*
X147960000Y-112560000D02*
X147340003Y-112560000D01*
X147340003Y-112560000D02*
X147000000Y-112900003D01*
X146374078Y-92412876D02*
X146862876Y-92412876D01*
X146862876Y-92412876D02*
X147800000Y-93350000D01*
X148620000Y-113220000D02*
X148620000Y-113580000D01*
X148620000Y-113580000D02*
X147900000Y-114300000D01*
X148891359Y-89304292D02*
X150854292Y-89304292D01*
X150854292Y-89304292D02*
X151150000Y-89600000D01*
X149820000Y-113220000D02*
X149820000Y-114380001D01*
X149820000Y-114380001D02*
X149350001Y-114850000D01*
X145115437Y-93967168D02*
X146482832Y-93967168D01*
X146482832Y-93967168D02*
X146600000Y-93850000D01*
X143700000Y-115737500D02*
X143700000Y-117962500D01*
X144825000Y-117637500D02*
X146000000Y-117637500D01*
X143700000Y-117962500D02*
X144500000Y-117962500D01*
X144500000Y-117962500D02*
X144825000Y-117637500D01*
X150010012Y-97789988D02*
X147100000Y-100700000D01*
X150010012Y-94428574D02*
X150010012Y-97789988D01*
X140528574Y-101471426D02*
X141150000Y-100850000D01*
X139389988Y-101471426D02*
X140528574Y-101471426D01*
X145750000Y-97138586D02*
X146360012Y-96528574D01*
X145750000Y-97950000D02*
X145750000Y-97138586D01*
X181787500Y-141000000D02*
X181387500Y-140600000D01*
X182600000Y-141000000D02*
X181787500Y-141000000D01*
X190987500Y-131300000D02*
X190000413Y-132287087D01*
X191250000Y-131300000D02*
X190987500Y-131300000D01*
X182237500Y-133450000D02*
X180587500Y-135100000D01*
X186700000Y-133450000D02*
X182237500Y-133450000D01*
X191600000Y-131875002D02*
X192150000Y-131325002D01*
X191600000Y-132200000D02*
X191600000Y-131875002D01*
X192150000Y-131274998D02*
X191325002Y-130450000D01*
X192150000Y-131325002D02*
X192150000Y-131274998D01*
X191325002Y-130450000D02*
X189700000Y-130450000D01*
X189700000Y-130450000D02*
X186700000Y-133450000D01*
X143700000Y-139400000D02*
X143200000Y-138900000D01*
X142265554Y-138900000D02*
X140068167Y-136702613D01*
X143200000Y-138900000D02*
X142265554Y-138900000D01*
X152400000Y-139400000D02*
X152400000Y-139525000D01*
X152400000Y-139525000D02*
X143700000Y-139400000D01*
X141414962Y-134935742D02*
X141735742Y-134935742D01*
X140847387Y-134368167D02*
X141414962Y-134935742D01*
X141735742Y-134935742D02*
X144900000Y-138100000D01*
X144900000Y-138100000D02*
X156900000Y-138100000D01*
X139600000Y-134750000D02*
X138547387Y-133697387D01*
X139800000Y-134750000D02*
X139600000Y-134750000D01*
X138547387Y-133697387D02*
X138547387Y-132518167D01*
X140900000Y-135850000D02*
X139800000Y-134750000D01*
X153350000Y-138900000D02*
X144250000Y-138900000D01*
X144250000Y-138900000D02*
X141200000Y-135850000D01*
X141200000Y-135850000D02*
X140900000Y-135850000D01*
X148550000Y-94061414D02*
X147539988Y-95071426D01*
X148550000Y-92350000D02*
X148550000Y-94061414D01*
X149550000Y-91350000D02*
X148550000Y-92350000D01*
X153680000Y-110160000D02*
X154150002Y-110160000D01*
X154150002Y-110160000D02*
X154350000Y-109960002D01*
X155072705Y-108747271D02*
X155461601Y-108747271D01*
X154350000Y-109960002D02*
X154350000Y-109469976D01*
X154350000Y-109469976D02*
X155072705Y-108747271D01*
X154525001Y-92000001D02*
X153200001Y-92000001D01*
X154925000Y-92400000D02*
X154525001Y-92000001D01*
X152550000Y-91350000D02*
X150450000Y-91350000D01*
X153200001Y-92000001D02*
X152550000Y-91350000D01*
X150450000Y-91350000D02*
X149550000Y-91350000D01*
X153680000Y-110560000D02*
X154340000Y-110560000D01*
X154340000Y-110560000D02*
X155200000Y-109700000D01*
X154418562Y-96200000D02*
X151189988Y-92971426D01*
X155500000Y-96200000D02*
X154418562Y-96200000D01*
X155508506Y-110559990D02*
X155723827Y-110559990D01*
X153680000Y-110960000D02*
X155108496Y-110960000D01*
X155108496Y-110960000D02*
X155508506Y-110559990D01*
X153584966Y-97934966D02*
X151765034Y-97934966D01*
X155050000Y-99400000D02*
X153584966Y-97934966D01*
X151765034Y-97934966D02*
X147200000Y-102500000D01*
X147200000Y-102500000D02*
X140150000Y-102500000D01*
X140150000Y-102500000D02*
X139000000Y-103650000D01*
X138931438Y-103650000D02*
X138210012Y-102928574D01*
X139000000Y-103650000D02*
X138931438Y-103650000D01*
X152620000Y-119380000D02*
X152200000Y-119800000D01*
X152620000Y-113220000D02*
X152620000Y-119380000D01*
X178925000Y-140600000D02*
X178425000Y-140100000D01*
X179512500Y-140600000D02*
X178925000Y-140600000D01*
X178425000Y-140100000D02*
X168300000Y-140100000D01*
X168300000Y-140100000D02*
X158350000Y-130150000D01*
X151574999Y-119400000D02*
X151574999Y-120374999D01*
X151574999Y-120374999D02*
X152200000Y-121000000D01*
X152220000Y-118754999D02*
X151574999Y-119400000D01*
X152220000Y-113220000D02*
X152220000Y-118754999D01*
X173100010Y-135100000D02*
X170000000Y-138200010D01*
X178712500Y-135100000D02*
X173100010Y-135100000D01*
X151820000Y-118604989D02*
X151224989Y-119200000D01*
X151224989Y-121624989D02*
X151400000Y-121800000D01*
X151820000Y-113220000D02*
X151820000Y-118604989D01*
X151224989Y-119200000D02*
X151224989Y-121624989D01*
X188259163Y-134028337D02*
X188259163Y-134040837D01*
X188674587Y-133612913D02*
X188259163Y-134028337D01*
X188259163Y-134040837D02*
X185000000Y-137300000D01*
X185000000Y-137300000D02*
X183700000Y-137300000D01*
X183700000Y-137300000D02*
X182150000Y-138850000D01*
X182150000Y-138850000D02*
X169250000Y-138850000D01*
X169250000Y-138850000D02*
X168850000Y-139250000D01*
X138631833Y-135497387D02*
X138497387Y-135497387D01*
X138497387Y-135497387D02*
X137500000Y-134500000D01*
X150600000Y-121400000D02*
X150600000Y-122600000D01*
X150800000Y-121200000D02*
X150600000Y-121400000D01*
X150800000Y-119130001D02*
X150800000Y-121200000D01*
X151420000Y-118510001D02*
X150800000Y-119130001D01*
X151420000Y-113220000D02*
X151420000Y-118510001D01*
X140734446Y-130100000D02*
X139752613Y-131081833D01*
X141100000Y-130100000D02*
X140734446Y-130100000D01*
X149974999Y-122000000D02*
X149974999Y-123374999D01*
X151020000Y-113220000D02*
X151020000Y-118415013D01*
X150200000Y-121305012D02*
X150200000Y-121774999D01*
X151020000Y-118415013D02*
X150400000Y-119035013D01*
X150400000Y-119035013D02*
X150400000Y-121105012D01*
X149974999Y-123374999D02*
X150200000Y-123600000D01*
X150400000Y-121105012D02*
X150200000Y-121305012D01*
X150200000Y-121774999D02*
X149974999Y-122000000D01*
X150050000Y-120960024D02*
X149510024Y-121500000D01*
X150620000Y-118320025D02*
X150050000Y-118890025D01*
X150620000Y-113220000D02*
X150620000Y-118320025D01*
X149510024Y-121500000D02*
X149400000Y-121610024D01*
X150050000Y-118890025D02*
X150050000Y-120960024D01*
X142052613Y-132931833D02*
X145318167Y-132931833D01*
X145318167Y-132931833D02*
X147850000Y-130400000D01*
X147850000Y-130400000D02*
X147850000Y-123400000D01*
X176758990Y-99101728D02*
X171007262Y-93350000D01*
X176758990Y-100303809D02*
X176758990Y-99101728D01*
X171007262Y-93350000D02*
X165294988Y-93350000D01*
X158882488Y-112950000D02*
X161000000Y-112950000D01*
X161000000Y-112950000D02*
X161950008Y-111999992D01*
X155775000Y-111760000D02*
X156000000Y-111535000D01*
X153680000Y-111760000D02*
X155775000Y-111760000D01*
X156000000Y-111535000D02*
X157467488Y-111535000D01*
X157467488Y-111535000D02*
X158882488Y-112950000D01*
X161950008Y-96694980D02*
X165294988Y-93350000D01*
X161950008Y-103450000D02*
X161950008Y-96694980D01*
X161950008Y-103450000D02*
X161950008Y-103199992D01*
X161950008Y-111999992D02*
X161950008Y-103450000D01*
X155203484Y-111360000D02*
X153680000Y-111360000D01*
X155378494Y-111184990D02*
X155203484Y-111360000D01*
X157634990Y-111184990D02*
X155378494Y-111184990D01*
X161600000Y-110850000D02*
X161600000Y-111800000D01*
X160900000Y-112500000D02*
X158950000Y-112500000D01*
X158950000Y-112500000D02*
X157634990Y-111184990D01*
X161600000Y-111800000D02*
X160900000Y-112500000D01*
X179243485Y-98573632D02*
X173419853Y-92750000D01*
X179243485Y-99775713D02*
X179243485Y-98573632D01*
X173419853Y-92750000D02*
X165400000Y-92750000D01*
X161600000Y-96550000D02*
X161850000Y-96300000D01*
X161600000Y-110850000D02*
X161600000Y-96550000D01*
X165400000Y-92750000D02*
X161850000Y-96300000D01*
X161850000Y-96300000D02*
X161700000Y-96450000D01*
X150220000Y-113220000D02*
X150220000Y-116930000D01*
X150220000Y-116930000D02*
X149900000Y-117250000D01*
X195720889Y-135416117D02*
X191266117Y-139870889D01*
X187500000Y-142000000D02*
X189137006Y-142000000D01*
X183500000Y-146000000D02*
X187500000Y-142000000D01*
X172500000Y-146000000D02*
X183500000Y-146000000D01*
X157800000Y-140950000D02*
X157800000Y-142750000D01*
X169050000Y-149450000D02*
X172500000Y-146000000D01*
X159200000Y-139550000D02*
X157800000Y-140950000D01*
X149900000Y-117250000D02*
X148885023Y-118264977D01*
X189500000Y-141637006D02*
X191266117Y-139870889D01*
X189137006Y-142000000D02*
X189500000Y-141637006D01*
X164500000Y-149450000D02*
X169050000Y-149450000D01*
X157800000Y-142750000D02*
X164500000Y-149450000D01*
X159200000Y-138500000D02*
X159200000Y-139550000D01*
X148885023Y-118264977D02*
X148885023Y-128385023D01*
X148885023Y-128385023D02*
X156150000Y-135650000D01*
X156150000Y-135650000D02*
X156350000Y-135650000D01*
X156350000Y-135650000D02*
X159200000Y-138500000D01*
X149420000Y-113810000D02*
X148500000Y-114730000D01*
X149420000Y-113220000D02*
X149420000Y-113810000D01*
X148535013Y-120735441D02*
X148535013Y-128635013D01*
X148500000Y-114730000D02*
X148500000Y-120700428D01*
X148500000Y-120700428D02*
X148535013Y-120735441D01*
X148535013Y-128635013D02*
X148535013Y-128735013D01*
X200216117Y-131070889D02*
X204670889Y-126616117D01*
X156900000Y-142650000D02*
X164250000Y-150000000D01*
X158150000Y-138850000D02*
X156900000Y-140100000D01*
X156900000Y-140100000D02*
X156900000Y-142650000D01*
X158150000Y-138250000D02*
X158150000Y-138850000D01*
X148535013Y-128635013D02*
X158150000Y-138250000D01*
X164250000Y-150000000D02*
X170200000Y-150000000D01*
X198750000Y-135150000D02*
X190900000Y-143000000D01*
X200216117Y-131070889D02*
X198750000Y-132537006D01*
X190900000Y-143000000D02*
X188500000Y-143000000D01*
X198750000Y-132537006D02*
X198750000Y-135150000D01*
X185500000Y-146000000D02*
X184000000Y-147500000D01*
X188500000Y-143000000D02*
X185500000Y-146000000D01*
X184000000Y-147500000D02*
X173000000Y-147500000D01*
X170500000Y-150000000D02*
X170000000Y-150000000D01*
X173000000Y-147500000D02*
X170500000Y-150000000D01*
X170200000Y-150000000D02*
X170000000Y-150000000D01*
X170000000Y-150000000D02*
X169550000Y-150000000D01*
D28*
G36*
X140602061Y-111297919D02*
X140665520Y-111340321D01*
X140859677Y-111534478D01*
X140902079Y-111597937D01*
X141153471Y-111765912D01*
X141375156Y-111810008D01*
X141375160Y-111810008D01*
X141450008Y-111824896D01*
X141524856Y-111810008D01*
X143870133Y-111810008D01*
X143942993Y-111824501D01*
X143752071Y-111952071D01*
X143709671Y-112015527D01*
X143215530Y-112509669D01*
X143152071Y-112552071D01*
X143002787Y-112775491D01*
X142902706Y-112795398D01*
X142613584Y-112988584D01*
X142420398Y-113277706D01*
X142352560Y-113618750D01*
X142352560Y-114106250D01*
X142420398Y-114447294D01*
X142613584Y-114736416D01*
X142708744Y-114800000D01*
X142613584Y-114863584D01*
X142420398Y-115152706D01*
X142352560Y-115493750D01*
X142352560Y-115981250D01*
X142420398Y-116322294D01*
X142613584Y-116611416D01*
X142902706Y-116804602D01*
X142940000Y-116812020D01*
X142940001Y-116887980D01*
X142902706Y-116895398D01*
X142613584Y-117088584D01*
X142420398Y-117377706D01*
X142352560Y-117718750D01*
X142352560Y-118206250D01*
X142420398Y-118547294D01*
X142613584Y-118836416D01*
X142708744Y-118900000D01*
X142613584Y-118963584D01*
X142420398Y-119252706D01*
X142352560Y-119593750D01*
X142352560Y-120081250D01*
X142420398Y-120422294D01*
X142613584Y-120711416D01*
X142902706Y-120904602D01*
X142940000Y-120912020D01*
X142940001Y-121596288D01*
X142822569Y-121713720D01*
X142665000Y-122094126D01*
X142665000Y-122505874D01*
X142822569Y-122886280D01*
X143113720Y-123177431D01*
X143494126Y-123335000D01*
X143905874Y-123335000D01*
X144286280Y-123177431D01*
X144577431Y-122886280D01*
X144735000Y-122505874D01*
X144735000Y-122094126D01*
X144705643Y-122023250D01*
X144765000Y-122023250D01*
X144765000Y-122351309D01*
X144861673Y-122584698D01*
X145040301Y-122763327D01*
X145273690Y-122860000D01*
X145814250Y-122860000D01*
X145973000Y-122701250D01*
X145973000Y-121864500D01*
X144923750Y-121864500D01*
X144765000Y-122023250D01*
X144705643Y-122023250D01*
X144577431Y-121713720D01*
X144460000Y-121596289D01*
X144460000Y-120912020D01*
X144497294Y-120904602D01*
X144786416Y-120711416D01*
X144862533Y-120597500D01*
X144920763Y-120597500D01*
X145013584Y-120736416D01*
X145014767Y-120737207D01*
X144861673Y-120890302D01*
X144765000Y-121123691D01*
X144765000Y-121451750D01*
X144923750Y-121610500D01*
X145973000Y-121610500D01*
X145973000Y-121590500D01*
X146227000Y-121590500D01*
X146227000Y-121610500D01*
X147276250Y-121610500D01*
X147435000Y-121451750D01*
X147435000Y-121123691D01*
X147338327Y-120890302D01*
X147185233Y-120737207D01*
X147186416Y-120736416D01*
X147379602Y-120447294D01*
X147447440Y-120106250D01*
X147447440Y-119618750D01*
X147379602Y-119277706D01*
X147186416Y-118988584D01*
X146897294Y-118795398D01*
X146619063Y-118740054D01*
X146797294Y-118704602D01*
X147086416Y-118511416D01*
X147279602Y-118222294D01*
X147347440Y-117881250D01*
X147347440Y-117393750D01*
X147279602Y-117052706D01*
X147086416Y-116763584D01*
X147085233Y-116762793D01*
X147238327Y-116609698D01*
X147335000Y-116376309D01*
X147335000Y-116048250D01*
X147176250Y-115889500D01*
X146127000Y-115889500D01*
X146127000Y-115909500D01*
X145873000Y-115909500D01*
X145873000Y-115889500D01*
X145853000Y-115889500D01*
X145853000Y-115635500D01*
X145873000Y-115635500D01*
X145873000Y-114798750D01*
X145714250Y-114640000D01*
X145173690Y-114640000D01*
X144940301Y-114736673D01*
X144797221Y-114879754D01*
X144786416Y-114863584D01*
X144691256Y-114800000D01*
X144786416Y-114736416D01*
X144979602Y-114447294D01*
X145047440Y-114106250D01*
X145047440Y-113618750D01*
X144979602Y-113277706D01*
X144967771Y-113260000D01*
X145410117Y-113260000D01*
X145484964Y-113274888D01*
X145559811Y-113260000D01*
X145559816Y-113260000D01*
X145781501Y-113215904D01*
X145965000Y-113093294D01*
X145965000Y-113105877D01*
X146122569Y-113486283D01*
X146413720Y-113777434D01*
X146794126Y-113935003D01*
X146930911Y-113935003D01*
X146865000Y-114094126D01*
X146865000Y-114505874D01*
X146940076Y-114687123D01*
X146826310Y-114640000D01*
X146285750Y-114640000D01*
X146127000Y-114798750D01*
X146127000Y-115635500D01*
X147176250Y-115635500D01*
X147335000Y-115476750D01*
X147335000Y-115186245D01*
X147694126Y-115335000D01*
X147740000Y-115335000D01*
X147740001Y-120625576D01*
X147725112Y-120700428D01*
X147740001Y-120775280D01*
X147767898Y-120915528D01*
X147775013Y-120951297D01*
X147775013Y-122365000D01*
X147644126Y-122365000D01*
X147384843Y-122472398D01*
X147435000Y-122351309D01*
X147435000Y-122023250D01*
X147276250Y-121864500D01*
X146227000Y-121864500D01*
X146227000Y-122701250D01*
X146385750Y-122860000D01*
X146926310Y-122860000D01*
X146959010Y-122846455D01*
X146815000Y-123194126D01*
X146815000Y-123605874D01*
X146972569Y-123986280D01*
X147090001Y-124103712D01*
X147090000Y-127373000D01*
X146823960Y-127373000D01*
X146844045Y-127282404D01*
X146800177Y-127033623D01*
X146664446Y-126820567D01*
X145730154Y-126166369D01*
X145509059Y-126205354D01*
X144691465Y-127373000D01*
X144381387Y-127373000D01*
X145300994Y-126059666D01*
X145262009Y-125838570D01*
X144327718Y-125184373D01*
X144081087Y-125129696D01*
X143832306Y-125173562D01*
X143619250Y-125309294D01*
X143474354Y-125516227D01*
X142678263Y-126653162D01*
X142717248Y-126874258D01*
X143429526Y-127373000D01*
X142986691Y-127373000D01*
X142571560Y-127082322D01*
X142350464Y-127121307D01*
X142174227Y-127373000D01*
X141122022Y-127373000D01*
X140471184Y-111102047D01*
X140602061Y-111297919D01*
X140602061Y-111297919D01*
G37*
X140602061Y-111297919D02*
X140665520Y-111340321D01*
X140859677Y-111534478D01*
X140902079Y-111597937D01*
X141153471Y-111765912D01*
X141375156Y-111810008D01*
X141375160Y-111810008D01*
X141450008Y-111824896D01*
X141524856Y-111810008D01*
X143870133Y-111810008D01*
X143942993Y-111824501D01*
X143752071Y-111952071D01*
X143709671Y-112015527D01*
X143215530Y-112509669D01*
X143152071Y-112552071D01*
X143002787Y-112775491D01*
X142902706Y-112795398D01*
X142613584Y-112988584D01*
X142420398Y-113277706D01*
X142352560Y-113618750D01*
X142352560Y-114106250D01*
X142420398Y-114447294D01*
X142613584Y-114736416D01*
X142708744Y-114800000D01*
X142613584Y-114863584D01*
X142420398Y-115152706D01*
X142352560Y-115493750D01*
X142352560Y-115981250D01*
X142420398Y-116322294D01*
X142613584Y-116611416D01*
X142902706Y-116804602D01*
X142940000Y-116812020D01*
X142940001Y-116887980D01*
X142902706Y-116895398D01*
X142613584Y-117088584D01*
X142420398Y-117377706D01*
X142352560Y-117718750D01*
X142352560Y-118206250D01*
X142420398Y-118547294D01*
X142613584Y-118836416D01*
X142708744Y-118900000D01*
X142613584Y-118963584D01*
X142420398Y-119252706D01*
X142352560Y-119593750D01*
X142352560Y-120081250D01*
X142420398Y-120422294D01*
X142613584Y-120711416D01*
X142902706Y-120904602D01*
X142940000Y-120912020D01*
X142940001Y-121596288D01*
X142822569Y-121713720D01*
X142665000Y-122094126D01*
X142665000Y-122505874D01*
X142822569Y-122886280D01*
X143113720Y-123177431D01*
X143494126Y-123335000D01*
X143905874Y-123335000D01*
X144286280Y-123177431D01*
X144577431Y-122886280D01*
X144735000Y-122505874D01*
X144735000Y-122094126D01*
X144705643Y-122023250D01*
X144765000Y-122023250D01*
X144765000Y-122351309D01*
X144861673Y-122584698D01*
X145040301Y-122763327D01*
X145273690Y-122860000D01*
X145814250Y-122860000D01*
X145973000Y-122701250D01*
X145973000Y-121864500D01*
X144923750Y-121864500D01*
X144765000Y-122023250D01*
X144705643Y-122023250D01*
X144577431Y-121713720D01*
X144460000Y-121596289D01*
X144460000Y-120912020D01*
X144497294Y-120904602D01*
X144786416Y-120711416D01*
X144862533Y-120597500D01*
X144920763Y-120597500D01*
X145013584Y-120736416D01*
X145014767Y-120737207D01*
X144861673Y-120890302D01*
X144765000Y-121123691D01*
X144765000Y-121451750D01*
X144923750Y-121610500D01*
X145973000Y-121610500D01*
X145973000Y-121590500D01*
X146227000Y-121590500D01*
X146227000Y-121610500D01*
X147276250Y-121610500D01*
X147435000Y-121451750D01*
X147435000Y-121123691D01*
X147338327Y-120890302D01*
X147185233Y-120737207D01*
X147186416Y-120736416D01*
X147379602Y-120447294D01*
X147447440Y-120106250D01*
X147447440Y-119618750D01*
X147379602Y-119277706D01*
X147186416Y-118988584D01*
X146897294Y-118795398D01*
X146619063Y-118740054D01*
X146797294Y-118704602D01*
X147086416Y-118511416D01*
X147279602Y-118222294D01*
X147347440Y-117881250D01*
X147347440Y-117393750D01*
X147279602Y-117052706D01*
X147086416Y-116763584D01*
X147085233Y-116762793D01*
X147238327Y-116609698D01*
X147335000Y-116376309D01*
X147335000Y-116048250D01*
X147176250Y-115889500D01*
X146127000Y-115889500D01*
X146127000Y-115909500D01*
X145873000Y-115909500D01*
X145873000Y-115889500D01*
X145853000Y-115889500D01*
X145853000Y-115635500D01*
X145873000Y-115635500D01*
X145873000Y-114798750D01*
X145714250Y-114640000D01*
X145173690Y-114640000D01*
X144940301Y-114736673D01*
X144797221Y-114879754D01*
X144786416Y-114863584D01*
X144691256Y-114800000D01*
X144786416Y-114736416D01*
X144979602Y-114447294D01*
X145047440Y-114106250D01*
X145047440Y-113618750D01*
X144979602Y-113277706D01*
X144967771Y-113260000D01*
X145410117Y-113260000D01*
X145484964Y-113274888D01*
X145559811Y-113260000D01*
X145559816Y-113260000D01*
X145781501Y-113215904D01*
X145965000Y-113093294D01*
X145965000Y-113105877D01*
X146122569Y-113486283D01*
X146413720Y-113777434D01*
X146794126Y-113935003D01*
X146930911Y-113935003D01*
X146865000Y-114094126D01*
X146865000Y-114505874D01*
X146940076Y-114687123D01*
X146826310Y-114640000D01*
X146285750Y-114640000D01*
X146127000Y-114798750D01*
X146127000Y-115635500D01*
X147176250Y-115635500D01*
X147335000Y-115476750D01*
X147335000Y-115186245D01*
X147694126Y-115335000D01*
X147740000Y-115335000D01*
X147740001Y-120625576D01*
X147725112Y-120700428D01*
X147740001Y-120775280D01*
X147767898Y-120915528D01*
X147775013Y-120951297D01*
X147775013Y-122365000D01*
X147644126Y-122365000D01*
X147384843Y-122472398D01*
X147435000Y-122351309D01*
X147435000Y-122023250D01*
X147276250Y-121864500D01*
X146227000Y-121864500D01*
X146227000Y-122701250D01*
X146385750Y-122860000D01*
X146926310Y-122860000D01*
X146959010Y-122846455D01*
X146815000Y-123194126D01*
X146815000Y-123605874D01*
X146972569Y-123986280D01*
X147090001Y-124103712D01*
X147090000Y-127373000D01*
X146823960Y-127373000D01*
X146844045Y-127282404D01*
X146800177Y-127033623D01*
X146664446Y-126820567D01*
X145730154Y-126166369D01*
X145509059Y-126205354D01*
X144691465Y-127373000D01*
X144381387Y-127373000D01*
X145300994Y-126059666D01*
X145262009Y-125838570D01*
X144327718Y-125184373D01*
X144081087Y-125129696D01*
X143832306Y-125173562D01*
X143619250Y-125309294D01*
X143474354Y-125516227D01*
X142678263Y-126653162D01*
X142717248Y-126874258D01*
X143429526Y-127373000D01*
X142986691Y-127373000D01*
X142571560Y-127082322D01*
X142350464Y-127121307D01*
X142174227Y-127373000D01*
X141122022Y-127373000D01*
X140471184Y-111102047D01*
X140602061Y-111297919D01*
G36*
X153927000Y-116210500D02*
X153947000Y-116210500D01*
X153947000Y-116464500D01*
X153927000Y-116464500D01*
X153927000Y-117301250D01*
X154085750Y-117460000D01*
X154470536Y-117460000D01*
X154663584Y-117748916D01*
X154664767Y-117749707D01*
X154511673Y-117902802D01*
X154415000Y-118136191D01*
X154415000Y-118464250D01*
X154573750Y-118623000D01*
X155623000Y-118623000D01*
X155623000Y-118603000D01*
X155877000Y-118603000D01*
X155877000Y-118623000D01*
X156926250Y-118623000D01*
X157085000Y-118464250D01*
X157085000Y-118136191D01*
X156988327Y-117902802D01*
X156835233Y-117749707D01*
X156836416Y-117748916D01*
X157029602Y-117459794D01*
X157097440Y-117118750D01*
X157097440Y-116631250D01*
X157033539Y-116310000D01*
X157076310Y-116310000D01*
X157128187Y-116288512D01*
X157140000Y-116347575D01*
X157139999Y-119528841D01*
X156991093Y-119590520D01*
X157085000Y-119363809D01*
X157085000Y-119035750D01*
X156926250Y-118877000D01*
X155877000Y-118877000D01*
X155877000Y-119713750D01*
X156035750Y-119872500D01*
X156576310Y-119872500D01*
X156725646Y-119810643D01*
X156622569Y-119913720D01*
X156465000Y-120294126D01*
X156465000Y-120705874D01*
X156622569Y-121086280D01*
X156913720Y-121377431D01*
X157294126Y-121535000D01*
X157705874Y-121535000D01*
X158086280Y-121377431D01*
X158136023Y-121327688D01*
X159345085Y-127373000D01*
X157985000Y-127373000D01*
X157985000Y-124438217D01*
X157919146Y-124107145D01*
X157668289Y-123731711D01*
X157292854Y-123480854D01*
X156850000Y-123392765D01*
X156407145Y-123480854D01*
X156031711Y-123731711D01*
X155780854Y-124107146D01*
X155715000Y-124438218D01*
X155715000Y-127373000D01*
X149645023Y-127373000D01*
X149645023Y-124490397D01*
X149994126Y-124635000D01*
X150405874Y-124635000D01*
X150786280Y-124477431D01*
X151077431Y-124186280D01*
X151235000Y-123805874D01*
X151235000Y-123428711D01*
X151477431Y-123186280D01*
X151626469Y-122826469D01*
X151986280Y-122677431D01*
X152277431Y-122386280D01*
X152426469Y-122026469D01*
X152786280Y-121877431D01*
X153077431Y-121586280D01*
X153235000Y-121205874D01*
X153235000Y-120794126D01*
X153077431Y-120413720D01*
X153063711Y-120400000D01*
X153077431Y-120386280D01*
X153235000Y-120005874D01*
X153235000Y-119827550D01*
X153278366Y-119762648D01*
X153335904Y-119676538D01*
X153351106Y-119600111D01*
X153380000Y-119454852D01*
X153380000Y-119454848D01*
X153394888Y-119380000D01*
X153380000Y-119305152D01*
X153380000Y-119035750D01*
X154415000Y-119035750D01*
X154415000Y-119363809D01*
X154511673Y-119597198D01*
X154690301Y-119775827D01*
X154923690Y-119872500D01*
X155464250Y-119872500D01*
X155623000Y-119713750D01*
X155623000Y-118877000D01*
X154573750Y-118877000D01*
X154415000Y-119035750D01*
X153380000Y-119035750D01*
X153380000Y-117460000D01*
X153514250Y-117460000D01*
X153673000Y-117301250D01*
X153673000Y-116464500D01*
X153653000Y-116464500D01*
X153653000Y-116210500D01*
X153673000Y-116210500D01*
X153673000Y-116190500D01*
X153927000Y-116190500D01*
X153927000Y-116210500D01*
X153927000Y-116210500D01*
G37*
X153927000Y-116210500D02*
X153947000Y-116210500D01*
X153947000Y-116464500D01*
X153927000Y-116464500D01*
X153927000Y-117301250D01*
X154085750Y-117460000D01*
X154470536Y-117460000D01*
X154663584Y-117748916D01*
X154664767Y-117749707D01*
X154511673Y-117902802D01*
X154415000Y-118136191D01*
X154415000Y-118464250D01*
X154573750Y-118623000D01*
X155623000Y-118623000D01*
X155623000Y-118603000D01*
X155877000Y-118603000D01*
X155877000Y-118623000D01*
X156926250Y-118623000D01*
X157085000Y-118464250D01*
X157085000Y-118136191D01*
X156988327Y-117902802D01*
X156835233Y-117749707D01*
X156836416Y-117748916D01*
X157029602Y-117459794D01*
X157097440Y-117118750D01*
X157097440Y-116631250D01*
X157033539Y-116310000D01*
X157076310Y-116310000D01*
X157128187Y-116288512D01*
X157140000Y-116347575D01*
X157139999Y-119528841D01*
X156991093Y-119590520D01*
X157085000Y-119363809D01*
X157085000Y-119035750D01*
X156926250Y-118877000D01*
X155877000Y-118877000D01*
X155877000Y-119713750D01*
X156035750Y-119872500D01*
X156576310Y-119872500D01*
X156725646Y-119810643D01*
X156622569Y-119913720D01*
X156465000Y-120294126D01*
X156465000Y-120705874D01*
X156622569Y-121086280D01*
X156913720Y-121377431D01*
X157294126Y-121535000D01*
X157705874Y-121535000D01*
X158086280Y-121377431D01*
X158136023Y-121327688D01*
X159345085Y-127373000D01*
X157985000Y-127373000D01*
X157985000Y-124438217D01*
X157919146Y-124107145D01*
X157668289Y-123731711D01*
X157292854Y-123480854D01*
X156850000Y-123392765D01*
X156407145Y-123480854D01*
X156031711Y-123731711D01*
X155780854Y-124107146D01*
X155715000Y-124438218D01*
X155715000Y-127373000D01*
X149645023Y-127373000D01*
X149645023Y-124490397D01*
X149994126Y-124635000D01*
X150405874Y-124635000D01*
X150786280Y-124477431D01*
X151077431Y-124186280D01*
X151235000Y-123805874D01*
X151235000Y-123428711D01*
X151477431Y-123186280D01*
X151626469Y-122826469D01*
X151986280Y-122677431D01*
X152277431Y-122386280D01*
X152426469Y-122026469D01*
X152786280Y-121877431D01*
X153077431Y-121586280D01*
X153235000Y-121205874D01*
X153235000Y-120794126D01*
X153077431Y-120413720D01*
X153063711Y-120400000D01*
X153077431Y-120386280D01*
X153235000Y-120005874D01*
X153235000Y-119827550D01*
X153278366Y-119762648D01*
X153335904Y-119676538D01*
X153351106Y-119600111D01*
X153380000Y-119454852D01*
X153380000Y-119454848D01*
X153394888Y-119380000D01*
X153380000Y-119305152D01*
X153380000Y-119035750D01*
X154415000Y-119035750D01*
X154415000Y-119363809D01*
X154511673Y-119597198D01*
X154690301Y-119775827D01*
X154923690Y-119872500D01*
X155464250Y-119872500D01*
X155623000Y-119713750D01*
X155623000Y-118877000D01*
X154573750Y-118877000D01*
X154415000Y-119035750D01*
X153380000Y-119035750D01*
X153380000Y-117460000D01*
X153514250Y-117460000D01*
X153673000Y-117301250D01*
X153673000Y-116464500D01*
X153653000Y-116464500D01*
X153653000Y-116210500D01*
X153673000Y-116210500D01*
X153673000Y-116190500D01*
X153927000Y-116190500D01*
X153927000Y-116210500D01*
G36*
X156377000Y-115060500D02*
X156397000Y-115060500D01*
X156397000Y-115314500D01*
X156377000Y-115314500D01*
X156377000Y-115334500D01*
X156123000Y-115334500D01*
X156123000Y-115314500D01*
X156103000Y-115314500D01*
X156103000Y-115060500D01*
X156123000Y-115060500D01*
X156123000Y-115040500D01*
X156377000Y-115040500D01*
X156377000Y-115060500D01*
X156377000Y-115060500D01*
G37*
X156377000Y-115060500D02*
X156397000Y-115060500D01*
X156397000Y-115314500D01*
X156377000Y-115314500D01*
X156377000Y-115334500D01*
X156123000Y-115334500D01*
X156123000Y-115314500D01*
X156103000Y-115314500D01*
X156103000Y-115060500D01*
X156123000Y-115060500D01*
X156123000Y-115040500D01*
X156377000Y-115040500D01*
X156377000Y-115060500D01*
G36*
X150947000Y-110233000D02*
X150967000Y-110233000D01*
X150967000Y-110487000D01*
X150947000Y-110487000D01*
X150947000Y-110507000D01*
X150693000Y-110507000D01*
X150693000Y-110487000D01*
X150673000Y-110487000D01*
X150673000Y-110233000D01*
X150693000Y-110233000D01*
X150693000Y-110213000D01*
X150947000Y-110213000D01*
X150947000Y-110233000D01*
X150947000Y-110233000D01*
G37*
X150947000Y-110233000D02*
X150967000Y-110233000D01*
X150967000Y-110487000D01*
X150947000Y-110487000D01*
X150947000Y-110507000D01*
X150693000Y-110507000D01*
X150693000Y-110487000D01*
X150673000Y-110487000D01*
X150673000Y-110233000D01*
X150693000Y-110233000D01*
X150693000Y-110213000D01*
X150947000Y-110213000D01*
X150947000Y-110233000D01*
G36*
X144547000Y-109077000D02*
X144527000Y-109077000D01*
X144527000Y-109097000D01*
X144273000Y-109097000D01*
X144273000Y-109077000D01*
X144253000Y-109077000D01*
X144253000Y-108897440D01*
X144547000Y-108897440D01*
X144547000Y-109077000D01*
X144547000Y-109077000D01*
G37*
X144547000Y-109077000D02*
X144527000Y-109077000D01*
X144527000Y-109097000D01*
X144273000Y-109097000D01*
X144273000Y-109077000D01*
X144253000Y-109077000D01*
X144253000Y-108897440D01*
X144547000Y-108897440D01*
X144547000Y-109077000D01*
G36*
X142827000Y-107735500D02*
X142847000Y-107735500D01*
X142847000Y-107989500D01*
X142827000Y-107989500D01*
X142827000Y-108009500D01*
X142573000Y-108009500D01*
X142573000Y-107989500D01*
X142553000Y-107989500D01*
X142553000Y-107735500D01*
X142573000Y-107735500D01*
X142573000Y-107715500D01*
X142827000Y-107715500D01*
X142827000Y-107735500D01*
X142827000Y-107735500D01*
G37*
X142827000Y-107735500D02*
X142847000Y-107735500D01*
X142847000Y-107989500D01*
X142827000Y-107989500D01*
X142827000Y-108009500D01*
X142573000Y-108009500D01*
X142573000Y-107989500D01*
X142553000Y-107989500D01*
X142553000Y-107735500D01*
X142573000Y-107735500D01*
X142573000Y-107715500D01*
X142827000Y-107715500D01*
X142827000Y-107735500D01*
G36*
X145927000Y-107723000D02*
X145940000Y-107723000D01*
X145940000Y-107902560D01*
X145653000Y-107902560D01*
X145653000Y-107723000D01*
X145673000Y-107723000D01*
X145673000Y-107710000D01*
X145927000Y-107710000D01*
X145927000Y-107723000D01*
X145927000Y-107723000D01*
G37*
X145927000Y-107723000D02*
X145940000Y-107723000D01*
X145940000Y-107902560D01*
X145653000Y-107902560D01*
X145653000Y-107723000D01*
X145673000Y-107723000D01*
X145673000Y-107710000D01*
X145927000Y-107710000D01*
X145927000Y-107723000D01*
G36*
X149520398Y-102877706D02*
X149452560Y-103218750D01*
X149452560Y-103242035D01*
X149309699Y-103099173D01*
X149076310Y-103002500D01*
X148535750Y-103002500D01*
X148377000Y-103161250D01*
X148377000Y-103998000D01*
X148397000Y-103998000D01*
X148397000Y-104252000D01*
X148377000Y-104252000D01*
X148377000Y-104272000D01*
X148123000Y-104272000D01*
X148123000Y-104252000D01*
X146327000Y-104252000D01*
X146327000Y-104272000D01*
X146073000Y-104272000D01*
X146073000Y-104252000D01*
X145488750Y-104252000D01*
X145363750Y-104127000D01*
X144527000Y-104127000D01*
X144527000Y-105873000D01*
X144547000Y-105873000D01*
X144547000Y-106127000D01*
X144527000Y-106127000D01*
X144527000Y-106147000D01*
X144273000Y-106147000D01*
X144273000Y-106127000D01*
X144253000Y-106127000D01*
X144253000Y-105873000D01*
X144273000Y-105873000D01*
X144273000Y-104127000D01*
X144253000Y-104127000D01*
X144253000Y-103873000D01*
X144273000Y-103873000D01*
X144273000Y-103853000D01*
X144527000Y-103853000D01*
X144527000Y-103873000D01*
X144898750Y-103873000D01*
X145023750Y-103998000D01*
X146073000Y-103998000D01*
X146073000Y-103978000D01*
X146327000Y-103978000D01*
X146327000Y-103998000D01*
X148123000Y-103998000D01*
X148123000Y-103161250D01*
X147964250Y-103002500D01*
X147778284Y-103002500D01*
X147790331Y-102984470D01*
X148147801Y-102627000D01*
X149687915Y-102627000D01*
X149520398Y-102877706D01*
X149520398Y-102877706D01*
G37*
X149520398Y-102877706D02*
X149452560Y-103218750D01*
X149452560Y-103242035D01*
X149309699Y-103099173D01*
X149076310Y-103002500D01*
X148535750Y-103002500D01*
X148377000Y-103161250D01*
X148377000Y-103998000D01*
X148397000Y-103998000D01*
X148397000Y-104252000D01*
X148377000Y-104252000D01*
X148377000Y-104272000D01*
X148123000Y-104272000D01*
X148123000Y-104252000D01*
X146327000Y-104252000D01*
X146327000Y-104272000D01*
X146073000Y-104272000D01*
X146073000Y-104252000D01*
X145488750Y-104252000D01*
X145363750Y-104127000D01*
X144527000Y-104127000D01*
X144527000Y-105873000D01*
X144547000Y-105873000D01*
X144547000Y-106127000D01*
X144527000Y-106127000D01*
X144527000Y-106147000D01*
X144273000Y-106147000D01*
X144273000Y-106127000D01*
X144253000Y-106127000D01*
X144253000Y-105873000D01*
X144273000Y-105873000D01*
X144273000Y-104127000D01*
X144253000Y-104127000D01*
X144253000Y-103873000D01*
X144273000Y-103873000D01*
X144273000Y-103853000D01*
X144527000Y-103853000D01*
X144527000Y-103873000D01*
X144898750Y-103873000D01*
X145023750Y-103998000D01*
X146073000Y-103998000D01*
X146073000Y-103978000D01*
X146327000Y-103978000D01*
X146327000Y-103998000D01*
X148123000Y-103998000D01*
X148123000Y-103161250D01*
X147964250Y-103002500D01*
X147778284Y-103002500D01*
X147790331Y-102984470D01*
X148147801Y-102627000D01*
X149687915Y-102627000D01*
X149520398Y-102877706D01*
G36*
X150927000Y-105210500D02*
X150947000Y-105210500D01*
X150947000Y-105464500D01*
X150927000Y-105464500D01*
X150927000Y-105484500D01*
X150737785Y-105484500D01*
X150701432Y-105469442D01*
X150673000Y-105469442D01*
X150673000Y-105464500D01*
X150653000Y-105464500D01*
X150653000Y-105210500D01*
X150673000Y-105210500D01*
X150673000Y-105190500D01*
X150927000Y-105190500D01*
X150927000Y-105210500D01*
X150927000Y-105210500D01*
G37*
X150927000Y-105210500D02*
X150947000Y-105210500D01*
X150947000Y-105464500D01*
X150927000Y-105464500D01*
X150927000Y-105484500D01*
X150737785Y-105484500D01*
X150701432Y-105469442D01*
X150673000Y-105469442D01*
X150673000Y-105464500D01*
X150653000Y-105464500D01*
X150653000Y-105210500D01*
X150673000Y-105210500D01*
X150673000Y-105190500D01*
X150927000Y-105190500D01*
X150927000Y-105210500D01*
G36*
X149713584Y-104336416D02*
X149714767Y-104337207D01*
X149585000Y-104466975D01*
X149585000Y-104410750D01*
X149426252Y-104252002D01*
X149585000Y-104252002D01*
X149585000Y-104143977D01*
X149713584Y-104336416D01*
X149713584Y-104336416D01*
G37*
X149713584Y-104336416D02*
X149714767Y-104337207D01*
X149585000Y-104466975D01*
X149585000Y-104410750D01*
X149426252Y-104252002D01*
X149585000Y-104252002D01*
X149585000Y-104143977D01*
X149713584Y-104336416D01*
G36*
X149510592Y-103997998D02*
X149426252Y-103997998D01*
X149496599Y-103927651D01*
X149510592Y-103997998D01*
X149510592Y-103997998D01*
G37*
X149510592Y-103997998D02*
X149426252Y-103997998D01*
X149496599Y-103927651D01*
X149510592Y-103997998D01*
M02*
